<svg width="5000" height="5000" viewBox="0 0 5000 5000" fill="none" xmlns="http://www.w3.org/2000/svg">
<path d="M270.883 610.213C268.415 609.359 265.602 608.652 262.796 608.171C256.72 607.133 245.683 606.319 236.795 606.269C226.224 606.196 199.862 607.264 195.719 607.946C189.004 609.03 187.702 613.568 193.388 616.064C194.696 616.663 196.073 616.989 199.148 617.428C207.433 618.673 219.896 621.223 221.777 622.086C223.222 622.748 224.209 623.867 224.279 624.926C224.398 626.424 223.892 626.497 210.945 626.944C198.382 627.401 196.46 627.658 194.847 629C192.136 631.281 193.396 635.134 197.797 638.012C199.621 639.182 199.519 639.163 210.596 642.493C214.452 643.65 217.807 644.689 218.037 644.794C218.404 644.963 218.324 645.259 217.115 647.897C216.39 649.479 213.904 654.362 211.569 658.731C206.413 668.412 203.352 675.335 199.34 686.457C196.09 695.43 190.954 707.369 188.608 711.4C184.109 719.162 178.263 726.528 166.47 739.245C156.811 749.664 153.203 753.783 148.68 759.536C142.629 767.169 134.938 778.02 132.099 782.824L131.247 784.32L111.238 792.548C100.248 797.085 91.0718 800.815 90.8252 800.868C90.5223 800.924 90.0632 800.047 89.0225 797.35C87.4615 793.304 86.6401 792.067 84.9424 791.288C81.4093 789.668 77.5852 792.744 77.7336 797.086C77.7915 798.778 82.4185 812.251 83.1786 813.016C84.9406 814.684 87.9325 815.667 90.189 815.286C90.7615 815.188 101.452 811.486 113.947 807.057L136.66 798.986L143.382 802.068L150.104 805.15L149.194 805.621C146.011 807.298 92.6676 832.298 92.0177 832.444C90.392 832.781 89.3997 832.16 85.7447 828.624C81.1671 824.194 79.8086 823.1 78.4732 822.682C75.7585 821.881 73.8886 823.66 74.0443 826.896C74.1241 828.237 75.5341 832.491 76.6597 834.7C78.2568 837.819 80.2484 840.259 83.4549 842.895C86.2092 845.185 90.5805 846.55 93.8396 846.102C94.5478 846.01 108.257 839.779 129.797 829.783C148.948 820.884 164.92 813.47 165.321 813.321L166.024 813.06L174.49 817.303C205.671 832.987 251.642 855.591 281.432 869.887L284.508 871.353L284.144 886.451C282.824 939.994 282.854 938.898 282.077 940.595C281.299 942.292 281.009 942.381 275.045 942.672C271.979 942.821 268.871 943.061 268.165 943.209C264.149 943.976 262.882 947.531 265.478 950.831C266.729 952.403 268.228 953.313 270.044 953.59C271.848 953.834 289.281 951.836 290.356 951.246C290.988 950.898 291.332 950.389 292.325 948.402C294.629 943.797 294.521 944.941 295.893 909.767C296.561 892.311 297.201 878.006 297.301 877.968C297.479 877.883 304.453 882.718 305.524 883.653C306.374 884.404 307.097 886.401 307.171 888.239C307.189 889.107 307.046 893.843 306.855 898.807C304.866 947.63 304.31 960.781 304.181 961.609C303.867 963.325 303.267 963.605 299.149 964.048C297.112 964.252 294.817 964.476 294.017 964.526C290.413 964.817 288.307 965.96 287.631 967.982C286.609 971.121 289.162 974.456 292.749 974.686C294.334 974.802 312.98 971.611 313.798 971.098C314.616 970.585 315.838 968.342 316.338 966.462C316.589 965.55 317.077 961.999 317.467 958.542C319.973 935.74 320.372 911.721 318.71 879.957C318.421 874.163 318.402 871.296 318.649 869.91L319.001 867.99L341.46 824.112L363.92 780.234L366.664 778.244C370.728 775.251 375.293 771.405 377.428 769.108C380.828 765.505 381.129 763.756 378.619 762.327C377.664 761.806 377.117 761.667 375.841 761.664C373.628 761.649 369.806 763.144 366.113 765.447C362.841 767.499 362.315 767.619 359.752 766.971C358.955 766.772 357.34 766.115 356.179 765.499C353.81 764.247 332.598 751.163 303.488 732.959C252.966 701.441 242.572 694.983 232.254 688.781C228.969 686.803 225.75 684.8 225.114 684.369C222.138 682.2 221.558 680.074 222.255 674.066C222.931 668.409 224.294 663.677 226.889 658.012C230.997 649.044 235.241 644.689 242.61 641.934C247.404 640.136 252.512 639.591 257.641 640.333C260.715 640.771 265.294 642.593 267.553 644.267C270.612 646.558 272.803 650.199 273.107 653.475C273.388 656.74 271.927 662.231 269.943 665.29C266.994 669.85 262.774 672.578 255.448 674.631C249.958 676.193 248.362 677.071 247.383 679.148C246.908 680.124 246.905 680.372 247.297 681.274C247.69 682.175 247.91 682.36 249.241 682.97C252.958 684.674 259.777 684.331 265.742 682.098C270.602 680.274 274.322 677.789 277.852 674.023C281.294 670.328 284.331 664.727 285.277 660.359C286.486 654.752 286.087 647.381 284.365 642.595C282.183 636.571 277.413 632.136 270.568 629.747C265.152 627.874 261.13 627.14 249.673 625.911C241.56 625.078 241.253 625.02 239.234 624.095C237.457 623.308 237.075 623.05 236.831 622.493C236.451 621.625 236.716 621.108 237.838 620.596C239.16 619.953 241.525 619.761 246.61 619.872C257.74 620.118 265.307 621.173 270.889 623.288C277.513 625.798 282.183 629.299 287.507 635.737C293.407 642.855 294.891 646.949 294.758 655.964C294.674 662.753 292.826 668.788 288.982 674.936C285.995 679.7 282.894 683.135 277.387 687.826C272.888 691.647 271.264 693.678 270.795 696.155C270.13 699.486 272.741 700.572 277.414 698.857C292.635 693.263 305.065 673.4 304.894 654.866C304.844 649.764 304.052 645.432 302.25 640.276C298.778 630.524 292.595 622.749 283.312 616.411C280.365 614.422 274.183 611.31 270.883 610.213ZM228.696 703.275L229.843 704.106L229.192 729.341C228.831 743.219 228.499 754.973 228.437 755.472C228.085 758.059 223.441 760.925 220.72 760.26C220.252 760.129 219.518 759.792 219.101 759.49C217.69 758.51 217.274 756.571 216.435 746.889C215.646 738.006 215.314 733.58 213.848 713.508C213.428 707.82 213.048 702.65 212.991 701.986L212.872 700.793L214.6 700.475C219.93 699.505 224.864 700.491 228.696 703.275ZM254.87 747.22C255.912 775.368 255.94 774.882 254.211 775.505C253.565 775.764 253.156 775.687 251.506 774.986C246.308 772.88 241.707 768.44 240.893 764.764C240.745 764.057 240.839 754.276 241.115 742.523C241.619 720.274 241.679 719.718 243.13 718.552C244.461 717.524 246.494 717.874 250.92 719.847L253.913 721.192L254.87 747.22ZM282.962 738.619C283.304 739.025 283.655 739.713 283.737 740.14C283.885 740.846 283.094 779.783 282.851 783.585C282.582 787.93 279.786 790.7 275.666 790.726C272.109 790.733 269.298 788.75 268.898 785.985C268.653 784.097 267.538 736.959 267.714 735.485C267.963 733.546 268.121 733.202 268.976 732.789C269.597 732.463 269.927 732.531 272.113 733.395C273.43 733.915 276.306 735.151 278.45 736.106C281.775 737.575 282.454 737.97 282.962 738.619ZM302.254 750.683C302.593 751.033 302.99 751.742 303.166 752.267C303.571 753.563 306.867 802.062 306.633 803.481C306.124 806.411 302.866 807.887 299.528 806.69C297.917 806.146 296.628 804.778 296.367 803.409C296.272 802.949 295.536 791.649 294.73 778.318C293.26 754.136 293.258 754.08 293.888 752.704C295.433 749.332 300.024 748.218 302.254 750.683ZM324.776 764.784C325.084 765.203 325.384 766.062 325.485 766.691C325.708 768.264 330.13 814.06 330.183 815.583C330.339 819.179 327.659 820.365 323.552 818.482C322.198 817.861 321.494 817.4 321.232 817.002C321.018 816.682 319.534 805.316 317.896 791.743C314.687 764.932 314.74 766.15 316.507 764.656C317.549 763.774 319.635 763.038 321.024 763.036C322.538 763.064 324.098 763.779 324.776 764.784ZM343.866 775.896C348.087 779.83 348.714 780.644 348.983 782.238C349.236 783.687 348.778 784.504 344.549 790.28C340.258 796.195 339.964 796.532 339.374 796.123C338.924 795.833 334.381 774.239 334.427 772.623C334.447 771.549 334.718 770.897 335.356 770.412C335.785 770.082 335.98 770.143 337.888 771.129C339.625 772.064 340.46 772.725 343.866 775.896ZM203.873 730.86C204.384 734.896 204.928 739.587 205.076 741.264C205.359 744.281 205.646 750.685 205.565 751.952C205.519 752.597 205.509 752.62 204.619 752.018C201.221 749.738 190.987 742.326 186.996 739.219C186.567 738.884 186.576 738.805 187.583 736.908C191.194 730.237 196.107 721.998 198.925 717.906C200.261 716.021 200.587 715.671 201.315 715.477L202.188 715.267L202.555 719.376C202.767 721.638 203.35 726.79 203.873 730.86ZM182.433 753.363C190.634 758.428 195.269 761.58 199.862 765.129C202.46 767.153 202.597 767.521 201.238 768.73C200.273 769.564 156.196 788.821 153.979 789.359C152.478 789.725 152.113 789.613 151.79 788.744C151.442 787.807 151.989 786.309 154.113 782.399C162.024 767.736 166.85 760.595 173.449 753.824C174.802 752.446 176.143 751.034 176.47 750.685C176.786 750.358 177.081 750.077 177.104 750.087C177.127 750.098 179.526 751.587 182.433 753.363ZM220.76 776.959C222.466 779.295 222.446 782.006 220.683 783.307C219.857 783.899 182.172 802.535 179.688 803.533C177.618 804.416 176.219 804.44 174.577 803.66C171.295 802.099 169.742 797.308 171.851 795.249C172.802 794.325 214.335 774.318 215.628 774.162C217.158 773.975 219.516 775.25 220.76 776.959ZM243.688 790.357C244.649 791.409 244.706 792.739 243.881 793.693C243.447 794.216 208.994 815.915 206.189 817.432C204.859 818.155 203.107 818.101 201.295 817.27C197.693 815.618 195.61 812.165 197.032 810.153C197.355 809.69 203.988 805.876 216.786 798.783C237.674 787.184 237.318 787.354 239.952 788.089C241.502 788.523 242.69 789.262 243.688 790.357ZM261.138 800.44C262.69 801.901 262.891 803.825 261.674 805.21C260.903 806.105 227.812 827.013 226.616 827.381C223.834 828.242 219.714 822.995 221.658 821.055C222.238 820.516 255.4 799.696 256.412 799.244C257.992 798.581 259.587 798.979 261.138 800.44ZM284.718 812.112C286.915 813.618 287.444 814.222 287.829 815.564C288.32 817.399 287.539 818.317 283.747 820.353C281.174 821.727 274.112 825.872 258.19 835.418C252.58 838.758 250.329 839.974 249.575 840.044C248.788 840.127 248.139 839.969 246.716 839.316C244.468 838.286 242.872 836.86 242.094 835.227C241.471 833.859 241.504 832.819 242.197 831.971C242.49 831.634 250.846 826.362 260.788 820.234C274.578 811.764 279.028 809.142 279.527 809.204C280.332 809.324 282.232 810.389 284.718 812.112ZM308.247 825.592C309.151 826.589 308.946 827.883 307.591 829.509C307.071 830.159 300.822 836.286 293.75 843.119L280.896 855.543L275.182 852.867C268.147 849.559 264.832 847.706 264.465 846.871C264.11 846.07 264.744 844.807 265.912 843.954C266.617 843.445 299.45 825.888 301.65 824.843C302.928 824.235 305.827 824.149 307.087 824.671C307.362 824.797 307.895 825.208 308.247 825.592ZM322.515 836.38C322.469 837.33 321.923 838.523 315.937 850.377C308.366 865.39 308.676 864.894 306.147 864.9C304.374 864.892 301.704 864.056 296.958 861.991C292.924 860.253 292.748 860.033 293.677 858.489C294.082 857.786 298.062 854.31 307.258 846.537C314.413 840.492 320.586 835.44 320.975 835.258C322.033 834.827 322.531 835.194 322.515 836.38Z" fill="#52575d"/>
<path d="M498.932 4388.19C494.545 4387.29 489.717 4387.4 485.972 4388.42C484.099 4388.94 481.055 4390.43 478.839 4391.93C478.054 4392.47 477.321 4392.88 477.194 4392.83C477.092 4392.79 475.356 4391.07 473.336 4389.03C471.316 4386.99 469.402 4385.19 469.045 4385.05C467.822 4384.55 465.588 4385.66 465.017 4387.06C464.529 4388.26 464.92 4388.68 469.572 4392.07C472.069 4393.89 474.178 4395.49 474.274 4395.62C474.386 4395.78 474.215 4396.13 473.793 4396.58C473.413 4396.93 472.831 4397.7 472.49 4398.25C471.933 4399.18 471.825 4399.22 471.255 4398.87C470.156 4398.21 465.824 4395.94 463.196 4394.66L460.686 4393.46L459.967 4394.06C459.109 4394.78 458.259 4396.72 458.516 4397.33C458.651 4397.65 460.352 4398.43 464.632 4400.18L470.567 4402.6L469.799 4404.48C469.093 4406.22 468.98 4406.35 468.408 4406.29C468.036 4406.26 465.462 4405.36 462.618 4404.32C457.869 4402.56 457.441 4402.44 456.622 4402.7C455.526 4403.06 455.034 4404.19 455.564 4405.15C455.908 4405.77 456.524 4406.08 461.644 4408.17L467.35 4410.49L467.223 4411.1C467.165 4411.46 466.872 4412.47 466.585 4413.39L466.033 4415.04L460.399 4412.68C457.276 4411.37 454.581 4410.33 454.386 4410.37C453.85 4410.45 453.257 4412.05 453.529 4412.69C453.831 4413.41 454.385 4413.73 459.906 4416.37C462.442 4417.58 464.549 4418.68 464.584 4418.81C464.645 4418.95 464.492 4419.69 464.242 4420.45C463.829 4421.83 463.819 4421.85 463.27 4421.45C461.663 4420.29 458.934 4418.97 457.312 4418.58C451.395 4417.2 442.781 4419.24 437.514 4423.27C433.084 4426.63 431.843 4427.49 430.532 4427.93C428.853 4428.55 426.696 4428.74 424.798 4428.44C421.052 4427.86 419.818 4425.13 416.825 4410.75L415.249 4403.25L418.064 4400.72C423.418 4395.89 430.802 4390.53 436.364 4387.45C439.937 4385.47 441.35 4384.91 444.317 4384.34C445.923 4384.05 447.121 4383.59 448.177 4382.89C449.634 4381.94 449.814 4381.72 450.479 4380.09C451.184 4378.35 451.18 4378.29 450.545 4376.93C449.769 4375.19 448.043 4373.6 445.096 4371.86C442.186 4370.11 440.836 4369.56 439.034 4369.38C437.579 4369.24 435.716 4369.87 435.02 4370.78C432.209 4374.32 432.024 4374.48 427.688 4377.47C425.236 4379.11 421.808 4381.54 420.022 4382.86C412.847 4388.22 402.766 4395.9 401.939 4396.69C400.099 4398.43 399.678 4401.14 400.59 4405.46C401.67 4410.69 405.85 4423.98 408.64 4431.05C410.831 4436.61 414.141 4443.07 415.254 4443.91C417.587 4445.7 421.886 4446.08 424.744 4444.76C426.414 4444.01 434.437 4439.56 438.19 4437.35C440.903 4435.73 443.094 4434.87 444.525 4434.86C446.67 4434.84 448.898 4436.38 449.656 4438.38C451.143 4442.31 448.188 4456.2 443.356 4468.12C441.534 4472.67 441.064 4473.6 439.832 4475.24C438.199 4477.42 435.568 4479.94 431.306 4483.4C422.757 4490.31 420.832 4492.55 416.534 4500.84C414.3 4505.15 410.258 4515.8 408.17 4522.82C407.308 4525.73 405.721 4531.09 404.646 4534.75C401.064 4546.89 398.786 4553.2 395.692 4559.34C391.688 4567.27 387.638 4572.68 381.875 4577.79C375.186 4583.7 368.262 4587.35 357.345 4590.73C342.763 4595.24 339.229 4599.17 341.566 4608.38C342.612 4612.52 342.57 4615.03 341.251 4623.22C340.177 4629.79 340.091 4632.85 340.891 4634.75C342.924 4639.53 349.345 4638.79 351.503 4633.49C351.939 4632.43 352.544 4629.7 353.16 4626C354.105 4620.48 354.226 4619.96 355.752 4616.22C357.158 4612.7 357.494 4612.09 358.673 4610.73C363.299 4605.43 368.179 4602.64 380.953 4598.05C393.932 4593.4 398.763 4591.09 402.933 4587.57C408.249 4583.06 410.838 4578.38 413.966 4567.72C416.639 4558.68 417.899 4555.01 419.466 4551.96C420.273 4550.42 421.047 4549.1 421.18 4549.07C421.349 4549.02 422.635 4549.22 424.064 4549.5C425.492 4549.79 427.452 4550.08 428.386 4550.2C430.31 4550.36 430.174 4550.18 430.417 4552.87C430.946 4558.79 428.664 4566.5 422.649 4578.92C418.865 4586.82 417.456 4589.04 411.23 4596.95C406.734 4602.66 404.466 4605.9 401.631 4610.74C396.782 4618.92 393.174 4623.98 388.256 4629.34C387.073 4630.64 385.76 4632.33 385.362 4633.09C384.033 4635.54 384.482 4638.01 387.836 4646.33C391.235 4654.76 394.716 4659.12 397.865 4658.83C399.004 4658.73 399.524 4658.11 400.077 4656.32C400.547 4654.73 400.43 4652.25 399.617 4646.81C398.696 4640.76 398.715 4639.25 399.704 4636.39C401.072 4632.52 403.858 4629.11 413.863 4619C428.561 4604.15 434.263 4597.59 438.82 4590.28C440.673 4587.26 443.669 4580.49 444.807 4576.68C446.336 4571.54 447.025 4568.47 449.26 4556.93C452.113 4542.06 452.81 4539.4 455.822 4531.57C460.701 4518.8 466.901 4506.87 474.829 4494.93C476.474 4492.42 478.657 4489.04 479.668 4487.43C484.189 4480.13 487.106 4476.98 491.015 4475.19C493.981 4473.82 496.388 4473.67 499.278 4474.67C501.153 4475.32 501.581 4475.58 502.428 4476.49C503.67 4477.89 505.009 4481.02 506.227 4485.47C508.508 4493.79 512.814 4501.02 521.327 4510.82C524.674 4514.71 527.166 4517.12 530.601 4519.92L532.954 4521.8L532.64 4523.01C531.109 4529.1 531.037 4530.08 532.037 4531.05C532.544 4531.55 532.774 4531.65 533.418 4531.52C535.009 4531.19 535.159 4530.9 541.93 4513.7C562.626 4461.17 561.4 4464.47 560.792 4462.83C560.275 4461.4 557.985 4461.62 554.117 4463.46C551.212 4464.83 548.267 4466.81 541.867 4471.65C536.678 4475.56 534.067 4477.23 531.112 4478.43C524.439 4481.17 519.603 4480.2 515.283 4475.2C511.657 4471.05 508.432 4463.29 506.696 4454.5C506.319 4452.66 506.131 4451 506.28 4450.86C506.393 4450.73 506.96 4449.92 507.491 4449.12C508.007 4448.3 508.507 4447.58 508.579 4447.55C508.733 4447.46 509.396 4448.39 511.49 4451.71C512.612 4453.47 513.474 4454.57 513.907 4454.74C514.798 4455.11 516.156 4454.47 516.873 4453.37C517.766 4451.98 517.366 4451.28 513.813 4447.75C511.235 4445.19 510.688 4444.49 510.869 4444.12C510.998 4443.87 511.463 4443.02 511.887 4442.28L512.632 4440.89L514.079 4442.22C514.876 4442.96 516.399 4444.47 517.47 4445.56C519.413 4447.57 519.438 4447.58 520.156 4447.28C521.313 4446.78 522.243 4445.22 522.154 4443.91C522.06 4442.68 521.659 4442.28 517.706 4439.66C516.43 4438.78 515.143 4437.93 514.843 4437.72C514.441 4437.47 514.412 4437.25 514.665 4436.84C514.866 4436.57 515.315 4435.83 515.651 4435.23L516.291 4434.09L520.621 4436.01C524.823 4437.87 524.976 4437.93 525.652 4437.59C527.507 4436.68 527.219 4433.89 525.23 4433.38C524.7 4433.22 522.763 4432.58 520.974 4431.94L517.702 4430.78L518.364 4428.64C518.73 4427.45 519.109 4426.45 519.216 4426.41C519.299 4426.35 521.491 4426.95 524.066 4427.7C528.195 4428.94 528.833 4429.05 529.601 4428.77C530.846 4428.27 531.303 4427 530.704 4425.63C530.443 4424.96 530.052 4424.53 529.766 4424.5C529.491 4424.45 528.369 4424.14 527.283 4423.82C526.197 4423.49 524.168 4422.93 522.775 4422.63C521.368 4422.29 520.19 4421.9 520.104 4421.75C520.054 4421.58 520.168 4420.65 520.363 4419.66L520.722 4417.9L521.72 4417.57C527.35 4415.71 532.901 4413.61 533.169 4413.24C533.952 4412.19 533.345 4410.4 532.021 4409.86C531.282 4409.56 528.33 4410.32 523.19 4412.14C521.593 4412.7 520.303 4413.1 520.262 4413.05C520.258 4412.99 520.185 4412.37 520.072 4411.7C519.224 4405.32 513.771 4396.18 508.559 4392.41C506.429 4390.86 501.539 4388.72 498.932 4388.19ZM506.422 4399.12C510.163 4402.04 512.786 4405.52 514.627 4410.04C516.584 4414.79 516.771 4418.19 515.412 4423.13C514.601 4426.07 512.853 4429.48 510.058 4433.57C505.644 4440.02 501.014 4444.31 494.648 4447.83C493.31 4448.56 492.233 4449.16 492.208 4449.15C491.913 4449 484.211 4443.19 484.156 4443.1C484.136 4443.01 484.938 4441.4 485.941 4439.53C487.223 4437.11 488.053 4435.87 488.711 4435.28C489.743 4434.43 492.958 4433.39 496.732 4432.73C498.705 4432.41 499.207 4432.2 499.912 4431.42C501.609 4429.59 502.322 4428.42 503.312 4426.06C504.101 4424.13 504.312 4423.17 504.441 4421.33C504.78 4416.27 503.337 4410.18 501.308 4408.02C498.893 4405.49 494.911 4405.2 490.443 4407.27C487 4408.86 485.084 4410.57 483.831 4413.21C482.749 4415.5 482.325 4417.85 482.518 4420.52C482.626 4421.93 482.827 4422.45 483.825 4423.72C485.882 4426.4 485.901 4426.65 484.05 4428.57C481.982 4430.72 474.047 4435.98 469.738 4438.02L468.072 4438.83L467.084 4437.68C465.42 4435.78 464.96 4432.69 465.823 4428.82C466.828 4424.24 472.728 4410.49 475.758 4405.61C478.777 4400.75 481.841 4397.76 485.581 4396.02C489.157 4394.39 492.77 4394.05 497.407 4394.99C500.177 4395.56 504.216 4397.38 506.422 4399.12ZM545.286 4480.97C544.085 4483.48 542.782 4485.95 542.405 4486.51C541.441 4487.93 539.69 4489.38 538.056 4490.11C536.923 4490.63 536.458 4490.68 535.745 4490.39C533.503 4489.47 532.768 4487.78 533.853 4485.99C534.183 4485.47 535.254 4484.16 536.231 4483.07C537.244 4481.97 538.448 4480.62 538.973 4480.06C540.254 4478.59 542.269 4477.52 544.99 4476.81C546.321 4476.47 547.415 4476.26 547.445 4476.33C547.476 4476.4 546.512 4478.47 545.286 4480.97ZM536.99 4508.18C535.992 4510.92 535.127 4513.48 535.069 4513.84C534.972 4514.52 534.947 4514.5 533.496 4513.76C531.093 4512.52 529.697 4510.4 529.676 4508.05C529.655 4506.49 529.955 4505.9 531.342 4504.69C532.637 4503.55 534.352 4502.92 536.406 4502.83C539.063 4502.73 539.049 4502.55 536.99 4508.18Z" fill="#52575d"/>
<path d="M821.308 2888.04C821.017 2888.11 819.955 2888.31 818.914 2888.54C817.893 2888.75 816.248 2888.98 815.27 2889.06C814.291 2889.13 813.187 2889.29 812.833 2889.4C812.459 2889.52 811.188 2890.38 810.022 2891.29C808.835 2892.21 807.357 2893.23 806.711 2893.56C806.066 2893.87 804.9 2894.67 804.109 2895.31C803.317 2895.96 802.235 2896.81 801.693 2897.23C801.131 2897.62 800.694 2898.08 800.694 2898.23C800.694 2898.37 800.277 2899 799.757 2899.6C798.487 2901.08 797.924 2902.6 797.903 2904.58C797.883 2905.91 797.966 2906.28 798.445 2907.1C799.132 2908.26 801.089 2910.09 802.714 2911.14C803.38 2911.55 804.9 2912.51 806.108 2913.26C807.315 2914.01 809.252 2915.09 810.418 2915.65C812.917 2916.86 813.187 2917.24 812.771 2918.92C812.646 2919.49 812.375 2920.09 812.167 2920.28C811.98 2920.46 811.105 2920.74 810.231 2920.9C809.356 2921.07 808.377 2921.34 808.044 2921.51C807.732 2921.67 806.691 2922.03 805.754 2922.28C804.65 2922.57 803.9 2922.9 803.588 2923.23C803.338 2923.5 803.005 2923.73 802.88 2923.73C802.755 2923.73 802.11 2924.13 801.464 2924.61C800.819 2925.11 800.048 2925.67 799.757 2925.88C799.132 2926.32 797.966 2928.59 796.842 2931.52C796.404 2932.67 795.571 2934.31 794.967 2935.19C794.384 2936.06 793.656 2937.27 793.343 2937.89C793.031 2938.52 792.51 2939.54 792.156 2940.16C791.823 2940.79 791.532 2941.5 791.532 2941.72C791.532 2941.97 791.094 2942.7 790.574 2943.33C790.032 2943.93 789.408 2944.87 789.2 2945.39C788.971 2945.91 788.263 2947.08 787.596 2947.99C786.93 2948.91 786.118 2950.07 785.805 2950.59C785.118 2951.68 780.704 2960.01 779.767 2961.99C779.663 2962.21 779.392 2962.69 779.184 2963.07C778.996 2963.42 778.767 2964.15 778.684 2964.69C778.601 2965.34 778.393 2965.82 778.101 2966.02C777.872 2966.23 777.476 2966.71 777.268 2967.13C777.039 2967.54 776.727 2967.86 776.581 2967.84C776.414 2967.79 775.769 2966.61 775.144 2965.17C773.562 2961.55 773.208 2960.53 773.208 2959.49C773.208 2958.59 773.145 2958.49 770.667 2955.99C769.251 2954.55 767.565 2952.66 766.878 2951.78C766.19 2950.84 765.42 2950.07 765.108 2949.95C764.046 2949.57 763.546 2949.22 761.672 2947.6C756.508 2943.1 749.116 2938.16 744.264 2936C739.683 2933.96 736.601 2933.06 730.75 2932.06C726.148 2931.27 722.442 2931.02 718.965 2931.25C715.966 2931.44 715.779 2931.48 711.677 2932.42C709.969 2932.81 707.616 2933.31 706.471 2933.52C705.326 2933.75 703.493 2934.1 702.41 2934.33C701.307 2934.58 699.641 2934.77 698.642 2934.77C696.788 2934.77 695.976 2934.96 693.602 2935.96C692.54 2936.39 691.645 2937.04 689.917 2938.58C687.71 2940.56 684.794 2942.43 683.42 2942.77C683.087 2942.83 682.4 2943.18 681.858 2943.52C681.317 2943.87 680.776 2944.14 680.63 2944.14C680.505 2944.14 680.276 2944.29 680.13 2944.45C680.005 2944.6 679.401 2945.01 678.818 2945.37C678.214 2945.7 676.278 2947.26 674.508 2948.83C672.738 2950.39 671.051 2951.78 670.76 2951.91C670.489 2952.05 670.052 2952.36 669.781 2952.61C669.511 2952.91 669.073 2953.09 668.678 2953.09C668.303 2953.09 667.387 2953.36 666.637 2953.7C664.263 2954.74 662.452 2955.16 658.995 2955.49C657.163 2955.65 653.977 2956.05 651.915 2956.36C649.146 2956.76 647.272 2956.9 644.731 2956.93C640.567 2956.95 640.234 2956.84 637.214 2954.63C636.048 2953.78 634.528 2952.74 633.862 2952.34C632.738 2951.66 632.654 2951.55 632.654 2950.82V2950.03L631.301 2949.91C630.551 2949.82 629.364 2949.53 628.636 2949.22C627.928 2948.93 626.886 2948.55 626.324 2948.39C625.762 2948.24 624.867 2947.83 624.325 2947.47C623.409 2946.87 622.909 2946.6 620.223 2945.18C617.995 2943.99 614.414 2943.85 611.727 2944.85C610.936 2945.14 609.562 2945.54 608.708 2945.72C607.854 2945.91 606.064 2946.56 604.731 2947.16C603.419 2947.78 601.816 2948.47 601.212 2948.72C600.608 2948.97 599.754 2949.43 599.359 2949.74C598.942 2950.05 598.005 2950.68 597.276 2951.12C595.319 2952.28 587.344 2960.46 584.117 2964.63C582.492 2966.71 581.326 2968.67 581.118 2969.75C581.035 2970.15 580.806 2970.58 580.618 2970.73C580.368 2970.94 580.348 2971.02 580.556 2971.17C580.743 2971.31 580.702 2971.52 580.348 2972.17C580.098 2972.63 579.952 2973.15 580.014 2973.31C580.098 2973.52 580.681 2973.73 581.618 2973.9C582.93 2974.12 583.159 2974.12 583.617 2973.83C584.054 2973.54 584.137 2973.31 584.137 2972.56C584.137 2971.67 584.158 2971.63 584.637 2971.75C585.199 2971.88 585.303 2971.77 585.907 2970.29C586.178 2969.61 586.532 2969.15 586.948 2968.92C587.302 2968.73 587.677 2968.36 587.823 2968.09C588.177 2967.36 590.176 2965.05 591.925 2963.32C593.841 2961.42 593.986 2961.57 593.299 2964.63C592.383 2968.73 592.071 2970.5 591.842 2972.88C591.717 2974.19 591.509 2975.73 591.384 2976.29C591.196 2977.19 591.196 2977.35 591.529 2977.58C591.863 2977.83 591.863 2977.87 591.363 2978.1C590.363 2978.56 590.301 2979.16 590.363 2988.08C590.509 3010.54 591.509 3030.51 592.55 3032.1C592.695 3032.35 592.904 3032.84 592.966 3033.22C593.049 3033.57 593.216 3033.89 593.299 3033.89C593.403 3033.89 593.737 3034.3 594.049 3034.82C595.965 3038.11 598.255 3036.55 598.651 3031.66C598.734 3030.66 598.692 3029.95 598.505 3029.51C598.297 3029.01 598.297 3028.83 598.526 3028.56C598.672 3028.39 598.859 3027.72 598.942 3027.1C599.026 3026.47 599.38 3025.43 599.713 3024.77C600.566 3023.1 600.733 3022.5 601.212 3019.37C601.441 3017.85 601.753 3016.27 601.941 3015.85C602.107 3015.44 602.253 3014.87 602.253 3014.58C602.253 3014.31 602.482 3013.65 602.753 3013.1C603.877 3010.9 605.023 3006.03 604.544 3005.46C604.19 3005.05 604.71 3003.55 605.668 3002.28C606.647 3000.94 609.062 2998.63 609.395 2998.76C609.583 2998.82 609.645 3000.84 609.645 3007.88C609.645 3019.98 609.916 3021.85 611.873 3024L612.935 3025.16L613.539 3024.58C614.393 3023.77 614.497 3023.54 614.934 3021.33C615.142 3020.27 615.621 3018.64 615.996 3017.75C616.35 3016.83 616.6 3015.94 616.558 3015.73C616.496 3015.52 616.621 3014.81 616.829 3014.15C617.037 3013.48 617.454 3010.86 617.745 3008.29C618.037 3005.75 618.412 3003.36 618.578 3003.01C618.745 3002.63 618.911 3002.01 618.974 3001.59C619.12 3000.65 620.265 2997.84 620.806 2997.15L621.202 2996.65L622.41 2997.03C627.157 2998.51 629.739 2999.74 632.196 3001.71C634.82 3003.82 636.465 3004.98 638.047 3005.8L639.401 3006.5H643.774C646.522 3006.52 648.604 3006.63 649.354 3006.8C650.458 3007.02 650.708 3007 652.998 3006.42C654.352 3006.09 656.496 3005.59 657.746 3005.36C660.598 3004.8 661.39 3004.57 663.992 3003.53C665.138 3003.09 666.595 3002.55 667.22 3002.34C669.219 3001.69 670.177 3001.09 672.634 2998.9C673.946 2997.72 675.32 2996.63 675.695 2996.49C676.569 2996.11 677.798 2996.11 678.527 2996.51C679.068 2996.78 679.193 2996.78 680.13 2996.3C682.046 2995.32 682.15 2995.45 683.149 2999.53C683.462 3000.84 683.899 3002.38 684.128 3002.94C684.461 3003.84 684.503 3004.15 684.315 3005.44C684.191 3006.25 683.982 3008.4 683.878 3010.19C683.587 3014.44 682.962 3018.19 681.983 3021.79C681.234 3024.47 681.171 3026.39 681.796 3027.01C682.316 3027.53 683.212 3027.91 683.587 3027.76C684.107 3027.56 685.523 3025.52 685.669 3024.77C685.731 3024.35 685.981 3023.81 686.19 3023.58C687.147 3022.52 687.793 3020.37 688.667 3015.19C689.334 3011.38 689.417 3009.86 689.084 3008.69C688.751 3007.61 688.813 3005.46 689.188 3003.69C689.375 3002.84 689.604 3000.4 689.709 2998.3C689.854 2995.41 689.979 2994.36 690.229 2993.99C690.646 2993.34 690.895 2993.49 691.187 2994.59C691.312 2995.07 691.874 2996.65 692.436 2998.11C693.727 3001.49 694.581 3004.48 694.998 3007.13C695.414 3009.77 695.581 3010.34 696.372 3011.75C696.726 3012.38 697.205 3013.52 697.434 3014.27C698.058 3016.31 700.182 3020.5 701.286 3021.81C701.807 3022.43 702.369 3023.2 702.515 3023.52C702.952 3024.29 705.222 3025.97 705.867 3025.97C706.45 3025.97 707.616 3024.95 707.616 3024.45C707.616 3024.29 707.429 3023.5 707.179 3022.72C706.846 3021.64 706.513 3021.06 705.846 3020.35C704.18 3018.62 702.285 3014.69 701.598 3011.54C701.39 3010.56 700.911 3008.92 700.536 3007.88L699.849 3005.96L700.307 3005.48C700.62 3005.15 700.849 3004.53 700.994 3003.57C701.119 3002.78 701.432 3001.34 701.702 3000.36C702.223 2998.53 702.431 2996.41 702.806 2988.85C702.993 2985.47 703.077 2984.81 703.472 2984.02L703.93 2983.08L703.493 2980.73C702.91 2977.77 702.889 2974.67 703.431 2972.02C703.639 2970.94 703.889 2969.46 703.951 2968.71C704.035 2967.96 704.284 2966.55 704.514 2965.55C704.722 2964.55 704.909 2963.4 704.909 2963.01C704.909 2962.61 704.992 2962.23 705.097 2962.17C705.18 2962.11 705.326 2961.67 705.409 2961.21C705.513 2960.59 705.659 2960.32 706.034 2960.17C706.304 2960.09 706.783 2959.55 707.096 2958.99C708.574 2956.47 711.406 2953.49 713.488 2952.3C714.967 2951.45 717.236 2950.59 718.007 2950.59C718.402 2950.59 718.923 2950.32 719.485 2949.87C720.339 2949.16 720.776 2949.03 722.296 2949.14C722.65 2949.16 723.087 2949.32 723.275 2949.49C723.816 2949.97 725.399 2949.7 726.315 2948.97C727.731 2947.83 728.272 2947.6 729.376 2947.62C730.688 2947.64 734.79 2948.89 737.434 2950.1C738.538 2950.59 739.85 2951.05 740.349 2951.14C741.994 2951.39 743.577 2952.53 744.264 2953.99C744.806 2955.11 745.93 2956.22 747.325 2956.93C749.824 2958.2 751.281 2959.94 752.801 2963.53C753.26 2964.55 753.926 2965.82 754.301 2966.3C756.32 2968.92 759.61 2972.6 763.359 2976.46C765.691 2978.85 767.586 2980.89 767.586 2981.02C767.586 2981.14 767.357 2981.54 767.065 2981.93C766.44 2982.72 765.42 2985.54 765.004 2987.58C764.837 2988.37 764.129 2991.26 763.442 2994.01C762.755 2996.76 762.026 3000.17 761.839 3001.59C761.651 3003.03 761.38 3004.55 761.214 3005C761.047 3005.44 760.985 3006.05 761.047 3006.32C761.131 3006.65 760.985 3007.17 760.631 3007.86C759.673 3009.67 759.444 3011 759.319 3015.15C759.194 3019.29 759.486 3023.12 759.964 3024.06C760.339 3024.77 761.255 3025.62 762.109 3026.06C762.838 3026.41 764.566 3026.49 765.337 3026.2C766.19 3025.87 769.126 3023.16 769.668 3022.2C769.959 3021.68 770.542 3020.81 770.98 3020.27C771.396 3019.71 771.75 3019.14 771.75 3019C771.75 3018.85 771.979 3018.58 772.271 3018.39C772.583 3018.19 772.791 3017.85 772.791 3017.54C772.791 3017.27 772.875 3017 772.979 3016.92C773.083 3016.85 773.333 3016.33 773.52 3015.75C773.728 3015.17 774.249 3014.04 774.686 3013.29C775.123 3012.52 775.852 3010.77 776.31 3009.4C776.748 3008.04 777.414 3006.3 777.747 3005.55C778.101 3004.8 778.58 3003.19 778.83 3002.03C779.059 3000.84 779.434 2999.28 779.663 2998.53C779.892 2997.8 780.079 2996.8 780.079 2996.32C780.079 2995.86 780.329 2994.49 780.6 2993.28C780.891 2992.07 781.224 2989.93 781.329 2988.51C781.454 2987.1 781.662 2985.74 781.787 2985.51C782.037 2985.04 781.87 2982.87 781.537 2982.25C781.412 2982.02 780.995 2981.68 780.579 2981.52C780.183 2981.35 779.809 2981.08 779.746 2980.89C779.559 2980.43 780.85 2977.89 783.307 2973.81C784.41 2971.98 785.576 2969.96 785.91 2969.34C787.867 2965.42 790.324 2960.94 791.074 2959.88C791.553 2959.22 792.115 2958.17 792.344 2957.57C792.719 2956.57 793.302 2955.57 795.634 2951.97C796.071 2951.28 796.612 2950.35 796.842 2949.87C797.466 2948.62 799.465 2945.99 799.736 2946.08C800.069 2946.18 800.152 2951.12 799.861 2953.16C799.611 2954.95 799.153 2956.15 798.32 2957.24C797.549 2958.26 797.071 2959.86 797.071 2961.53C797.05 2962.63 797.112 2962.98 797.341 2962.98C798.028 2962.98 798.174 2965.42 797.674 2968.29C797.487 2969.27 797.175 2972.88 796.946 2976.31C796.717 2979.85 796.404 2983.08 796.217 2983.77C796.05 2984.43 795.405 2986.18 794.78 2987.62C794.155 2989.08 793.406 2990.91 793.093 2991.72C792.802 2992.51 792.323 2993.57 792.052 2994.07C791.782 2994.57 791.49 2995.32 791.407 2995.74C791.115 2997.4 789.387 3001.05 788.283 3002.34C786.618 3004.32 785.764 3005.59 784.91 3007.36L784.14 3009V3012.54C784.16 3014.58 784.265 3016.6 784.431 3017.33C784.785 3018.98 786.805 3024.2 787.555 3025.39C788.783 3027.33 788.783 3027.43 787.971 3032.64C787.346 3036.7 787.305 3042.61 787.888 3045.65C788.158 3047.19 788.283 3048.75 788.283 3051.69C788.304 3055.37 788.283 3055.71 787.846 3056.5C786.763 3058.5 785.285 3064.83 785.285 3067.37C785.285 3068.91 785.785 3072.99 786.201 3075.05C786.597 3076.93 787.138 3077.82 788.304 3078.55C789.158 3079.07 789.533 3079.18 790.574 3079.15C791.657 3079.15 792.115 3079.01 793.739 3078.18C795.863 3077.11 796.883 3076.11 797.05 3074.91C797.112 3074.51 797.383 3073.76 797.654 3073.24C798.278 3072.07 799.132 3069.24 799.465 3067.31C799.611 3066.49 799.819 3065.74 799.965 3065.64C800.09 3065.52 800.215 3064.95 800.215 3064.39C800.215 3063.81 800.319 3062.75 800.423 3062C800.569 3061.08 800.59 3059.52 800.444 3057.06C800.236 3053.71 800.256 3053.42 800.652 3052.17C800.902 3051.46 801.193 3050.13 801.298 3049.25C801.423 3048.38 801.61 3047.21 801.735 3046.67C802.089 3045.09 802.547 3038.78 802.693 3033.68L802.797 3028.99L803.984 3026.64C804.629 3025.37 805.212 3024.31 805.316 3024.31C805.566 3024.31 807.003 3026.35 807.94 3028.08C808.419 3028.93 809.002 3029.83 809.231 3030.03C809.46 3030.24 809.648 3030.64 809.648 3030.89C809.648 3031.16 809.877 3031.99 810.168 3032.74C810.793 3034.43 811.022 3035.66 811.417 3039.65C811.688 3042.44 811.834 3043.05 812.459 3044.48C813.604 3047.11 813.5 3047.52 811.022 3050.34C810.189 3051.27 809.335 3052.52 808.898 3053.46C808.481 3054.31 807.753 3055.85 807.253 3056.9C806.087 3059.29 805.691 3060.71 805.691 3062.35C805.691 3063.62 805.712 3063.68 806.358 3064.08C807.253 3064.62 809.543 3065.12 811.105 3065.12C812.25 3065.12 812.459 3065.06 813 3064.52C813.333 3064.18 813.916 3063.7 814.312 3063.45C814.707 3063.23 815.957 3062.06 817.081 3060.87C818.206 3059.71 819.517 3058.5 819.976 3058.19C822.558 3056.56 824.848 3051.75 825.577 3046.48C825.764 3045.11 826.097 3043.57 826.327 3043.07C826.826 3041.94 827.388 3039.78 827.951 3036.74C828.201 3035.51 828.388 3034.47 828.388 3034.43C828.388 3034.39 828.096 3033.99 827.742 3033.55C826.68 3032.2 826.347 3031.35 825.91 3028.76L825.494 3026.29L824.452 3025.35C823.89 3024.83 823.078 3023.93 822.662 3023.37C822.224 3022.79 821.6 3022 821.267 3021.6C820.933 3021.2 820.267 3020.27 819.767 3019.52C819.288 3018.77 818.539 3017.67 818.122 3017.04C817.685 3016.44 817.248 3015.52 817.123 3015.02C816.998 3014.52 816.54 3013.65 816.103 3013.04C815.082 3011.69 814.916 3010.46 815.207 3005.78C815.415 3002.4 815.436 3002.32 816.207 3000.78C816.644 2999.92 817.269 2998.8 817.623 2998.3C818.83 2996.55 819.372 2994.55 820.184 2989.01C820.808 2984.64 820.954 2984.1 821.87 2982.56C822.62 2981.27 823.328 2979.27 823.89 2976.75C824.078 2975.96 824.265 2975.27 824.328 2975.21C824.369 2975.14 824.994 2975.27 825.702 2975.48C827.93 2976.08 829.263 2975.62 831.74 2973.4C832.906 2972.35 833.531 2971.96 834.593 2971.63C836.259 2971.08 837.883 2970.27 840.34 2968.75C842.922 2967.15 843.88 2966.23 844.734 2964.46C845.921 2962.03 846.337 2960.09 846.358 2956.84C846.379 2954.22 846.337 2953.93 845.796 2952.57C845.483 2951.76 845.129 2950.59 845.046 2949.97C844.817 2948.47 843.734 2945.35 843.172 2944.56C842.943 2944.22 842.527 2943.31 842.256 2942.54C841.985 2941.75 841.111 2939.6 840.278 2937.73C839.466 2935.85 838.404 2933.31 837.946 2932.1C836.28 2927.73 835.822 2926.96 833.51 2924.65C832.365 2923.5 831.116 2922.21 830.783 2921.8C830.012 2920.9 829.242 2920.67 828.159 2921.03C827.722 2921.17 827.284 2921.26 827.222 2921.19C827.014 2920.96 827.722 2918.51 828.117 2918.05C828.346 2917.8 828.95 2916.9 829.429 2916.05C830.47 2914.26 833.177 2911.39 834.26 2910.93C835.176 2910.55 836.321 2909.39 837.009 2908.12C837.904 2906.45 838.258 2904.72 838.258 2901.77C838.279 2898.73 838.362 2898.95 836.134 2895.23C834.801 2892.98 832.969 2890.9 832.157 2890.71C831.865 2890.63 831.366 2890.35 831.074 2890.08C830.783 2889.79 829.575 2889.25 828.367 2888.83C826.535 2888.19 825.868 2888.09 824.015 2888.02C822.807 2887.98 821.6 2888 821.308 2888.04ZM829.387 2944.91C829.512 2945.12 829.658 2945.68 829.741 2946.16C829.804 2946.64 830.012 2947.14 830.179 2947.28C830.345 2947.41 830.47 2947.72 830.47 2947.99C830.47 2948.78 830.908 2949.8 831.949 2951.43C833.24 2953.45 833.385 2953.88 833.385 2955.51C833.385 2957.3 833.011 2958.2 832.157 2958.36C831.803 2958.45 830.616 2958.9 829.492 2959.42C826.868 2960.63 826.472 2960.71 825.993 2960.26C825.514 2959.78 825.681 2958.11 826.514 2954.66C826.847 2953.28 827.305 2951.03 827.555 2949.66C828.201 2945.87 828.575 2944.56 829.013 2944.56C829.117 2944.56 829.283 2944.72 829.387 2944.91ZM777.268 2988.85C777.122 2991.26 776.935 2993.34 776.873 2993.45C776.81 2993.55 776.477 2995.26 776.123 2997.26C775.332 3001.78 775.019 3002.98 774.145 3004.94C773.77 3005.8 773.27 3007.25 773.02 3008.15C772.77 3009.07 772.146 3010.56 771.646 3011.48C771.146 3012.42 770.397 3014.06 769.959 3015.15C769.147 3017.17 768.772 3017.69 765.149 3021.58L763.921 3022.93L763.254 3021.6C762.609 3020.33 762.588 3020.18 762.588 3017.77C762.609 3014.62 762.776 3013.25 763.733 3008.79C764.67 3004.32 767.357 2993.3 767.627 2992.8C767.731 2992.59 768.044 2992.34 768.335 2992.24C769.022 2991.97 770.647 2991.97 770.813 2992.24C771.001 2992.53 772.229 2992.51 772.916 2992.2C773.249 2992.05 773.624 2991.59 773.832 2991.1C774.041 2990.64 774.811 2989.24 775.561 2988.01C776.31 2986.76 777.039 2985.43 777.164 2985.01C777.31 2984.62 777.456 2984.33 777.476 2984.37C777.518 2984.41 777.435 2986.43 777.268 2988.85Z" fill="#52575d"/>
<path d="M2982.64 2986.03C2970.72 2986.84 2959.77 2992.19 2949.34 3002.29C2940.36 3010.99 2934.67 3021.03 2932.69 3031.64C2930.27 3044.61 2936.42 3060.59 2949.39 3075.02C2953.34 3079.4 2954.2 3079.98 2960.31 3082.15C2964.86 3083.79 2972.87 3087.83 2975.07 3089.6C2978.58 3092.4 2979.15 3094.71 2977.31 3098.65C2976.75 3099.85 2976.07 3101.39 2975.76 3102.08C2974.88 3104.05 2973.02 3114.35 2972.17 3122.07C2971.51 3128.1 2971.65 3135.62 2972.46 3135.65C2972.67 3135.66 2974.31 3131.98 2976.06 3127.44C2979.24 3119.23 2979.87 3119.15 2984.24 3126.23C2989.89 3135.35 2994.92 3149.13 3001.05 3172.31C3004.09 3183.75 3004.73 3187.55 3004.08 3190.38C3003.24 3194.17 3001.46 3195.41 2995.89 3196.04C2994.04 3196.23 2990.67 3196.76 2988.44 3197.2C2983.73 3198.12 2979.46 3198.31 2977.22 3197.71C2976.45 3197.5 2975.09 3196.9 2974.2 3196.37C2970.1 3193.96 2969.37 3192.72 2967.54 3185.01C2965.85 3177.79 2965.78 3177.04 2965.88 3167.14C2965.97 3158.09 2965.73 3153.27 2965.04 3150.02C2964.07 3145.39 2961.74 3142.86 2958.57 3143C2955.99 3143.12 2953.78 3145.12 2952.38 3148.58C2950.41 3153.5 2948.42 3171.73 2949.06 3179.14C2949.8 3188.13 2951.59 3193.84 2956.54 3202.99C2961.87 3212.85 2967.58 3218.31 2973.07 3218.82C2974.86 3218.97 2975.43 3218.88 2979.37 3217.8C2981.76 3217.16 2986.9 3215.94 2990.78 3215.1C2994.69 3214.28 2999.14 3213.24 3000.72 3212.86C3003.11 3212.24 3003.86 3212.14 3005.42 3212.3C3007.59 3212.53 3009.2 3213.24 3010.64 3214.64C3011.52 3215.48 3011.88 3216.22 3013.08 3219.62C3013.86 3221.83 3015.95 3228.59 3017.76 3234.66C3021.3 3246.65 3021.28 3246.54 3020.08 3248.84C3019.24 3250.39 3017.49 3252.15 3016.03 3252.8C3014.5 3253.52 3013.16 3253.79 3009.25 3254.14C3003.56 3254.66 3001.42 3255.63 2996.5 3260C2990.94 3264.89 2986.92 3271.12 2984.85 3277.93C2983.32 3282.95 2983.08 3284.58 2982.86 3290.47C2982.66 3295.27 2982.72 3296.47 2983.12 3299.06C2983.93 3303.98 2985.61 3307.99 2988.6 3312.21C2991.24 3315.94 2992.07 3316.75 2993.64 3317.28C2997.08 3318.41 3001.17 3316.85 3003 3313.69C3003.5 3312.85 3003.6 3312.23 3003.67 3310.33C3003.72 3308.23 3003.63 3307.73 3002.74 3305.1C2999.45 3295.59 2998.83 3293.28 2998.65 3289.72C2998.3 3282.73 3001.09 3276.86 3007.6 3270.82C3011.51 3267.17 3013.95 3265.85 3016.57 3265.95C3019.4 3266.05 3022.55 3268.74 3025.59 3273.69C3029.25 3279.62 3030.78 3284.19 3033.52 3297.5C3036.35 3311.12 3036.98 3312.97 3039.94 3316.12C3041.76 3318.03 3045.15 3320.05 3047.57 3320.63C3050.71 3321.42 3053.55 3320.69 3054.92 3318.76C3055.63 3317.78 3055.69 3317.54 3055.76 3314.84L3055.87 3311.96L3053.93 3305.91C3052.88 3302.6 3050.83 3295.5 3049.38 3290.15C3045.88 3277.2 3044.14 3271.26 3042.93 3268.07C3041.55 3264.49 3041.53 3264.33 3042.03 3263.65C3042.52 3262.94 3056.48 3256.58 3059.64 3255.6C3062.21 3254.81 3066.5 3254.86 3068.73 3255.72C3073.66 3257.59 3079.01 3262.02 3081.8 3266.59C3082.44 3267.63 3083.95 3270.54 3085.13 3273.08C3086.36 3275.7 3087.65 3278.06 3088.15 3278.57C3090.66 3281.24 3096.61 3281.22 3099.21 3278.53C3101.15 3276.55 3101.24 3274.18 3099.55 3269.18C3098.96 3267.39 3098 3264.42 3097.47 3262.61C3096.22 3258.48 3095.48 3256.69 3094.47 3255.06C3090.44 3248.68 3078.18 3240.54 3070.28 3239.03C3068.75 3238.74 3068.1 3238.74 3065.72 3239.13C3060.78 3239.94 3052.1 3242.77 3043.75 3246.29C3041.43 3247.3 3039.37 3248.16 3039.21 3248.2C3038.87 3248.35 3037.63 3245.96 3034.91 3239.96C3031.39 3232.19 3028.09 3223.08 3025.34 3213.43C3022.69 3204.21 3022.59 3202.57 3024.58 3200.82C3026.03 3199.57 3027.86 3199.3 3034.64 3199.42C3040.9 3199.51 3043.23 3199.26 3047.69 3198.04C3050.87 3197.17 3055.34 3195.15 3058.08 3193.32C3062.69 3190.29 3068.06 3184.22 3070.12 3179.74C3071.84 3176.04 3072.04 3173.47 3071.22 3166.06C3070.74 3161.85 3070.2 3160.27 3068 3156.45C3066.29 3153.48 3065.45 3151.65 3064.29 3148.46C3063.27 3145.7 3061 3143.14 3058.75 3142.21C3056.03 3141.07 3053.19 3141.33 3051.23 3142.9C3049.73 3144.06 3049.09 3145.42 3049.01 3147.6C3048.92 3149.96 3049.5 3151.83 3051.73 3156.28C3054.5 3161.84 3055.19 3163.5 3055.66 3165.65C3056.06 3167.51 3056.05 3167.77 3055.6 3170.07C3055.03 3172.93 3053.96 3175.88 3053 3177.28C3051.93 3178.85 3050.68 3179.56 3047.53 3180.38C3045.64 3180.86 3043.9 3181.53 3042.47 3182.31C3038.49 3184.48 3036.8 3185.07 3027.8 3187.34C3023.21 3188.5 3021.36 3188.56 3020.41 3187.59C3019.73 3186.89 3019.36 3185.68 3016.24 3173.64C3014.07 3165.26 3012.78 3159.97 3009.76 3147.14C3008.64 3142.32 3006.27 3132.56 3004.52 3125.5C3002.8 3118.42 3000.62 3109.16 2999.68 3104.92C2998.77 3100.67 2997.39 3094.93 2996.63 3092.2C2994.93 3086 2994.81 3085.01 2995.73 3084.16C2996.46 3083.51 2997.64 3083.21 3004.15 3082.2C3009.27 3081.4 3011.77 3080.71 3015.52 3079.1C3026.64 3074.33 3033.71 3066.34 3036.88 3055.04C3039.48 3045.67 3039.2 3034.09 3036.07 3023.06C3034.36 3017.07 3032.19 3011.92 3029.25 3006.95C3025.33 3000.36 3019.93 2995.1 3013.83 2991.96C3005.89 2987.86 2992.67 2985.35 2982.64 2986.03ZM2999.41 2999.48C3006.27 3000.97 3013.67 3004.91 3018.34 3009.52C3024.59 3015.7 3027.12 3023.33 3026.67 3034.78C3026.18 3047.51 3023.08 3056.36 3016.75 3063.13C3010.01 3070.32 2996.48 3074.23 2980.2 3073.64C2973.97 3073.41 2971.8 3073.05 2967.8 3071.5C2958.67 3068 2949.65 3057.84 2946.37 3047.3C2944.97 3042.88 2944.6 3038.71 2945.22 3034.7C2946.11 3028.72 2948.47 3023.3 2952.57 3017.65C2960.57 3006.63 2971.74 3000.24 2985.79 2998.72C2988.97 2998.37 2996.24 2998.76 2999.41 2999.48Z" fill="#52575d"/>
<path d="M2987.74 3004.27C2975.86 3005 2964.18 3012.29 2957.57 3023.13C2956.2 3025.35 2954.76 3028.73 2953.91 3031.7C2953.23 3034.05 2953.09 3035.02 2952.97 3038.19C2952.83 3041.34 2952.9 3042.27 2953.33 3044.02C2955 3050.71 2960.38 3056.8 2969.09 3061.79C2974.2 3064.71 2978.72 3066.06 2984.08 3066.26C2990.76 3066.5 2995.25 3065.01 3001.15 3060.61C3005.82 3057.14 3010.78 3051.28 3013.36 3046.18C3018.11 3036.88 3017.07 3023.67 3010.96 3015.37C3007.44 3010.62 3000.93 3006.48 2994.68 3005.04C2992.4 3004.52 2989.32 3004.17 2987.74 3004.27ZM2996.31 3018.63C2999.98 3019.28 3002.16 3021.04 3003.68 3024.63C3004.63 3026.91 3005.04 3029.38 3004.92 3032.65C3004.69 3038.97 3003.07 3042.4 2998.49 3046.18C2994.07 3049.84 2986.91 3052.86 2983.05 3052.72C2977.79 3052.53 2972.45 3048.02 2970.27 3041.87C2969.38 3039.39 2969.07 3037.18 2969.18 3034.14C2969.5 3026.76 2973.3 3022.41 2981.35 3020.17C2984.15 3019.4 2988.48 3018.68 2991.62 3018.46C2992.75 3018.37 2993.82 3018.31 2994 3018.29C2994.15 3018.29 2995.21 3018.43 2996.31 3018.63Z" fill="#52575d"/>
<path d="M4742.96 433.101C4729.68 433.617 4715.71 436.345 4703.58 440.787C4698.22 442.75 4691.3 445.961 4686.64 448.622C4672.14 456.957 4660.09 469.334 4651.31 484.938C4646.09 494.221 4642.31 505.001 4640.5 515.914C4639.33 522.918 4639 526.96 4639 534.38C4639 542.964 4639.52 548.42 4641.06 556.339C4643.66 569.598 4649.01 582.341 4657.13 594.635C4661.04 600.524 4664.72 605.032 4669.76 610.089C4676.26 616.627 4681.85 620.736 4689.06 624.296C4697.18 628.305 4704.5 630.119 4714.63 630.651C4728.3 631.366 4745.25 628.139 4763.77 621.302C4783.38 614.049 4797.95 605.431 4808.04 595.117C4813.29 589.76 4816.72 584.803 4819.61 578.381C4827.27 561.38 4828.78 540.136 4823.74 520.323C4819.35 503.088 4810.45 489.38 4795.86 477.469C4786.84 470.082 4775.4 463.694 4764.92 460.134C4753.75 456.358 4739.56 456.175 4725.89 459.602C4714.68 462.413 4702.05 467.936 4692.62 474.158C4687.79 477.336 4683.77 480.646 4679.97 484.489C4674.13 490.461 4670.13 496.617 4667.01 504.435C4660.39 521.071 4659.78 540.951 4665.37 557.487C4670.96 574.056 4684.17 589.311 4700 597.513C4707.82 601.555 4715.09 603.385 4724.24 603.618C4733.66 603.851 4741.53 602.32 4749.86 598.644C4765.48 591.757 4787.31 576.768 4798.47 565.272C4802.23 561.396 4803.08 560.015 4803.51 557.154C4804.79 548.687 4800.75 534.213 4790.65 511.173C4788.21 505.6 4785.49 499.844 4784.85 498.862C4784.51 498.363 4783.53 497.232 4782.65 496.35C4780.15 493.872 4777.51 492.042 4773.18 489.879C4766.21 486.369 4758.01 483.907 4749.61 482.792C4746.53 482.376 4740.11 482.293 4737.55 482.626C4725.32 484.239 4713.4 490.228 4703.8 499.594C4694.26 508.91 4689.37 518.809 4688.29 530.969C4688.06 533.714 4688.19 540.518 4688.52 542.781C4689.11 546.607 4689.64 548.936 4690.57 551.847C4692.82 558.768 4695.64 563.409 4700.79 568.583C4704.36 572.193 4707.46 574.539 4711.76 576.967C4715.69 579.18 4721.5 581.376 4723.41 581.376C4729.85 581.376 4749.79 572.343 4762.17 563.808C4768.38 559.533 4770.16 557.437 4771.82 552.479C4773.12 548.57 4773.58 545.16 4773.43 540.468C4773.12 530.138 4768.91 520.056 4762.44 514.067C4757.25 509.26 4750.16 505.866 4742.94 504.751C4740.53 504.385 4736.15 504.369 4734.14 504.735C4728.4 505.766 4723.59 508.345 4719.17 512.753C4715.94 515.964 4714.23 518.676 4712.91 522.701C4711.58 526.761 4711 530.77 4711.15 535.128C4711.33 540.468 4712.43 543.912 4714.96 547.04C4717.15 549.751 4721.48 551.814 4725.01 551.847C4726.35 551.847 4726.6 551.797 4727.49 551.348C4728.87 550.65 4729.45 549.685 4729.53 548.004C4729.67 545.592 4728.42 543.097 4726.17 541.284C4725.57 540.801 4724.81 540.019 4724.49 539.553C4721.7 535.478 4722.99 527.526 4727.09 523.517C4728.1 522.518 4730.35 521.321 4731.98 520.905C4736.9 519.64 4743.24 520.688 4747.95 523.533C4750.71 525.213 4752.57 527.16 4753.85 529.722C4756.73 535.511 4756.35 543.746 4752.87 551.032C4751.54 553.81 4750.36 555.457 4748.05 557.753C4740.31 565.439 4728.12 568.516 4720.1 564.807C4717.27 563.509 4713.78 560.698 4711.55 557.953C4706.23 551.398 4703.11 542.398 4703.11 533.664C4703.11 530.803 4703.33 528.973 4704.1 525.297C4706.03 516.097 4709.07 509.526 4713.43 505.184C4717.25 501.358 4720.76 499.594 4730.7 496.533C4738.58 494.105 4740.53 493.772 4745.7 493.922C4753.55 494.154 4760.44 496.434 4766.75 500.875C4768.64 502.223 4772.52 506.066 4774.2 508.295C4782.8 519.64 4786.69 536.093 4783.96 549.651C4781.93 559.733 4776.91 569.149 4770.02 575.753C4762.47 583.006 4750.49 588.745 4738.96 590.675C4735.01 591.324 4733.69 591.424 4729.07 591.424C4723.91 591.407 4721.6 591.158 4717.55 590.126C4709.37 588.047 4701.22 583.405 4694.46 576.984C4685.78 568.683 4680.57 559.633 4677.51 547.439C4675.2 538.273 4674.92 530.304 4676.6 522.252C4677.46 518.127 4679.42 513.086 4681.6 509.426C4683.08 506.914 4684.45 505.101 4687.39 501.674C4700.45 486.452 4710.35 479.215 4722.08 476.337C4727.04 475.123 4732.19 474.591 4742.32 474.225C4756.03 473.726 4764.55 475.007 4771.75 478.65C4776.93 481.245 4781.64 484.971 4787.22 490.877C4793.35 497.332 4797.04 502.389 4800.85 509.493C4810.3 527.176 4813.11 548.221 4808.05 563.426C4805.08 572.442 4799.55 580.81 4791.33 588.862C4783.85 596.198 4776.13 601.538 4768.08 604.965C4755.2 610.439 4736.29 614.647 4720.8 615.479C4717.32 615.662 4713.35 615.479 4711.95 615.063C4709.57 614.348 4701.45 610.755 4696.28 608.143C4687.74 603.818 4682 599.875 4676.98 594.851C4670.69 588.563 4667.5 582.856 4663.8 571.311C4663.02 568.866 4658.95 555.125 4657.86 551.265C4653.42 535.461 4651.46 523.733 4652.03 516.33C4652.52 509.809 4654.24 505.666 4658.96 499.445C4659.73 498.43 4661.41 496.234 4662.71 494.537C4663.99 492.84 4666.02 489.995 4667.21 488.215C4670.74 482.959 4672.8 480.413 4676.58 476.654C4682.85 470.382 4690.35 465.075 4699.37 460.517C4710.4 454.944 4722.31 451.168 4735.64 449.038C4750.53 446.659 4761.91 446.127 4770.91 447.391C4781.87 448.938 4790.44 452.798 4800.52 460.733C4805.42 464.609 4812.41 472.711 4818.83 481.977C4827.18 494.038 4833.01 506.099 4834.85 515.165C4835.4 517.811 4836.98 529.356 4837.68 535.794C4838.58 543.962 4838.9 551.265 4838.55 555.507C4837.93 562.727 4836.47 567.369 4831.96 576.302C4828.68 582.79 4822.91 593.819 4822.03 595.317C4817.82 602.337 4811.43 607.045 4794.94 615.28C4791.33 617.093 4786.69 619.339 4784.63 620.287C4780.64 622.117 4779.62 622.749 4778.44 624.163C4776.53 626.426 4775.61 628.289 4775.51 630.102C4775.46 631.217 4775.5 631.433 4775.85 631.949C4777.68 634.677 4784.58 633.579 4796.04 628.688C4815.67 620.337 4830.36 608.808 4839.91 594.252C4842.36 590.526 4844.65 586.267 4845.92 583.106C4849.84 573.241 4852.47 551.465 4851.67 535.627C4851.27 527.958 4850.46 522.701 4848.26 513.735C4841.51 486.203 4829.28 465.092 4812.78 452.482C4795.39 439.19 4769.69 432.053 4742.96 433.101Z" fill="#52575d"/>
<path d="M1803.11 1226.13C1795.88 1226.44 1790.54 1227 1788.36 1227.64C1787.32 1227.94 1785.02 1228.53 1783.23 1228.93C1779.73 1229.73 1778.67 1230.06 1778.67 1230.39C1778.67 1230.5 1778.32 1230.6 1777.88 1230.6C1776.65 1230.6 1768.17 1232.81 1766.69 1233.51C1765.99 1233.84 1765.12 1234.12 1764.79 1234.12C1764.46 1234.12 1763.99 1234.29 1763.73 1234.48C1763.47 1234.66 1762.74 1234.83 1761.99 1234.83C1760.46 1234.83 1758.98 1235.56 1758.51 1236.52L1758.21 1237.15L1757.27 1236.68C1756.14 1236.07 1755.03 1236.21 1754.26 1237.04C1753.74 1237.58 1753.72 1237.6 1753.3 1237.18C1752.94 1236.83 1752.68 1236.78 1752.03 1236.94C1750.88 1237.2 1749.25 1238 1747.26 1239.36C1746.29 1240 1744.32 1240.98 1742.77 1241.57C1741.26 1242.16 1737.97 1243.4 1735.46 1244.34C1730.6 1246.2 1729.37 1246.88 1726.55 1249.35C1724.18 1251.47 1721.27 1253.77 1714.29 1259.15C1711.11 1261.57 1707.9 1264.11 1707.12 1264.79C1706.23 1265.56 1705.4 1266.06 1704.86 1266.18C1704.37 1266.25 1703.85 1266.5 1703.69 1266.72C1703.41 1267.05 1703.43 1267.07 1703.92 1266.9C1704.98 1266.58 1704.21 1267.21 1703.08 1267.59C1700.85 1268.34 1694.78 1272.76 1694.78 1273.62C1694.78 1273.74 1694.57 1273.84 1694.29 1273.84C1693.68 1273.84 1692.97 1274.21 1692.01 1275.03C1691.59 1275.41 1690.91 1275.88 1690.48 1276.05C1690.06 1276.23 1688.46 1277.43 1686.91 1278.7C1684.56 1280.65 1684.04 1281.19 1683.74 1282.06C1683.36 1283.12 1682.61 1283.75 1682.87 1282.79C1682.94 1282.46 1682.87 1282.3 1682.66 1282.3C1682.07 1282.3 1678.8 1285.26 1677.96 1286.57C1677.63 1287.11 1677.11 1287.51 1676.57 1287.7C1675.7 1287.98 1675.54 1288.26 1676.1 1288.5C1676.66 1288.71 1676.5 1288.97 1675.56 1289.39C1673.66 1290.29 1660.31 1303.14 1659.46 1304.9C1659.23 1305.37 1658.95 1305.84 1658.81 1305.91C1658.69 1306.01 1657.35 1307.51 1655.82 1309.27C1654.32 1311.06 1649.81 1315.88 1645.79 1320.01C1638.1 1327.93 1635.68 1330.63 1635.33 1331.55C1635.21 1331.86 1634.95 1332.11 1634.77 1332.11C1634.2 1332.11 1632.91 1333.85 1631.48 1336.51C1629.78 1339.68 1629.13 1340.34 1627.67 1340.34C1626.78 1340.34 1626.56 1340.43 1626.47 1340.81C1626.35 1341.28 1626.31 1341.28 1625.74 1340.9C1625.41 1340.69 1625.11 1340.62 1625.01 1340.76C1624.94 1340.88 1624.36 1341.02 1623.74 1341.09C1623.04 1341.19 1622.41 1341.42 1622.08 1341.73C1621.79 1341.98 1621.37 1342.22 1621.14 1342.22C1620.9 1342.22 1620.29 1342.34 1619.8 1342.5C1619.09 1342.71 1618.27 1342.69 1616.22 1342.45C1613.22 1342.13 1609.32 1342.38 1607.74 1343.04C1607.22 1343.25 1605.63 1343.51 1604.15 1343.63C1602.67 1343.75 1601.3 1343.96 1601.14 1344.1C1600.9 1344.29 1600.53 1344.22 1599.61 1343.75C1598.44 1343.16 1598.39 1343.16 1598.27 1343.61C1598.15 1344.05 1598.15 1344.05 1597.71 1343.61C1597.4 1343.3 1596.93 1343.16 1596.2 1343.16C1594.61 1343.16 1588.64 1344.05 1586.92 1344.55C1586.08 1344.8 1584.78 1345.11 1584.05 1345.25C1582.39 1345.56 1581.26 1346.1 1581.12 1346.71C1581.05 1346.94 1580.79 1347.15 1580.53 1347.15C1579.71 1347.15 1578.67 1347.88 1578.32 1348.68C1577.87 1349.76 1577.9 1351.43 1578.37 1352.51C1578.58 1352.98 1578.77 1353.64 1578.79 1353.95C1578.84 1354.74 1581.23 1356.81 1583.33 1357.87C1585.02 1358.74 1585.06 1358.74 1586.31 1358.46C1587.46 1358.2 1587.67 1358.22 1588.24 1358.6C1588.73 1358.9 1589.62 1359.04 1592.33 1359.19C1595.26 1359.33 1596.11 1359.47 1597.99 1360.08C1601 1361.07 1603.61 1361.49 1607.48 1361.65C1611.38 1361.79 1612.16 1361.61 1611.92 1360.62L1611.76 1359.98L1612.42 1360.5C1613.33 1361.23 1615.57 1361.21 1618.06 1360.43C1619.09 1360.13 1620.41 1359.8 1621 1359.7C1621.58 1359.63 1622.29 1359.42 1622.57 1359.23C1623.3 1358.79 1623.44 1358.81 1625.27 1359.63C1626.26 1360.1 1626.87 1360.52 1626.87 1360.76C1626.87 1361.28 1627.9 1363.46 1628.59 1364.38C1628.91 1364.78 1629.83 1366.35 1630.63 1367.83C1631.45 1369.31 1632.67 1371.36 1633.38 1372.39C1634.06 1373.4 1634.62 1374.34 1634.62 1374.48C1634.62 1374.62 1635.28 1375.68 1636.08 1376.86C1636.95 1378.13 1637.87 1379.82 1638.29 1380.99C1638.78 1382.33 1639.21 1383.06 1639.54 1383.23C1639.82 1383.34 1640.03 1383.65 1640.03 1383.86C1640.03 1384.47 1642.57 1389.31 1643.79 1391.05C1644.38 1391.87 1645.2 1393.07 1645.6 1393.75C1646.02 1394.41 1647.62 1396.41 1649.12 1398.19C1650.65 1399.98 1652.08 1401.77 1652.32 1402.19C1652.86 1403.25 1652.84 1405.1 1652.25 1406.25C1651.99 1406.77 1651.61 1407.83 1651.4 1408.6C1651.22 1409.38 1650.67 1410.55 1650.23 1411.21C1649.78 1411.87 1649.43 1412.51 1649.43 1412.67C1649.43 1412.81 1648.91 1413.54 1648.25 1414.27C1647.62 1415 1647.08 1415.84 1647.08 1416.1C1647.08 1416.38 1646.87 1416.73 1646.63 1416.88C1646.09 1417.23 1644.99 1419.51 1642.73 1425.01C1641.79 1427.36 1640.57 1430.22 1640.05 1431.4C1639.54 1432.55 1639.18 1433.58 1639.23 1433.68C1639.3 1433.77 1639.58 1433.87 1639.87 1433.89H1640.38L1639.87 1434.15C1639.18 1434.48 1638.24 1436.66 1637.68 1439.2C1637.07 1441.88 1635.75 1445.76 1633.8 1450.43C1632.27 1454.12 1632.25 1454.22 1632.37 1455.84C1632.49 1457.25 1632.44 1457.53 1632.09 1457.76C1631.85 1457.91 1631.08 1459.1 1630.37 1460.44C1629.67 1461.78 1628.75 1463.36 1628.3 1463.94C1627.86 1464.53 1627.08 1465.94 1626.59 1467.09C1626.09 1468.25 1625.32 1469.68 1624.87 1470.27C1624.4 1470.85 1623.98 1471.61 1623.89 1471.93C1623.82 1472.26 1623.35 1473.16 1622.83 1473.96C1622.33 1474.78 1621.94 1475.69 1621.94 1476.07C1621.94 1476.49 1621.77 1476.87 1621.49 1477.03C1621.25 1477.17 1620.92 1477.81 1620.78 1478.42C1620.62 1479.05 1620.27 1479.71 1619.96 1479.95C1619.4 1480.39 1618.88 1481.92 1618.88 1483.1C1618.88 1484.81 1621.28 1487.51 1623.44 1488.24C1625.27 1488.88 1626.21 1488.57 1627.79 1486.83C1629.71 1484.72 1631.08 1482.84 1631.69 1481.45C1632.02 1480.75 1632.37 1480.16 1632.49 1480.16C1632.63 1480.16 1633.05 1479.45 1633.47 1478.56C1633.87 1477.69 1634.58 1476.38 1635.02 1475.62C1635.47 1474.87 1635.94 1473.91 1636.06 1473.46C1636.29 1472.64 1636.29 1472.64 1637.68 1472.64C1638.62 1472.64 1639.14 1472.52 1639.25 1472.31C1639.35 1472.12 1639.65 1471.96 1639.91 1471.91C1640.43 1471.82 1641.35 1470.08 1642.17 1467.66C1642.43 1466.86 1642.97 1465.85 1643.34 1465.43C1644.96 1463.55 1648.49 1454.8 1648.49 1452.59C1648.49 1452.36 1648.84 1451.51 1649.29 1450.71C1650.16 1449.14 1651.47 1445.24 1651.71 1443.57C1651.78 1442.98 1651.99 1442.47 1652.16 1442.4C1652.37 1442.33 1652.48 1441.86 1652.48 1441.06C1652.48 1440.38 1652.63 1439.62 1652.81 1439.36C1653.19 1438.82 1655.7 1430.74 1655.92 1429.35C1656.03 1428.72 1655.99 1428.46 1655.77 1428.46C1655.61 1428.46 1655.8 1428.11 1656.17 1427.66C1656.57 1427.22 1656.95 1426.49 1657.02 1425.97C1657.21 1424.82 1658.45 1422.82 1658.99 1422.82C1659.65 1422.82 1660.92 1423.83 1661.23 1424.58C1661.65 1425.66 1662.87 1427.52 1664.56 1429.68C1666.51 1432.13 1666.61 1432.57 1665.69 1435.23C1665.29 1436.36 1664.8 1437.91 1664.59 1438.68C1664.37 1439.46 1663.62 1441.43 1662.92 1443.08C1662.21 1444.72 1661.65 1446.25 1661.65 1446.51C1661.65 1446.74 1661.44 1447.14 1661.16 1447.4C1660.87 1447.64 1660.24 1448.58 1659.72 1449.49C1659.18 1450.39 1658.29 1451.91 1657.72 1452.83C1657.18 1453.77 1656.71 1454.78 1656.71 1455.09C1656.71 1455.39 1656.13 1456.82 1655.42 1458.26C1653.28 1462.56 1652.55 1464.84 1653.19 1465.24C1653.59 1465.47 1653.45 1465.78 1653 1465.66C1652.37 1465.5 1651.69 1466.39 1651.85 1467.19C1651.94 1467.66 1651.87 1467.92 1651.54 1468.1C1651.31 1468.27 1650.86 1469.16 1650.53 1470.1C1649.38 1473.44 1648.98 1474.43 1648.16 1476C1647.69 1476.89 1647.31 1477.83 1647.31 1478.14C1647.31 1478.42 1647.01 1479.08 1646.63 1479.6C1645.25 1481.45 1643.6 1485.75 1643.48 1487.8C1643.44 1488.43 1643.51 1488.5 1644.07 1488.43C1644.56 1488.38 1644.66 1488.45 1644.56 1488.83C1644.28 1489.94 1646.16 1491.79 1648.09 1492.33C1649.26 1492.66 1650.32 1492.33 1651.59 1491.3C1652.55 1490.48 1652.65 1490.45 1654.06 1490.57C1655.21 1490.66 1655.63 1490.59 1655.99 1490.29C1656.24 1490.08 1656.76 1489.72 1657.16 1489.51C1657.72 1489.21 1657.96 1488.81 1658.43 1487.28C1659.37 1484.3 1660.8 1480.75 1661.46 1479.76C1662.47 1478.23 1664.19 1474.07 1664.84 1471.61C1665.03 1470.83 1665.9 1468.67 1666.75 1466.79C1668.7 1462.46 1669.26 1460.96 1669.85 1458.59C1670.11 1457.55 1670.58 1456.17 1670.91 1455.53C1671.24 1454.9 1671.54 1454.1 1671.61 1453.79C1671.66 1453.46 1671.94 1452.76 1672.2 1452.24C1672.48 1451.7 1672.69 1450.97 1672.69 1450.6C1672.69 1450.08 1672.81 1449.92 1673.09 1449.94C1673.45 1449.96 1673.54 1449.7 1673.66 1448.55C1673.75 1447.61 1674.08 1446.53 1674.69 1445.31C1675.16 1444.32 1675.63 1443.5 1675.7 1443.5C1675.75 1443.5 1676.27 1443.9 1676.78 1444.39C1677.49 1445.05 1678.26 1445.45 1679.53 1445.83C1681.69 1446.51 1683.86 1447.47 1685.92 1448.72C1687.62 1449.73 1689.85 1450.32 1693.37 1450.64C1694.34 1450.74 1695.91 1451.07 1696.9 1451.37C1697.86 1451.68 1699.11 1451.98 1699.67 1452.08C1700.23 1452.17 1700.75 1452.38 1700.82 1452.57C1701.01 1453.09 1703.17 1454.19 1705.83 1455.13C1707.19 1455.63 1709.61 1456.73 1711.23 1457.6C1718.05 1461.29 1723.52 1463.71 1724.93 1463.71C1725.26 1463.71 1725.57 1463.85 1725.64 1464.04C1726.01 1464.98 1736.09 1466.95 1739.31 1466.72C1740.44 1466.65 1740.49 1466.62 1740.42 1465.99C1740.32 1465.17 1740.58 1465.19 1741.41 1466.04C1741.95 1466.6 1742.16 1466.67 1742.67 1466.51C1743.03 1466.41 1746.32 1466.2 1750.01 1466.08C1753.7 1465.94 1757.71 1465.71 1758.94 1465.57C1760.25 1465.4 1762.13 1465.38 1763.52 1465.47C1764.81 1465.57 1768.45 1465.71 1771.6 1465.78L1777.31 1465.94L1778.11 1466.86C1779.9 1468.93 1782.95 1475.72 1785.18 1482.51C1786.12 1485.42 1786.83 1487.23 1787.13 1487.49C1787.39 1487.7 1787.6 1488.15 1787.6 1488.48C1787.6 1488.81 1787.98 1490.1 1788.43 1491.37C1788.87 1492.64 1789.25 1493.95 1789.25 1494.31C1789.25 1494.73 1789.37 1494.96 1789.6 1494.96C1789.79 1494.96 1790.05 1495.36 1790.21 1495.95C1790.64 1497.55 1792.45 1501.8 1794.56 1506.2C1795.64 1508.45 1796.58 1510.66 1796.68 1511.13C1796.75 1511.62 1797.17 1512.68 1797.57 1513.53C1797.99 1514.37 1798.74 1516.09 1799.24 1517.36C1799.97 1519.33 1800.29 1519.85 1801.28 1520.77C1801.94 1521.38 1802.62 1522.25 1802.81 1522.69C1803.51 1524.34 1804.5 1525.44 1805.75 1526.08C1807.41 1526.9 1808.64 1526.88 1809.95 1525.98C1810.59 1525.56 1811.29 1525.28 1811.76 1525.28C1812.77 1525.28 1813.92 1524.2 1813.92 1523.23C1813.92 1522.88 1813.76 1521.71 1813.55 1520.62C1813.24 1519.07 1813.2 1518.35 1813.38 1516.98C1813.57 1515.69 1813.55 1515.01 1813.31 1514.05C1813.12 1513.36 1812.98 1512.54 1812.98 1512.21C1812.98 1511.91 1812.84 1511.04 1812.65 1510.29C1812.47 1509.56 1812.21 1508.08 1812.09 1507C1811.93 1505.54 1811.74 1504.9 1811.36 1504.5C1811.1 1504.22 1810.87 1503.82 1810.87 1503.61C1810.87 1503.38 1810.45 1503.05 1809.81 1502.81C1809.15 1502.53 1808.73 1502.18 1808.66 1501.87C1808.59 1501.59 1808.14 1501.07 1807.67 1500.72C1805.79 1499.29 1804.64 1496.87 1804.27 1493.55C1803.96 1490.78 1803.11 1488.15 1802.53 1488.15C1802.36 1488.15 1802.29 1487.84 1802.36 1487.37C1802.41 1486.93 1802.17 1485.87 1801.75 1484.74C1801.38 1483.71 1800.93 1482.27 1800.76 1481.57C1800.25 1479.36 1797.26 1470.52 1796.63 1469.37C1796.3 1468.76 1795.76 1468.08 1795.41 1467.87C1795.05 1467.66 1794.91 1467.47 1795.08 1467.47C1795.27 1467.47 1795.36 1467.12 1795.36 1466.46C1795.36 1465.9 1795.52 1465.24 1795.71 1464.98C1796.06 1464.56 1796.09 1464.56 1796.77 1465.33C1797.15 1465.78 1798.65 1468.48 1800.08 1471.32C1801.54 1474.19 1803.07 1477.03 1803.49 1477.69C1803.89 1478.33 1804.38 1479.34 1804.55 1479.9C1804.71 1480.46 1805.04 1481.03 1805.28 1481.19C1805.51 1481.33 1805.7 1481.71 1805.7 1482.04C1805.7 1482.37 1805.98 1483.05 1806.29 1483.57C1806.62 1484.08 1806.87 1484.77 1806.87 1485.05C1806.87 1485.38 1807.2 1485.92 1807.63 1486.32C1808.12 1486.79 1808.42 1487.33 1808.52 1487.98C1808.89 1490.1 1814.11 1500.13 1814.86 1500.13C1814.96 1500.13 1815.1 1500.56 1815.17 1501.07C1815.31 1502.23 1816.41 1504.15 1816.98 1504.29C1817.21 1504.36 1817.45 1504.69 1817.52 1505.02C1817.59 1505.37 1818.25 1506.43 1818.98 1507.39C1820.53 1509.44 1822.17 1512.19 1823.82 1515.48C1825.37 1518.53 1826.8 1520.81 1827.2 1520.81C1827.39 1520.81 1827.55 1521.09 1827.6 1521.45C1827.74 1522.79 1830.7 1524.24 1832.25 1523.75C1832.51 1523.66 1832.86 1523.33 1832.98 1522.97C1833.64 1521.24 1834.51 1510.92 1834.25 1507.89C1833.9 1503.85 1832.44 1498.18 1830.91 1494.96C1830.3 1493.67 1829.64 1492.8 1828.49 1491.67C1826.8 1490.01 1825.49 1488.03 1824.29 1485.24C1823.61 1483.71 1823.39 1483.43 1822.78 1483.26C1822.17 1483.1 1821.96 1482.79 1821.16 1480.98C1820.64 1479.81 1819.99 1478.14 1819.68 1477.27C1819 1475.37 1817.28 1472.08 1816.67 1471.54C1816.39 1471.28 1815.92 1471.16 1815.31 1471.21C1814.3 1471.28 1814.16 1471.04 1814.86 1470.41C1815.43 1469.89 1815.52 1469.07 1814.98 1469.26C1814.75 1469.35 1814.63 1469.26 1814.63 1468.95C1814.63 1468.69 1814.39 1468.01 1814.09 1467.42C1813.36 1465.97 1810.21 1461.9 1809.74 1461.78C1809.53 1461.71 1808.99 1460.94 1808.54 1460.04C1808.12 1459.15 1807.41 1457.93 1806.99 1457.34C1806.12 1456.1 1805.46 1454.92 1805.46 1454.57C1805.46 1454.43 1805.77 1454.03 1806.17 1453.7C1806.54 1453.35 1806.92 1452.9 1806.99 1452.69C1807.06 1452.48 1807.46 1452.1 1807.86 1451.84C1809.76 1450.74 1816.74 1443.34 1816.74 1442.42C1816.74 1442.23 1816.84 1442.09 1816.98 1442.09C1817.1 1442.09 1817.45 1441.71 1817.73 1441.27C1818.58 1439.98 1819.02 1439.91 1822.88 1440.3C1824.73 1440.52 1826.64 1440.77 1827.08 1440.92C1829.15 1441.53 1842.03 1441.86 1845.88 1441.39C1848.84 1441.01 1848.7 1441.1 1848.7 1439.41C1848.7 1436.15 1847.46 1434.24 1844.12 1432.29C1841.09 1430.53 1835.99 1428.56 1833.85 1428.3C1833.1 1428.2 1832.72 1428.06 1832.72 1427.83C1832.72 1427.64 1832.46 1427.15 1832.16 1426.75C1831.83 1426.32 1831.5 1425.71 1831.43 1425.34C1831.34 1424.98 1830.96 1424.49 1830.61 1424.23C1829.93 1423.74 1828.49 1421.2 1828.49 1420.45C1828.49 1420.24 1828.66 1420 1828.85 1419.91C1829.03 1419.84 1829.13 1419.63 1829.06 1419.44C1828.99 1419.25 1829.15 1418.87 1829.41 1418.61C1829.72 1418.31 1829.9 1417.82 1829.9 1417.32C1829.9 1416.88 1830.11 1416.27 1830.4 1415.91C1830.7 1415.54 1830.82 1415.14 1830.73 1414.83C1830.63 1414.57 1830.75 1414.08 1830.98 1413.68C1831.36 1413.05 1831.36 1412.95 1830.98 1412.04C1830.63 1411.12 1830.63 1411.02 1830.98 1410.65C1831.52 1410.11 1831.31 1408.37 1830.23 1404.73C1829.76 1403.11 1829.08 1400.73 1828.73 1399.46C1828.38 1398.17 1827.98 1397.07 1827.84 1397.02C1827.67 1396.97 1827.55 1396.57 1827.55 1396.13C1827.55 1395.68 1827.46 1395.33 1827.32 1395.33C1827.2 1395.33 1826.99 1394.88 1826.85 1394.32C1826.33 1392.25 1824.26 1389.15 1823.02 1388.63C1822.59 1388.47 1821.49 1387.69 1820.55 1386.91C1819.02 1385.67 1817.66 1384.99 1816.72 1384.99C1816.53 1384.99 1816.11 1384.64 1815.76 1384.21C1814.91 1383.13 1806 1378.62 1803.73 1378.1C1802.64 1377.84 1802.01 1377.59 1801.77 1377.23C1801.52 1376.88 1801.26 1376.76 1800.88 1376.86C1800.53 1376.95 1800.29 1376.88 1800.22 1376.67C1799.92 1375.87 1794.18 1374.27 1787.49 1373.12C1780.81 1371.99 1777.76 1371.59 1775.55 1371.59C1774.3 1371.59 1773.43 1371.48 1773.15 1371.26C1772.89 1371.1 1771.7 1370.89 1770.5 1370.82C1767.68 1370.61 1766.46 1370.09 1765.84 1368.87C1765.49 1368.14 1765.07 1367.79 1763.68 1367.06C1762.62 1366.54 1761.64 1366.19 1761.12 1366.19C1760.65 1366.19 1760.09 1366.02 1759.88 1365.84C1759.57 1365.55 1759.31 1365.55 1758 1365.81C1755.13 1366.42 1753.53 1366.49 1751.3 1366.09C1749.7 1365.81 1748.38 1365.77 1745.87 1365.88C1742.77 1366.02 1742.49 1366 1740.7 1365.41C1737.95 1364.52 1735.88 1364.21 1734.07 1364.43C1733.2 1364.52 1731.7 1364.59 1730.74 1364.57C1729.07 1364.52 1728.9 1364.57 1728.06 1365.22C1727.52 1365.65 1726.77 1366 1726.11 1366.09C1725.52 1366.19 1722.42 1366.12 1719.25 1365.98C1713.11 1365.67 1712.88 1365.69 1704.21 1366.92C1702.7 1367.15 1702 1367.15 1701.22 1366.94C1699.84 1366.56 1697.56 1366.59 1692.9 1367.01C1690.39 1367.25 1688.86 1367.5 1688.51 1367.72C1688.01 1368.04 1687.97 1368.04 1687.97 1367.62C1687.97 1367.32 1687.24 1366.54 1685.92 1365.46C1684.77 1364.52 1681.69 1361.58 1679.04 1358.9C1676.38 1356.22 1673.59 1353.55 1672.83 1352.93C1671.57 1351.9 1671.35 1351.81 1670.48 1351.92C1669.94 1351.99 1669.26 1352.14 1668.96 1352.23C1668.46 1352.37 1668.42 1352.35 1668.53 1351.88C1668.63 1351.48 1668.51 1351.29 1667.9 1350.96C1667.48 1350.75 1666.47 1350.11 1665.64 1349.57C1664.84 1349.01 1663.81 1348.47 1663.36 1348.35C1662.92 1348.23 1662.17 1347.76 1661.67 1347.32C1660.5 1346.26 1658.99 1345.39 1657.37 1344.83C1655.12 1344.05 1651.31 1342.38 1651.31 1342.15C1651.31 1341.8 1654.36 1338.74 1655.84 1337.59C1656.57 1337.03 1657.18 1336.37 1657.18 1336.16C1657.18 1335.9 1657.63 1335.57 1658.43 1335.22C1659.11 1334.93 1660.5 1334.06 1661.51 1333.29C1662.54 1332.51 1663.51 1331.88 1663.65 1331.88C1663.81 1331.88 1664.3 1331.53 1664.75 1331.1C1665.2 1330.7 1666.37 1329.91 1667.38 1329.34C1668.37 1328.78 1669.26 1328.14 1669.33 1327.93C1669.57 1327.3 1669.92 1327.2 1670.51 1327.58C1671.17 1328 1673.82 1327.84 1675.4 1327.27C1675.91 1327.09 1677.53 1326.62 1678.99 1326.24C1681.79 1325.51 1685.15 1324.22 1685.15 1323.87C1685.15 1323.75 1685.55 1323.47 1686.06 1323.21C1687.38 1322.53 1690.32 1319.47 1691.99 1317.03C1692.76 1315.88 1693.56 1314.87 1693.75 1314.8C1693.96 1314.72 1694.08 1314.3 1694.08 1313.53C1694.08 1312.85 1694.17 1312.38 1694.34 1312.38C1694.5 1312.38 1694.55 1312.61 1694.5 1312.96C1694.43 1313.31 1694.48 1313.55 1694.64 1313.55C1694.99 1313.55 1702.77 1305.75 1703.74 1304.43C1704.14 1303.89 1704.58 1303.45 1704.72 1303.45C1704.89 1303.45 1705.57 1303.07 1706.23 1302.62C1706.91 1302.18 1707.59 1301.8 1707.75 1301.8C1707.92 1301.8 1708.2 1301.59 1708.37 1301.33C1708.53 1301.07 1708.91 1300.86 1709.19 1300.86C1709.49 1300.86 1710.27 1300.48 1710.9 1300.04C1711.54 1299.59 1712.17 1299.22 1712.31 1299.22C1712.45 1299.22 1713.77 1298.42 1715.23 1297.45C1716.68 1296.49 1720 1294.52 1722.61 1293.06C1727.42 1290.36 1728.93 1289.32 1733.02 1285.87C1734.28 1284.79 1735.72 1283.68 1736.21 1283.45C1736.71 1283.19 1737.43 1282.67 1737.83 1282.27C1738.23 1281.9 1738.75 1281.59 1738.98 1281.59C1739.67 1281.59 1741.85 1280.53 1742.35 1279.97C1742.6 1279.71 1742.98 1279.48 1743.21 1279.48C1743.45 1279.48 1743.76 1279.29 1743.87 1279.03C1744.01 1278.79 1744.46 1278.54 1744.88 1278.44C1745.31 1278.37 1746.97 1277.57 1748.6 1276.68C1750.22 1275.81 1751.77 1275.01 1752.05 1274.92C1752.31 1274.82 1752.83 1274.4 1753.15 1273.95C1753.48 1273.53 1754 1273.13 1754.28 1273.08C1754.64 1273.04 1754.8 1272.87 1754.8 1272.59C1754.78 1272.29 1754.94 1272.19 1755.5 1272.19C1756.59 1272.19 1759.48 1271.35 1761 1270.57C1762.65 1269.75 1764.06 1269.42 1771.51 1268.17C1774.75 1267.63 1778.11 1267.02 1778.98 1266.79C1780.25 1266.48 1780.55 1266.46 1780.46 1266.72C1780.25 1267.23 1780.88 1267.07 1783.4 1265.87C1785.87 1264.7 1787.63 1264.06 1791.46 1262.91C1792.92 1262.46 1793.76 1262.09 1794.23 1261.59C1794.82 1261.01 1795.01 1260.96 1795.43 1261.17C1796.09 1261.52 1799.19 1261.29 1803.68 1260.54C1807.91 1259.81 1814.21 1258.02 1821.56 1255.41C1825.86 1253.91 1830.94 1252.71 1835.17 1252.19C1840.1 1251.63 1841.07 1251.39 1841.68 1250.6L1842.17 1249.98L1842.52 1250.5C1842.97 1251.16 1843.98 1251.21 1845.88 1250.69C1846.59 1250.5 1847.93 1250.22 1848.82 1250.1C1849.74 1249.96 1850.75 1249.75 1851.12 1249.61C1851.59 1249.42 1851.85 1249.42 1852.06 1249.61C1852.42 1249.87 1853.07 1249.73 1854.65 1249.07C1855.19 1248.83 1856.76 1248.6 1858.64 1248.46C1862.52 1248.18 1863.79 1248.01 1864.14 1247.71C1864.33 1247.54 1864.59 1247.59 1864.96 1247.85C1865.93 1248.53 1867.41 1248.1 1867.67 1247.09C1868.07 1245.5 1865.2 1244.91 1859.04 1245.33C1857.04 1245.47 1855.28 1245.73 1854.77 1245.94C1854.06 1246.25 1853.92 1246.25 1854.04 1245.99C1854.25 1245.4 1853.21 1245.38 1846.12 1245.73C1839.54 1246.06 1837.61 1246.3 1837.31 1246.81C1837.09 1247.14 1836.22 1247.09 1835.14 1246.72C1834.3 1246.41 1834.16 1246.44 1833.83 1246.77C1833.5 1247.09 1833.26 1247.09 1831.76 1246.81C1830.3 1246.53 1829.72 1246.53 1827.22 1246.88C1825.67 1247.12 1821.8 1247.56 1818.62 1247.89C1815.45 1248.2 1811.86 1248.69 1810.63 1248.95C1807.46 1249.63 1804.78 1250.03 1801.94 1250.22C1800.58 1250.31 1797.94 1250.69 1796.06 1251.04C1792.37 1251.77 1788.85 1252.22 1786.81 1252.22C1785.3 1252.22 1784.78 1252.38 1784.78 1252.83C1784.78 1253.11 1784.69 1253.11 1784.29 1252.9C1783.66 1252.57 1781.73 1252.76 1781.47 1253.18C1781.38 1253.37 1780.6 1253.56 1779.61 1253.65C1778.46 1253.74 1777.73 1253.96 1777.26 1254.28C1776.87 1254.59 1776.54 1254.71 1776.44 1254.57C1776.21 1254.19 1774.94 1254.28 1773.34 1254.8C1772.54 1255.04 1771.34 1255.32 1770.66 1255.41C1769.93 1255.51 1769.3 1255.77 1769.04 1256.05C1768.71 1256.38 1768.41 1256.47 1767.84 1256.4C1766.29 1256.16 1763.02 1257.06 1759.64 1258.63C1758.68 1259.08 1757.2 1259.69 1756.35 1259.97C1754.64 1260.56 1750.59 1262.56 1749.61 1263.33C1749.25 1263.61 1748.64 1263.87 1748.22 1263.9C1747.82 1263.92 1746.79 1264.32 1745.92 1264.77C1745.05 1265.24 1744.11 1265.61 1743.83 1265.61C1743.57 1265.61 1743.17 1265.78 1742.93 1265.99C1742.7 1266.2 1741.38 1266.76 1740 1267.28C1737.41 1268.22 1736.38 1268.74 1736.38 1269.14C1736.38 1269.25 1736.24 1269.3 1736.05 1269.23C1735.67 1269.09 1729.73 1271.35 1727.26 1272.57C1725.03 1273.7 1721.64 1275.81 1720.75 1276.68C1720.35 1277.06 1719.88 1277.36 1719.72 1277.36C1719.34 1277.36 1718.21 1278.14 1716.97 1279.26C1716.43 1279.76 1715.53 1280.42 1714.99 1280.77C1713.04 1281.99 1706.53 1288.01 1706.53 1288.57C1706.53 1288.73 1706.23 1289.02 1705.85 1289.2C1705 1289.65 1693.28 1301.78 1692.79 1302.74C1692.57 1303.14 1692.48 1303.56 1692.55 1303.68C1692.62 1303.82 1692.46 1303.92 1692.15 1303.92C1691.82 1303.92 1690.69 1304.64 1689.38 1305.68C1688.16 1306.64 1686.3 1307.89 1685.27 1308.43C1684.23 1308.94 1683.1 1309.63 1682.75 1309.93C1682.4 1310.21 1681.39 1310.68 1680.52 1310.97C1678.29 1311.72 1677.49 1312.14 1673.75 1314.61C1669.5 1317.45 1664.96 1320.13 1664.45 1320.13C1664.23 1320.13 1663.93 1320.29 1663.76 1320.48C1663.6 1320.67 1663.13 1320.83 1662.73 1320.83C1662.28 1320.83 1661.25 1321.28 1660 1322.01C1658.01 1323.18 1656.95 1323.47 1656.95 1322.86C1656.95 1322.67 1657.68 1321.73 1658.55 1320.76C1660.05 1319.12 1661.88 1316.16 1661.88 1315.38C1661.88 1315.19 1662.12 1314.91 1662.4 1314.77C1663.29 1314.37 1666.02 1311.74 1666.8 1310.57C1667.19 1309.98 1667.52 1309.16 1667.52 1308.78C1667.52 1308.15 1667.57 1308.1 1668.23 1308.19C1668.86 1308.29 1668.93 1308.24 1668.93 1307.63C1668.93 1307.13 1669.05 1306.97 1669.38 1306.97C1670.23 1306.97 1670.53 1306.71 1672.53 1304.31C1674.41 1302.06 1675.68 1300.86 1678.03 1299C1678.59 1298.58 1679.04 1298.04 1679.04 1297.81C1679.04 1297.5 1679.39 1297.19 1680.05 1296.89C1680.97 1296.42 1683.15 1294.99 1684.84 1293.67C1685.27 1293.36 1685.55 1292.96 1685.48 1292.8C1685.41 1292.61 1685.69 1292.38 1686.18 1292.21C1687.24 1291.81 1689.14 1290.12 1689.14 1289.56C1689.14 1289.25 1689.31 1289.11 1689.68 1289.11C1690.36 1289.11 1693.02 1287.84 1693.3 1287.4C1693.4 1287.21 1694.08 1286.74 1694.78 1286.34C1695.49 1285.94 1697.06 1284.81 1698.28 1283.82C1699.51 1282.86 1700.61 1282.06 1700.78 1282.06C1700.92 1282.06 1701.39 1281.64 1701.79 1281.12C1702.28 1280.53 1702.68 1280.25 1702.89 1280.32C1703.1 1280.42 1703.31 1280.25 1703.45 1279.9C1703.57 1279.59 1704.06 1279.08 1704.56 1278.75C1708.11 1276.44 1709.14 1275.65 1711.61 1273.39C1713.16 1272 1714.64 1270.73 1714.95 1270.57C1715.27 1270.38 1715.44 1270.15 1715.37 1269.94C1715.3 1269.75 1715.39 1269.54 1715.58 1269.47C1715.77 1269.37 1715.93 1269.11 1715.93 1268.88C1715.93 1268.62 1716.1 1268.43 1716.35 1268.43C1717.01 1268.43 1719.53 1267.14 1720.14 1266.48C1720.51 1266.06 1720.66 1265.68 1720.58 1265.26C1720.47 1264.77 1720.54 1264.67 1720.84 1264.81C1721.88 1265.26 1722.72 1264.79 1728.1 1260.77C1730.27 1259.15 1732.26 1257.79 1732.57 1257.69C1732.97 1257.6 1733.09 1257.43 1733.02 1257.13C1732.92 1256.78 1733.02 1256.68 1733.6 1256.68C1733.98 1256.68 1734.64 1256.42 1735.06 1256.09C1735.48 1255.77 1736 1255.51 1736.21 1255.51C1736.42 1255.51 1736.73 1255.3 1736.89 1255.04C1737.06 1254.78 1737.39 1254.57 1737.6 1254.57C1737.83 1254.57 1738.56 1254.36 1739.22 1254.1C1739.9 1253.82 1740.61 1253.67 1740.77 1253.74C1740.98 1253.82 1741.17 1253.67 1741.24 1253.39C1741.33 1253.06 1741.5 1252.95 1741.76 1253.04C1742.27 1253.2 1744.93 1251.91 1745.35 1251.3C1745.8 1250.67 1746.86 1250.53 1746.81 1251.09C1746.76 1251.61 1747.02 1251.63 1747.42 1251.16C1748.01 1250.43 1752.87 1248.2 1754.33 1247.96C1755.11 1247.82 1756.84 1247.21 1758.21 1246.6C1759.57 1245.97 1761.26 1245.26 1761.97 1245.05C1762.72 1244.81 1763.26 1244.49 1763.33 1244.25C1763.4 1243.97 1763.61 1243.87 1764.06 1243.95C1764.97 1244.06 1767.35 1243.12 1767.77 1242.44C1768.03 1242.09 1768.38 1241.88 1768.78 1241.88C1769.75 1241.88 1773.55 1241.01 1775.5 1240.35C1776.47 1240.02 1777.48 1239.76 1777.71 1239.76C1777.95 1239.76 1778.7 1239.57 1779.4 1239.32C1780.11 1239.08 1781.57 1238.8 1782.62 1238.71C1784.03 1238.59 1784.71 1238.4 1785.16 1238.05C1785.63 1237.69 1786.31 1237.53 1787.98 1237.39C1789.27 1237.27 1791.88 1236.75 1794.25 1236.14C1799.12 1234.9 1800.04 1234.73 1807.11 1234.12C1810.14 1233.86 1813.74 1233.49 1815.1 1233.3C1818.41 1232.85 1825.79 1232.52 1838.36 1232.24C1856.08 1231.84 1857.91 1231.89 1864.66 1232.81C1865.39 1232.92 1865.41 1232.9 1865.08 1232.52C1864.89 1232.31 1864.78 1232.01 1864.85 1231.87C1864.99 1231.47 1863.55 1230.36 1862.94 1230.36C1862.64 1230.36 1861.84 1230.17 1861.13 1229.94C1860.43 1229.68 1859.14 1229.35 1858.22 1229.21C1857.33 1229.05 1855.85 1228.72 1854.93 1228.46C1852.77 1227.9 1849.67 1227.61 1842.01 1227.31C1836.2 1227.07 1833.19 1226.84 1831.15 1226.46C1830.51 1226.34 1830.37 1226.39 1830.37 1226.72C1830.37 1227.03 1830.3 1227.07 1830.07 1226.86C1829.88 1226.72 1829.01 1226.51 1828.12 1226.37C1826 1226.02 1809.27 1225.87 1803.11 1226.13Z" fill="#52575d"/>
<path d="M4293.93 4101.39C4291.45 4102.29 4289.87 4104.39 4289.87 4106.82C4289.87 4107.57 4291.12 4116.34 4292.65 4126.28C4294.15 4136.2 4295.3 4144.41 4295.2 4144.51C4295.1 4144.58 4294.1 4144.88 4293 4145.11C4288.44 4146.14 4282.01 4148.32 4276.77 4150.57C4275.15 4151.27 4273.79 4151.8 4273.74 4151.75C4273.69 4151.7 4269.56 4144.21 4264.55 4135.12C4259.55 4126.03 4255.11 4118.14 4254.69 4117.61C4254.29 4117.06 4253.44 4116.36 4252.81 4116.01C4250.58 4114.84 4247.45 4115.66 4245.47 4117.97C4244.15 4119.54 4243.64 4122.02 4244.35 4123.65C4244.6 4124.25 4260.82 4153.82 4262.48 4156.7L4263.08 4157.76L4261.15 4159.06C4257.29 4161.66 4252.63 4165.37 4249.13 4168.65L4247.55 4170.1L4231.8 4156.95C4223.14 4149.69 4215.52 4143.41 4214.9 4142.96C4213.29 4141.85 4211.09 4141.68 4209.36 4142.53C4207.13 4143.66 4205.76 4145.86 4205.73 4148.37C4205.73 4151.24 4205.16 4150.67 4223.09 4165.64C4232 4173.08 4239.26 4179.29 4239.19 4179.44C4239.14 4179.57 4238.26 4180.89 4237.23 4182.35C4236.21 4183.82 4234.71 4186.13 4233.9 4187.48C4233.1 4188.86 4232.4 4190.01 4232.35 4190.06C4232.33 4190.11 4230.67 4189.53 4228.72 4188.76C4226.74 4188.01 4217.88 4184.52 4208.99 4181.04C4194.29 4175.28 4192.71 4174.71 4191.33 4174.71C4188.2 4174.71 4186 4177.04 4185.75 4180.62C4185.65 4182.07 4185.72 4182.5 4186.3 4183.65C4186.7 4184.5 4187.33 4185.25 4187.9 4185.68C4188.43 4186.03 4197.42 4189.66 4207.86 4193.74C4218.33 4197.82 4226.94 4201.2 4226.99 4201.25C4227.04 4201.3 4226.57 4202.96 4225.94 4204.91C4224.81 4208.39 4223.51 4213.4 4223.51 4214.22C4223.51 4214.72 4223.96 4214.75 4217.8 4214C4207.86 4212.77 4196.29 4211.37 4189.16 4210.49C4185.17 4209.99 4181.64 4209.69 4181.27 4209.77C4176.16 4211.02 4175.41 4220.06 4180.27 4221.61C4180.72 4221.76 4190.03 4222.94 4200.97 4224.27C4211.92 4225.59 4221.13 4226.72 4221.43 4226.77C4221.93 4226.89 4221.96 4226.99 4221.98 4230.95C4221.98 4235.53 4222.33 4239.82 4222.99 4243.6C4223.24 4245.02 4223.41 4246.18 4223.39 4246.18C4223.31 4246.18 4193.59 4254.14 4187.7 4255.72C4185.17 4256.42 4182.72 4257.19 4182.27 4257.5C4181.14 4258.17 4180.29 4259.35 4179.94 4260.65C4179.26 4263.2 4180.97 4266.69 4183.55 4268.04C4185.32 4268.94 4186.5 4268.76 4196.34 4266.11C4201.3 4264.78 4207.39 4263.13 4209.86 4262.45C4212.34 4261.78 4218.38 4260.15 4223.29 4258.85L4232.2 4256.44L4246.07 4256.42C4253.71 4256.39 4268.41 4256.32 4278.73 4256.22L4297.51 4256.04L4298.99 4256.89C4302.29 4258.75 4306.07 4260.12 4310.13 4260.93L4312.28 4261.35L4312.36 4272.44L4312.41 4283.54L4308.95 4287.69C4298.28 4300.52 4290.25 4311.43 4287.29 4317.04C4285.36 4320.67 4283.96 4324.23 4281.86 4330.79L4280.05 4336.37L4278.33 4338.38C4276.4 4340.63 4276.1 4341.48 4276.72 4342.99C4277.78 4345.49 4280.68 4346.89 4284.86 4346.87C4287.07 4346.84 4288.82 4346.39 4290 4345.49C4291.2 4344.56 4291.35 4343.51 4290.62 4341.26L4290.05 4339.51L4291.82 4335.97C4294.1 4331.47 4298.21 4324.61 4303.79 4315.97C4309.38 4307.38 4309.25 4307.53 4310.15 4307.53C4311.33 4307.53 4311.66 4308.28 4311.66 4310.98C4311.66 4316.54 4310.73 4320.32 4305.4 4336.45C4298.96 4355.88 4295.28 4367.98 4294.28 4373.01C4293.75 4375.71 4293.25 4379.7 4292.65 4386.28C4292.35 4389.31 4292.07 4392.17 4292 4392.62L4291.85 4393.44L4287.92 4393.39C4285.69 4393.37 4283.71 4393.47 4283.34 4393.62C4280.98 4394.55 4280.63 4397.98 4282.68 4399.9C4283.18 4400.36 4283.84 4400.56 4285.91 4400.83C4289.97 4401.38 4292.68 4401.88 4292.93 4402.13C4293.5 4402.71 4292.15 4403.79 4287.49 4406.44C4284.24 4408.29 4283.41 4408.99 4283.21 4410.1C4282.98 4411.3 4283.91 4413.05 4285.19 4413.9C4286.92 4415.05 4287.74 4414.88 4291.47 4412.63C4294 4411.12 4294.9 4410.7 4295.66 4410.7C4296.96 4410.7 4297.21 4411.12 4298.66 4415.88C4299.99 4420.24 4300.56 4421.11 4302.19 4421.39C4303.37 4421.57 4305.17 4420.74 4305.95 4419.66C4306.9 4418.28 4306.85 4416.73 4305.67 4413.25C4304.52 4409.82 4304.42 4409.04 4305.12 4408.82C4305.62 4408.67 4307.45 4409.22 4308.9 4409.95C4310.45 4410.72 4311.31 4410.8 4312.48 4410.22C4314.39 4409.3 4315.26 4406.67 4314.24 4404.94C4313.99 4404.51 4311.51 4402.68 4307.95 4400.31L4302.09 4396.37L4302.27 4394.6C4302.84 4388.21 4303.99 4380.7 4305.05 4376.39C4306.4 4370.68 4311.31 4354.98 4313.36 4349.75C4314.36 4347.19 4314.74 4346.54 4315.91 4345.29C4317.17 4343.99 4317.42 4343.84 4318.29 4343.84C4319.37 4343.84 4320.05 4344.26 4320.85 4345.46C4321.35 4346.22 4324.9 4354.23 4328.06 4361.74C4329.34 4364.77 4337.12 4383.5 4337.88 4385.31C4337.93 4385.48 4337.47 4385.71 4336.77 4385.88C4334.69 4386.38 4331.64 4387.76 4330.81 4388.59C4329.54 4389.81 4329.46 4391.57 4330.56 4393.27C4331.39 4394.5 4332.19 4394.72 4336.17 4394.77C4338.18 4394.8 4340.03 4394.9 4340.25 4395.02C4341.38 4395.55 4340.88 4396.62 4338 4399.73C4336 4401.88 4335.7 4402.78 4336.35 4404.41C4336.95 4405.89 4338.5 4406.79 4340.23 4406.64C4341.81 4406.49 4342.18 4406.14 4344.89 4402.23C4346.99 4399.23 4347.52 4398.68 4348.34 4398.68C4348.57 4398.68 4350.2 4400.16 4351.92 4401.96C4353.68 4403.76 4355.4 4405.39 4355.78 4405.59C4357.48 4406.47 4359.59 4405.69 4360.46 4403.84C4361.44 4401.86 4361.19 4401.03 4358.88 4398.43C4357.13 4396.47 4356.08 4394.67 4356.31 4394.04C4356.58 4393.34 4357.66 4392.94 4359.91 4392.72C4361.31 4392.57 4362.49 4392.32 4362.87 4392.07C4365.07 4390.61 4364.97 4387.53 4362.64 4385.81C4362.01 4385.31 4361.49 4385.28 4355.5 4385.13C4351.95 4385.06 4348.92 4384.9 4348.77 4384.8C4348.44 4384.6 4345.69 4379.37 4344.14 4375.99C4341.98 4371.31 4341.38 4368.78 4340.23 4359.86C4338.98 4350.42 4338.7 4349.35 4335.32 4342.33C4334.04 4339.66 4332.77 4336.7 4332.49 4335.8C4331.87 4333.75 4331.26 4329.86 4330.94 4325.71C4330.61 4321.35 4330.61 4309 4330.96 4308.1C4331.21 4307.43 4331.59 4307.03 4332.02 4307.03C4332.92 4307 4344.21 4319.82 4349.47 4326.83C4352.6 4331.02 4353.4 4332.37 4354 4334.6C4354.93 4337.9 4355.95 4339.05 4358.36 4339.43C4361.61 4339.98 4366.3 4337.05 4367.37 4333.85C4368.23 4331.27 4367.5 4329.36 4364.89 4327.44C4362.97 4326.03 4362.22 4324.96 4355.85 4314.94C4354.4 4312.61 4352.5 4309.78 4351.67 4308.68C4349.29 4305.5 4345.01 4301.49 4339.18 4296.96C4330.89 4290.52 4327.51 4287.09 4325.63 4283.31L4324.8 4281.61L4324.68 4271.14L4324.55 4260.68L4325.55 4260.42C4327.76 4259.87 4330.44 4258.85 4333.04 4257.55L4335.77 4256.19H4370H4404.23L4424.74 4262.38C4442.8 4267.81 4445.48 4268.54 4447.03 4268.56C4448.58 4268.59 4448.93 4268.51 4449.81 4267.89C4451.94 4266.43 4452.91 4263.13 4452.01 4260.45C4451.49 4258.87 4450.26 4257.42 4448.96 4256.87C4448.43 4256.64 4440.39 4254.19 4431.1 4251.44C4421.81 4248.66 4413.27 4246.13 4412.15 4245.78C4410.85 4245.38 4410.14 4245.05 4410.19 4244.85C4410.24 4244.67 4410.47 4243.32 4410.69 4241.79C4410.92 4240.29 4411.12 4239.01 4411.17 4238.99C4411.25 4238.89 4417.96 4237.99 4439.49 4235.16C4448.51 4233.96 4453.34 4233.23 4454.02 4232.93C4456.14 4231.98 4457.35 4229.72 4457.05 4227.2C4456.65 4223.89 4454.19 4221.39 4451.31 4221.39C4450.66 4221.39 4441.62 4222.51 4431.23 4223.89C4420.81 4225.27 4412.1 4226.39 4411.85 4226.39C4411.45 4226.39 4411.37 4226.07 4411.25 4224.06C4411.15 4222.81 4411 4221.19 4410.92 4220.51L4410.77 4219.26L4430.38 4213.65C4441.17 4210.57 4450.41 4207.84 4450.91 4207.59C4452.86 4206.61 4453.79 4204.76 4453.59 4202.25C4453.32 4198.9 4450.76 4196.27 4447.76 4196.27C4446.88 4196.27 4441.1 4197.82 4427.97 4201.58C4417.78 4204.51 4409.17 4206.96 4408.82 4207.01C4408.22 4207.14 4408.14 4207.01 4406.86 4203.31C4406.14 4201.2 4405.51 4199.37 4405.49 4199.22C4405.46 4199.1 4411.7 4195.82 4419.33 4191.94C4441.02 4180.92 4441.5 4180.67 4442.22 4179.59C4443.67 4177.49 4443.6 4174.21 4442.05 4171.88C4440.97 4170.28 4439.64 4169.55 4437.76 4169.55C4436.16 4169.55 4437.41 4168.95 4408.42 4183.72L4399.88 4188.08L4398.45 4185.75C4397.67 4184.47 4396.07 4182.17 4394.89 4180.62L4392.77 4177.79L4394.09 4176.34C4394.82 4175.56 4400.28 4169.73 4406.21 4163.42C4420.59 4148.06 4420.29 4148.44 4420.74 4146.79C4420.99 4145.96 4421.09 4145.06 4420.99 4144.46C4420.31 4140.23 4415.15 4137.65 4411.82 4139.85C4411.3 4140.18 4404.94 4146.79 4397.67 4154.5C4390.41 4162.24 4384.43 4168.55 4384.35 4168.55C4384.3 4168.55 4383.02 4167.47 4381.5 4166.17C4379.99 4164.84 4377.62 4162.91 4376.19 4161.89C4374.79 4160.84 4373.61 4159.88 4373.56 4159.76C4373.51 4159.66 4377.77 4152.15 4382.97 4143.06C4388.21 4133.99 4392.67 4126.03 4392.92 4125.35C4393.42 4123.87 4393.24 4122.55 4392.39 4121.05C4390.26 4117.36 4384.6 4116.79 4382.27 4119.99C4381.9 4120.54 4377.39 4128.23 4372.26 4137.12C4367.15 4146.01 4362.84 4153.27 4362.69 4153.27C4362.57 4153.27 4360.91 4152.55 4359.03 4151.67C4354 4149.34 4349.97 4147.81 4344.66 4146.26C4342.93 4145.76 4342.73 4145.64 4342.83 4145.16C4342.91 4144.86 4344.44 4136.47 4346.24 4126.48C4348.64 4113.21 4349.49 4107.97 4349.42 4107C4349.27 4105.34 4348.27 4103.82 4346.74 4102.97C4345.46 4102.26 4343.06 4102.01 4341.56 4102.41C4340.1 4102.79 4338.55 4104.02 4337.95 4105.22C4337.57 4105.95 4336.45 4111.63 4334.09 4124.63C4332.27 4134.74 4330.71 4143.08 4330.64 4143.16C4330.56 4143.23 4329.61 4143.16 4328.53 4143.03C4324.55 4142.48 4317.17 4142.26 4312.41 4142.48C4309.85 4142.63 4307.7 4142.66 4307.63 4142.56C4307.55 4142.46 4306.37 4135.17 4305.05 4126.35C4301.82 4105.09 4301.77 4104.82 4301.01 4103.52C4299.71 4101.34 4296.68 4100.41 4293.93 4101.39ZM4324.55 4151.77C4325.93 4151.9 4327.51 4152.07 4328.06 4152.17L4329.09 4152.32L4327.06 4163.57C4325.93 4169.75 4324.95 4174.86 4324.88 4174.93C4324.8 4175.01 4323.7 4174.96 4322.4 4174.81C4321.1 4174.68 4318.34 4174.56 4316.26 4174.56H4312.46L4312.31 4173.73C4312.23 4173.31 4311.48 4168.42 4310.66 4162.91C4309.83 4157.41 4309.1 4152.65 4309.03 4152.35C4308.93 4151.9 4309.03 4151.8 4309.7 4151.7C4311.41 4151.5 4322.15 4151.55 4324.55 4151.77ZM4298.49 4164.42C4299.39 4170.33 4300.19 4175.51 4300.26 4175.89C4300.34 4176.31 4300.26 4176.61 4300.06 4176.66C4297.68 4177.39 4293.53 4178.84 4291.82 4179.57L4289.62 4180.52L4284.14 4170.58C4281.11 4165.12 4278.55 4160.46 4278.48 4160.26C4278.2 4159.53 4286.94 4156.15 4293.63 4154.4C4295.35 4153.95 4296.78 4153.6 4296.81 4153.62C4296.83 4153.62 4297.58 4158.48 4298.49 4164.42ZM4344.24 4155.68C4347.92 4156.85 4350.82 4157.98 4354.85 4159.83C4356.66 4160.69 4358.13 4161.39 4358.18 4161.41C4358.23 4161.46 4350.45 4175.03 4347.44 4180.12L4346.46 4181.8L4343.88 4180.59C4342.48 4179.94 4340.33 4179.02 4339.13 4178.57C4337.45 4177.94 4336.92 4177.64 4337 4177.34C4337.07 4177.11 4338 4171.95 4339.1 4165.87C4340.18 4159.76 4341.16 4154.78 4341.23 4154.78C4341.31 4154.78 4342.66 4155.18 4344.24 4155.68ZM4272.84 4175.56C4275.62 4180.59 4278.15 4185.18 4278.5 4185.75L4279.1 4186.78L4277.4 4188.11C4273.49 4191.19 4268.81 4196.24 4265.88 4200.53C4265.13 4201.68 4264.4 4202.6 4264.3 4202.6C4264.2 4202.6 4262 4201.78 4259.4 4200.75C4251.13 4197.5 4244.22 4194.79 4242.87 4194.29C4242.14 4194.02 4241.54 4193.69 4241.54 4193.56C4241.54 4193.14 4244.8 4188.13 4246.88 4185.35C4251.11 4179.74 4256.34 4174.38 4261.77 4170.13C4264.88 4167.7 4267.41 4166.02 4267.63 4166.24C4267.73 4166.34 4270.09 4170.55 4272.84 4175.56ZM4370.15 4168.97C4371.58 4170.05 4374.81 4172.76 4376.64 4174.38L4377.89 4175.51L4376.64 4176.84C4375.96 4177.59 4372.26 4181.54 4368.4 4185.65L4361.41 4193.09L4359.39 4191.16C4358.26 4190.11 4357.21 4189.11 4357.03 4188.93C4356.76 4188.71 4357.78 4186.73 4362.62 4178.34C4365.87 4172.68 4368.63 4168.05 4368.75 4168.05C4368.85 4168.05 4369.48 4168.47 4370.15 4168.97ZM4387.61 4186.75C4390.66 4191.01 4394.07 4197.17 4396.12 4202.13C4397.45 4205.36 4398.85 4209.67 4398.63 4209.87C4398.32 4210.17 4375.24 4216.7 4375.09 4216.55C4375.01 4216.48 4374.59 4215.3 4374.13 4213.95C4373.11 4210.87 4371.38 4206.94 4370.08 4204.66L4369.08 4202.93L4377.57 4193.87C4382.25 4188.91 4386.1 4184.83 4386.13 4184.83C4386.18 4184.83 4386.83 4185.7 4387.61 4186.75ZM4322.57 4187.15C4322.73 4187.3 4320.75 4198.85 4320.52 4199.1C4320.4 4199.2 4316.36 4199.12 4316.24 4199C4316.16 4198.92 4314.41 4187.58 4314.41 4187.13C4314.41 4186.83 4314.99 4186.78 4318.42 4186.88C4320.6 4186.93 4322.47 4187.05 4322.57 4187.15ZM4303.14 4194.59C4303.57 4197.55 4303.99 4200.28 4304.07 4200.63C4304.17 4201.2 4304.07 4201.33 4302.92 4201.8L4301.67 4202.33L4298.94 4197.4C4297.43 4194.69 4296.08 4192.21 4295.91 4191.91C4295.66 4191.39 4295.71 4191.31 4296.56 4190.94C4298.69 4190.01 4302.02 4188.88 4302.17 4189.03C4302.27 4189.13 4302.69 4191.64 4303.14 4194.59ZM4337.6 4191.34C4340.15 4192.54 4340.23 4192.59 4339.93 4193.14C4339.58 4193.82 4334.14 4203.18 4334.04 4203.33C4333.92 4203.48 4332.44 4202.83 4332.44 4202.63C4332.44 4202.43 4334.09 4193.31 4334.47 4191.39C4334.62 4190.68 4334.79 4190.08 4334.85 4190.08C4334.92 4190.08 4336.15 4190.63 4337.6 4191.34ZM4287.74 4202.53C4289.09 4204.98 4290.52 4207.54 4290.92 4208.19L4291.62 4209.39L4290.37 4210.87L4289.09 4212.32L4286.54 4211.32C4278.5 4208.21 4276.85 4207.51 4276.85 4207.34C4276.85 4206.61 4284.46 4198.1 4285.11 4198.1C4285.21 4198.1 4286.42 4200.1 4287.74 4202.53ZM4350.8 4204.41C4349.69 4205.56 4347.69 4207.69 4346.31 4209.17C4344.94 4210.64 4343.73 4211.74 4343.61 4211.62C4343.48 4211.49 4343.61 4211.09 4343.88 4210.69C4344.16 4210.32 4345.09 4208.74 4345.96 4207.24C4346.84 4205.71 4348.17 4203.43 4348.92 4202.13L4350.27 4199.8L4351.55 4201.05L4352.82 4202.33L4350.8 4204.41ZM4247.55 4209.24C4253.41 4211.54 4258.44 4213.52 4258.74 4213.62L4259.27 4213.85L4258.67 4215.78C4256.27 4223.59 4255.94 4232.03 4257.72 4240.84C4258.04 4242.52 4258.32 4243.97 4258.32 4244.05C4258.32 4244.1 4252.63 4244.2 4245.67 4244.22C4238.71 4244.27 4233.03 4244.27 4233.03 4244.27C4233.03 4244.25 4232.9 4243.62 4232.78 4242.9C4232.18 4239.77 4231.78 4234.71 4231.78 4230.15C4231.78 4222.01 4232.73 4215.88 4235.21 4207.79C4235.93 4205.46 4236.21 4204.86 4236.51 4204.93C4236.73 4205.01 4241.69 4206.94 4247.55 4209.24ZM4323.8 4206.71C4326.93 4207.54 4330.79 4209.39 4333.42 4211.37C4342.43 4218.18 4345.56 4229.97 4340.96 4239.84C4338.7 4244.67 4335.42 4248.25 4330.61 4251.13C4329.34 4251.89 4325.1 4253.69 4324.6 4253.69C4324.58 4253.69 4324.58 4252.49 4324.6 4251.03L4324.65 4248.35L4325.81 4247.75C4330.61 4245.32 4334.19 4240.89 4335.75 4235.48C4336.47 4232.93 4336.52 4227.9 4335.85 4225.39C4334.09 4218.81 4329.04 4213.55 4322.42 4211.42C4320.5 4210.82 4319.95 4210.74 4316.67 4210.74C4313.59 4210.77 4312.76 4210.84 4311.16 4211.34C4305.45 4213.12 4300.76 4217.28 4298.56 4222.54C4297.41 4225.27 4297.06 4227.07 4297.03 4230.28C4297.03 4234.51 4297.91 4237.61 4300.11 4240.99C4302.74 4245 4306.75 4247.95 4311.53 4249.38L4312.28 4249.61L4312.36 4252.01C4312.38 4253.36 4312.33 4254.44 4312.21 4254.44C4312.08 4254.44 4310.86 4254.16 4309.5 4253.81C4304.27 4252.49 4298.89 4249.08 4295.63 4245.02C4292.17 4240.72 4290.65 4236.64 4290.45 4231.25C4290.22 4225.94 4291.27 4222.09 4294.1 4217.7C4297.93 4211.77 4304.27 4207.64 4311.61 4206.24C4314.69 4205.66 4320.65 4205.89 4323.8 4206.71ZM4360.94 4215.73C4361.36 4216.83 4361.86 4218.33 4362.06 4219.03L4362.44 4220.33L4356.18 4222.11C4352.72 4223.11 4349.84 4223.86 4349.79 4223.79C4349.62 4223.61 4350.8 4222.29 4355.6 4217.18C4359.01 4213.57 4359.66 4212.97 4359.91 4213.3C4360.09 4213.52 4360.54 4214.6 4360.94 4215.73ZM4277.05 4220.73C4280.03 4221.91 4282.78 4222.96 4283.13 4223.11L4283.79 4223.34L4283.46 4225.19C4282.98 4227.77 4283.01 4233.08 4283.49 4235.61C4283.91 4237.79 4285.06 4241.37 4285.89 4242.97L4286.37 4243.92H4279.25C4275.32 4243.92 4272.07 4243.82 4271.99 4243.7C4271.67 4243.2 4270.36 4237.64 4270.09 4235.68C4269.74 4233.05 4269.74 4227.37 4270.09 4224.89C4270.39 4222.81 4271.32 4218.63 4271.49 4218.63C4271.54 4218.63 4274.04 4219.58 4277.05 4220.73ZM4401.43 4224.19C4401.78 4228.95 4401.55 4236.91 4400.95 4240.84C4400.73 4242.27 4400.55 4243.52 4400.55 4243.67C4400.55 4243.85 4396.17 4243.92 4387.76 4243.92C4375.71 4243.92 4374.99 4243.9 4375.11 4243.47C4375.94 4240.77 4376.76 4234.83 4376.76 4231.43V4228.97L4388.61 4225.57C4395.09 4223.69 4400.6 4222.16 4400.85 4222.16C4401.18 4222.14 4401.28 4222.49 4401.43 4224.19ZM4363.14 4236.81C4362.92 4238.01 4362.44 4240.09 4362.06 4241.47L4361.39 4243.92H4354.2H4347.02L4347.99 4241.72C4348.52 4240.52 4349.09 4238.94 4349.27 4238.19C4349.42 4237.44 4349.72 4236.79 4349.94 4236.71C4350.17 4236.61 4353.28 4235.68 4356.86 4234.66L4363.37 4232.78L4363.44 4233.68C4363.49 4234.18 4363.34 4235.58 4363.14 4236.81Z" fill="#52575d"/>
<path d="M4591.32 2583.06C4588.07 2583.42 4585.64 2583.89 4584.99 2584.3C4583.23 2585.38 4581.49 2588.15 4580.73 2591.06C4579.92 2594.13 4580.34 2597.21 4582.22 2601.9C4584.83 2608.41 4585.46 2611.25 4585.28 2615.6C4585.15 2618.44 4584.69 2620.72 4583.75 2623.31L4583.27 2624.62H4581.76C4578.86 2624.62 4570.02 2623.97 4553.91 2622.59C4545.32 2621.85 4536.76 2621.17 4530.7 2620.74C4528.13 2620.56 4522.09 2620.45 4514.24 2620.45C4500.95 2620.45 4498.54 2620.58 4489.34 2621.82C4475.77 2623.63 4472.21 2624.55 4465 2628.04C4461.98 2629.51 4461.6 2629.78 4459.91 2631.47C4457.79 2633.61 4457.02 2635.01 4457 2636.74C4457 2637.8 4457.09 2638.03 4457.63 2638.5C4458.17 2638.95 4458.51 2639.04 4459.79 2639.04C4461.06 2639.04 4462.07 2638.82 4465.25 2637.78C4467.41 2637.1 4470.18 2636.29 4471.42 2636C4473.43 2635.53 4474.96 2635.23 4482.11 2633.95C4483.14 2633.77 4484.02 2633.66 4484.07 2633.7C4484.11 2633.75 4480.06 2637.94 4475.05 2643.03C4470.05 2648.1 4465.77 2652.61 4465.56 2653.02C4465.02 2654.05 4465.2 2655.7 4465.97 2656.71C4467.19 2658.27 4469.94 2658.94 4471.42 2658C4471.81 2657.77 4475.44 2654.32 4479.49 2650.36C4491.05 2639.06 4495.29 2635.37 4497.68 2634.56C4499.53 2633.95 4500.47 2633.95 4501.08 2634.56C4501.76 2635.23 4501.53 2636.52 4500.36 2638.86C4498.31 2642.92 4494.97 2647.7 4488.26 2656.13C4486.25 2658.65 4484.36 2661.13 4484.04 2661.65C4483.21 2663.09 4483.12 2664.19 4483.75 2665.41C4484.72 2667.28 4486.82 2668.09 4488.8 2667.33C4489.95 2666.9 4489.86 2667.01 4495.22 2658.65C4503.76 2645.29 4509.38 2638.91 4513 2638.43C4514.06 2638.28 4514.36 2638.52 4514.36 2639.54C4514.36 2641.18 4511.74 2646.8 4507.03 2655.16C4502.64 2662.93 4502.19 2663.88 4502.19 2665.28C4502.19 2666.79 4502.82 2667.8 4504.21 2668.5C4506.04 2669.42 4508.18 2669.04 4509.26 2667.57C4509.56 2667.19 4511.45 2663.68 4513.46 2659.78C4517.65 2651.69 4521.28 2644.9 4522.42 2643.1C4524.02 2640.53 4525.53 2639.43 4526.68 2639.99C4527.61 2640.44 4528.19 2641.84 4528.28 2643.78L4528.37 2645.47L4524.12 2654.05C4521.77 2658.78 4519.65 2663.22 4519.45 2663.95C4518.66 2666.45 4519.43 2668.48 4521.59 2669.56C4523.71 2670.59 4526.35 2670.21 4527.65 2668.66C4527.97 2668.27 4529.48 2665.34 4531.03 2662.14C4536.87 2649.97 4539.76 2644.38 4540.84 2643.14C4542.19 2641.61 4543.63 2640.78 4544.94 2640.76C4545.8 2640.73 4546.04 2640.85 4546.58 2641.45C4548.21 2643.28 4547.55 2647 4543.63 2657.75C4540.45 2666.56 4540.07 2667.73 4540.05 2668.84C4540.05 2670.71 4540.77 2671.88 4542.42 2672.65C4544.4 2673.55 4546.81 2672.89 4547.8 2671.2C4549.02 2669.15 4554.99 2654.77 4556.64 2650.04C4557.92 2646.32 4558.8 2644.63 4560.13 2643.28C4561.21 2642.2 4562.27 2641.79 4563.35 2642.06C4564.19 2642.27 4565.27 2643.55 4565.63 2644.77C4566.33 2647.11 4566.1 2648.21 4563.49 2654.93C4559.84 2664.33 4557.11 2673.34 4557.11 2676.12C4557.09 2679.43 4560.02 2681.41 4562.95 2680.08C4564.01 2679.59 4564.7 2678.75 4565.74 2676.7C4567.66 2672.87 4569.23 2668.79 4572.21 2660.11C4576.58 2647.27 4578.34 2644 4580.8 2644C4581.67 2644 4582.28 2644.86 4582.62 2646.59C4582.85 2647.74 4584 2670.14 4584.02 2673.86C4584.04 2674.97 4583.95 2676.14 4583.82 2676.45C4583.54 2677.13 4582.55 2678.08 4580.73 2679.41C4578.7 2680.87 4574.46 2684.27 4567.43 2690.07C4545.43 2708.23 4544.02 2709.36 4542.19 2710.26C4539.82 2711.43 4537.73 2711.79 4535.54 2711.41C4534.66 2711.25 4533.63 2710.89 4533.22 2710.62C4532.81 2710.33 4530.22 2708.21 4527.45 2705.89C4521.7 2701.02 4520.58 2700.23 4518.98 2699.87C4517.94 2699.64 4517.69 2699.67 4516.77 2700.07C4515.35 2700.7 4514.74 2701.9 4514.74 2704.02C4514.74 2705.32 4514.85 2705.77 4515.51 2707.06C4516.2 2708.46 4516.48 2708.73 4519.09 2710.66C4524.23 2714.5 4525.87 2716.25 4525.92 2718.01C4525.96 2719.72 4524.07 2721.3 4518.19 2724.46C4511.25 2728.18 4510.32 2728.81 4509.71 2730.25C4509.53 2730.66 4509.4 2731.31 4509.4 2731.71C4509.4 2732.59 4510.12 2734.26 4510.82 2735.03C4511.47 2735.73 4513.39 2736.63 4514.27 2736.63C4514.72 2736.63 4517.44 2735.41 4522 2733.16C4529.79 2729.3 4532.36 2728.24 4534.12 2728.22C4535.54 2728.18 4536.22 2728.72 4536.67 2730.16C4537.07 2731.53 4536.98 2736.54 4536.44 2742.71C4536.17 2745.62 4536.04 2748.44 4536.1 2748.96C4536.26 2750.1 4537.14 2751.21 4538.18 2751.64C4539.06 2752.02 4540.72 2752.04 4541.94 2751.7C4543.09 2751.39 4544.71 2749.86 4545.01 2748.82C4545.12 2748.37 4545.32 2745.53 4545.46 2742.49C4545.84 2733.68 4546.49 2728.9 4547.98 2724.25C4548.73 2721.89 4549.49 2720.24 4550.37 2719.09C4551.23 2717.97 4555.64 2714.43 4565.54 2706.97C4577.69 2697.82 4582.49 2693.83 4585.57 2690.34C4587.17 2688.53 4587.17 2688.49 4586.47 2693.02C4584.67 2704.94 4581.72 2713.84 4572.95 2733.81C4571.38 2737.39 4570.02 2740.73 4569.96 2741.2C4569.68 2742.98 4570.86 2745.12 4572.57 2746.03C4573.36 2746.43 4571.17 2746.3 4611.04 2748.14L4621.75 2748.64L4622.87 2748.1C4624.43 2747.31 4625.31 2746.05 4625.42 2744.36C4625.49 2743.14 4625.33 2742.62 4623.21 2737.08C4615.71 2717.56 4612.96 2709.83 4606.87 2691.15C4606.47 2689.89 4606.19 2688.85 4606.31 2688.85C4606.96 2688.85 4623.07 2702.01 4640.68 2716.93C4646.99 2722.27 4647.39 2722.65 4647.87 2723.83C4648.68 2725.74 4648.52 2726.19 4644.64 2734.28C4642.5 2738.72 4642.21 2739.65 4642.46 2741C4643.07 2744.18 4648.25 2745.33 4650.48 2742.78C4650.89 2742.33 4652.31 2739.71 4653.63 2736.99C4656.68 2730.72 4657.22 2730.05 4658.59 2730.77C4659.22 2731.11 4661.48 2734.62 4665.02 2740.8C4671.39 2751.88 4671.89 2752.63 4673.49 2753.12C4676.1 2753.89 4679.33 2751.07 4679.33 2747.99C4679.33 2746.57 4676.69 2742.1 4671.89 2735.39C4668.64 2730.84 4667.9 2728.92 4669.03 2727.91C4670.04 2726.96 4671.03 2726.82 4676.74 2726.82C4681.9 2726.82 4682.19 2726.8 4683.09 2726.33C4685.75 2724.91 4686.18 2721.44 4683.99 2719.23C4682.57 2717.83 4682.5 2717.81 4673.69 2717.81C4664.57 2717.81 4664.02 2717.74 4660.51 2716.01C4658.8 2715.17 4655.14 2712.4 4636.73 2697.98C4624.77 2688.6 4614.49 2680.51 4613.9 2680.01C4610.93 2677.54 4608.27 2673.37 4607.52 2670.03C4607.07 2668.05 4606.85 2656.44 4607.16 2650.42C4607.32 2647.09 4607.43 2646.19 4607.84 2645.31C4608.65 2643.48 4609.89 2643.66 4611.24 2645.78C4612.66 2647.97 4613.11 2650 4613.63 2656.06C4614.04 2660.81 4614.31 2663.09 4614.87 2666.31C4615.91 2672.19 4616.58 2673.61 4618.75 2674.54C4620.3 2675.17 4622.15 2674.81 4623.35 2673.59C4624.65 2672.31 4624.65 2672.15 4624.02 2661.78C4623.71 2656.62 4623.44 2651.75 4623.44 2650.96C4623.44 2647.18 4625.17 2644.68 4627.78 2644.68C4630.62 2644.68 4632.86 2647.43 4633.67 2651.91C4633.87 2652.95 4634.59 2657.91 4635.27 2662.93C4635.97 2667.93 4636.69 2672.4 4636.87 2672.85C4638.24 2676.12 4642.86 2676.43 4645.45 2673.43C4646.76 2671.88 4646.76 2671.95 4646.08 2660.43C4645.41 2648.87 4645.41 2646.05 4646.13 2644.43C4646.83 2642.87 4647.37 2642.42 4648.52 2642.42C4650.25 2642.42 4652.1 2644.16 4653.41 2647.04C4654.2 2648.8 4654.02 2647.85 4656.47 2661.78C4657.65 2668.43 4658.71 2674.15 4658.82 2674.54C4659.74 2677.22 4663.12 2677.96 4665.85 2676.07C4667.11 2675.21 4667.83 2673.88 4667.83 2672.44C4667.83 2671.79 4667.07 2666.13 4666.12 2659.82C4664.29 2647.7 4664.07 2645.01 4664.72 2643.5C4665.4 2641.95 4666.62 2641.86 4667.86 2643.28C4668.94 2644.52 4669.5 2646.01 4670.88 2651.37C4674.66 2666.06 4675.34 2668.52 4675.79 2669.31C4676.71 2670.95 4678.49 2671.5 4680.18 2670.62C4681.67 2669.85 4682.48 2668.52 4682.48 2666.85C4682.48 2666.27 4681.58 2661.47 4680.45 2656.17C4679.35 2650.87 4678.43 2646.07 4678.43 2645.49C4678.43 2643.41 4679.76 2641.75 4681.51 2641.59C4682.82 2641.48 4683.72 2641.97 4684.71 2643.32C4685.57 2644.52 4685.95 2645.56 4689.15 2655.38C4691.56 2662.84 4691.83 2663.56 4692.6 2664.31C4693.07 2664.78 4693.82 2665.25 4694.34 2665.39C4696.36 2665.93 4699.05 2664.33 4699.63 2662.21C4699.93 2661.13 4699.77 2660.38 4697.22 2651.33C4695.76 2646.1 4695.53 2644.29 4696.18 2643.1C4696.84 2641.93 4697.99 2641.57 4699.63 2642.06C4701.26 2642.51 4703.35 2644.07 4704.68 2645.74C4706.03 2647.45 4708.35 2652.18 4710.88 2658.42C4713.11 2663.92 4713.67 2664.98 4714.78 2665.64C4716.29 2666.56 4718.77 2665.95 4720.1 2664.35C4720.86 2663.43 4721.31 2661.85 4721.11 2660.95C4720.79 2659.71 4718.2 2653.89 4715.84 2649.12C4714.48 2646.43 4713.43 2644.23 4713.49 2644.23C4713.76 2644.23 4717.55 2646.5 4720.55 2648.46C4725.35 2651.57 4728.48 2654.01 4735.67 2660.2C4738.1 2662.3 4739.3 2662.93 4740.83 2662.93C4742.66 2662.91 4744.66 2661.31 4745.16 2659.44C4745.7 2657.43 4745.09 2656.17 4741.57 2652.2C4736.84 2646.91 4729.79 2641.79 4723.03 2638.77C4719.44 2637.17 4716.11 2636.11 4709.41 2634.44C4682.59 2627.73 4656.32 2623.72 4631.62 2622.57C4626.18 2622.32 4611.83 2622.41 4606.74 2622.73L4604.59 2622.86L4604.3 2617.05C4603.76 2606.54 4603.67 2602.49 4604.01 2602.35C4604.41 2602.19 4608.02 2602.44 4615.1 2603.12C4630.02 2604.52 4631.75 2604.58 4633.08 2603.91C4635.04 2602.89 4636.73 2600.23 4636.73 2598.14C4636.73 2596.22 4636.37 2595.88 4631.98 2593.56C4621.43 2588.04 4612.3 2584.84 4603.06 2583.47C4600.83 2583.13 4593.12 2582.88 4591.32 2583.06Z" fill="#52575d"/>
</svg>
