<?xml version="1.0" standalone="no"?>
<!DOCTYPE svg PUBLIC "-//W3C//DTD SVG 20010904//EN"
 "http://www.w3.org/TR/2001/REC-SVG-20010904/DTD/svg10.dtd">
<svg version="1.0" xmlns="http://www.w3.org/2000/svg"
 width="1280.000000pt" height="919.000000pt" viewBox="0 0 1280.000000 919.000000"
 preserveAspectRatio="xMidYMid meet">
<metadata>
Created by potrace 1.15, written by Peter Selinger 2001-2017
</metadata>
<g transform="translate(0.000000,919.000000) scale(0.100000,-0.100000)"
fill="#000000" stroke="none">
<path d="M11590 9184 c-14 -3 -65 -13 -115 -24 -49 -10 -128 -21 -175 -25 -47
-3 -100 -11 -117 -16 -18 -6 -79 -47 -135 -91 -57 -44 -128 -93 -159 -109 -31
-15 -87 -53 -125 -84 -38 -31 -90 -72 -116 -92 -27 -19 -48 -41 -48 -48 0 -7
-20 -37 -45 -66 -61 -71 -88 -144 -89 -239 -1 -64 3 -82 26 -121 33 -56 127
-144 205 -194 32 -20 105 -66 163 -102 58 -36 151 -88 207 -115 120 -58 133
-76 113 -157 -6 -27 -19 -56 -29 -65 -9 -9 -51 -22 -93 -30 -42 -8 -89 -21
-105 -29 -15 -8 -65 -25 -110 -37 -53 -14 -89 -30 -104 -46 -12 -13 -28 -24
-34 -24 -6 0 -37 -19 -68 -42 -31 -24 -68 -51 -82 -61 -30 -21 -86 -130 -140
-271 -21 -55 -61 -134 -90 -176 -28 -42 -63 -100 -78 -130 -15 -30 -40 -79
-57 -109 -16 -30 -30 -64 -30 -75 0 -12 -21 -47 -46 -77 -26 -29 -56 -74 -66
-99 -11 -25 -45 -81 -77 -125 -32 -44 -71 -100 -86 -125 -33 -52 -245 -452
-290 -547 -5 -11 -18 -34 -28 -52 -9 -17 -20 -52 -24 -78 -4 -31 -14 -54 -28
-64 -11 -10 -30 -33 -40 -53 -11 -20 -26 -35 -33 -34 -8 2 -39 59 -69 128 -76
174 -93 223 -93 273 0 43 -3 48 -122 168 -68 69 -149 160 -182 202 -33 45 -70
82 -85 88 -51 18 -75 35 -165 113 -248 216 -603 453 -836 557 -220 98 -368
141 -649 189 -221 38 -399 50 -566 39 -144 -9 -153 -11 -350 -56 -82 -19 -195
-43 -250 -53 -55 -11 -143 -28 -195 -39 -53 -12 -133 -21 -181 -21 -89 0 -128
-9 -242 -57 -51 -21 -94 -52 -177 -126 -106 -95 -246 -185 -312 -201 -16 -3
-49 -20 -75 -36 -26 -17 -52 -30 -59 -30 -6 0 -17 -7 -24 -15 -6 -7 -35 -27
-63 -44 -29 -16 -122 -91 -207 -166 -85 -75 -166 -142 -180 -148 -13 -7 -34
-22 -47 -34 -13 -14 -34 -23 -53 -23 -18 0 -62 -13 -98 -29 -114 -50 -201 -70
-367 -86 -88 -8 -241 -27 -340 -42 -133 -19 -223 -26 -345 -27 -200 -1 -216 4
-361 110 -56 41 -129 91 -161 110 -54 33 -58 38 -58 73 l0 38 -65 6 c-36 4
-93 18 -128 33 -34 14 -84 32 -111 40 -27 7 -70 27 -96 44 -44 29 -68 42 -197
110 -107 57 -279 64 -408 16 -38 -14 -104 -33 -145 -42 -41 -9 -127 -40 -191
-69 -63 -30 -140 -63 -169 -75 -29 -12 -70 -34 -89 -49 -20 -15 -65 -45 -100
-66 -94 -56 -477 -449 -632 -649 -78 -100 -134 -194 -144 -246 -4 -19 -15 -40
-24 -47 -12 -10 -13 -14 -3 -21 9 -7 7 -17 -10 -48 -12 -22 -19 -47 -16 -55 4
-10 32 -20 77 -28 63 -11 74 -11 96 3 21 14 25 25 25 61 0 43 1 45 24 39 27
-6 32 -1 61 70 13 33 30 55 50 66 17 9 35 27 42 40 17 35 113 146 197 229 92
91 99 84 66 -63 -44 -197 -59 -282 -70 -396 -6 -63 -16 -137 -22 -164 -9 -43
-9 -51 7 -62 16 -12 16 -14 -8 -25 -48 -22 -51 -51 -48 -479 7 -1079 55 -2038
105 -2114 7 -12 17 -36 20 -54 4 -17 12 -32 16 -32 5 0 21 -20 36 -45 92 -158
202 -83 221 152 4 48 2 82 -7 103 -10 24 -10 33 1 46 7 8 16 40 20 70 4 30 21
80 37 112 41 80 49 109 72 259 11 73 26 149 35 169 8 20 15 47 15 61 0 13 11
45 24 71 54 106 109 340 86 367 -17 20 8 92 54 153 47 64 163 175 179 169 9
-3 12 -100 12 -438 0 -581 13 -671 107 -774 l51 -56 29 28 c41 39 46 50 67
156 10 51 33 129 51 172 17 44 29 87 27 97 -3 10 3 44 13 76 10 32 30 158 44
281 14 122 32 237 40 254 8 18 16 48 19 68 7 45 62 180 88 213 l19 24 58 -18
c228 -71 352 -130 470 -225 126 -101 205 -157 281 -196 l65 -34 210 0 c132 -1
232 -6 268 -14 53 -11 65 -10 175 18 65 16 168 40 228 51 137 27 175 38 300
88 55 21 125 47 155 57 96 31 142 60 260 165 63 57 129 109 147 116 42 18 101
18 136 -1 26 -13 32 -13 77 10 92 47 97 41 145 -155 15 -63 36 -137 47 -164
16 -43 18 -58 9 -120 -6 -39 -16 -142 -21 -228 -14 -204 -44 -384 -91 -557
-36 -129 -39 -221 -9 -251 25 -25 68 -43 86 -36 25 10 93 108 100 144 3 20 15
46 25 57 46 51 77 154 119 403 32 183 36 256 20 312 -16 52 -13 155 5 240 9
41 20 158 25 259 7 139 13 189 25 207 20 31 32 24 46 -29 6 -23 33 -99 60
-169 62 -162 103 -306 123 -433 20 -127 28 -154 66 -222 17 -30 40 -85 51
-121 30 -98 132 -299 185 -362 25 -30 52 -67 59 -82 21 -37 130 -118 161 -118
28 0 84 49 84 73 0 8 -9 46 -21 83 -16 52 -32 80 -64 114 -80 83 -171 272
-204 423 -10 47 -33 126 -51 176 l-33 92 22 23 c15 16 26 46 33 92 6 38 21
107 34 154 25 88 35 190 53 553 9 162 13 194 32 232 l22 45 -21 113 c-28 142
-29 291 -3 418 10 52 22 123 25 159 4 36 16 104 27 152 10 48 19 103 19 122 0
19 4 37 9 40 4 3 11 24 15 46 5 30 12 43 30 50 13 4 36 30 51 57 71 121 207
264 307 321 71 41 180 82 217 82 19 0 44 13 71 35 41 34 62 40 135 35 17 -1
38 -9 47 -17 26 -23 102 -10 146 25 68 55 94 66 147 65 63 -1 260 -61 387
-119 53 -24 116 -46 140 -50 79 -12 155 -67 188 -137 26 -54 80 -107 147 -141
120 -61 190 -145 263 -317 22 -49 54 -110 72 -133 97 -126 255 -303 435 -488
112 -115 203 -213 203 -219 0 -6 -11 -25 -25 -44 -30 -38 -79 -173 -99 -271
-8 -38 -42 -177 -75 -309 -33 -132 -68 -296 -77 -364 -9 -69 -22 -142 -30
-164 -8 -21 -11 -50 -8 -63 4 -16 -3 -41 -20 -74 -46 -87 -57 -151 -63 -350
-6 -199 8 -383 31 -428 18 -34 62 -75 103 -96 35 -17 118 -21 155 -7 41 16
182 146 208 192 14 25 42 67 63 93 20 27 37 54 37 61 0 7 11 20 25 29 15 10
25 26 25 41 0 13 4 26 9 30 5 3 17 28 26 56 10 28 35 82 56 118 21 37 56 121
78 187 21 65 53 149 69 185 17 36 40 113 52 169 11 57 29 132 40 168 11 35 20
83 20 106 0 22 12 88 25 146 14 58 30 161 35 229 6 68 16 133 22 144 12 23 4
127 -12 157 -6 11 -26 27 -46 35 -19 8 -37 21 -40 30 -9 22 53 144 171 340 53
88 109 185 125 215 94 188 212 403 248 454 23 32 50 82 61 111 18 48 46 96
158 269 21 33 47 78 58 101 30 60 126 186 139 182 16 -5 20 -242 6 -340 -12
-86 -34 -144 -74 -196 -37 -49 -60 -126 -60 -206 -1 -53 2 -70 13 -70 33 0 40
-117 16 -255 -9 -47 -24 -220 -35 -385 -11 -170 -26 -325 -35 -358 -8 -32 -39
-116 -69 -185 -30 -70 -66 -158 -81 -197 -14 -38 -37 -89 -50 -113 -13 -24
-27 -60 -31 -80 -14 -80 -97 -255 -150 -317 -80 -95 -121 -156 -162 -241 l-37
-79 0 -170 c1 -98 6 -195 14 -230 17 -79 114 -330 150 -387 59 -93 59 -98 20
-348 -30 -195 -32 -479 -4 -625 13 -74 19 -149 19 -290 1 -177 0 -193 -21
-231 -52 -96 -123 -400 -123 -522 0 -74 24 -270 44 -369 19 -90 45 -133 101
-168 41 -25 59 -30 109 -29 52 0 74 7 152 47 102 51 151 99 159 157 3 19 16
55 29 80 30 56 71 192 87 285 7 39 17 75 24 80 6 6 12 33 12 60 0 28 5 79 10
115 7 44 8 119 1 237 -10 161 -9 175 10 235 12 34 26 98 31 140 6 42 15 98 21
124 17 76 39 379 46 624 l5 225 57 113 c31 61 59 112 64 112 12 0 81 -98 126
-181 23 -41 51 -84 62 -94 11 -10 20 -29 20 -41 0 -13 11 -53 25 -89 30 -81
41 -140 60 -332 13 -134 20 -163 50 -232 55 -126 50 -146 -69 -281 -40 -45
-81 -105 -102 -150 -20 -41 -55 -115 -79 -165 -56 -115 -75 -183 -75 -262 0
-61 1 -64 32 -83 43 -26 153 -50 228 -50 55 0 65 3 91 29 16 16 44 39 63 51
19 11 79 67 133 124 54 56 117 114 139 129 124 78 234 309 269 562 9 66 25
140 36 164 24 54 51 158 78 304 12 59 21 109 21 111 0 2 -14 21 -31 42 -51 65
-67 106 -88 230 l-20 119 -50 45 c-27 25 -66 68 -86 95 -21 28 -51 66 -67 85
-16 19 -48 64 -72 100 -23 36 -59 89 -79 119 -21 29 -42 73 -48 97 -6 24 -28
66 -49 95 -49 65 -57 124 -43 349 10 162 11 166 48 240 21 41 51 95 68 119 58
84 84 180 123 446 30 210 37 236 81 310 36 62 70 158 97 279 9 38 18 71 21 74
2 3 32 -3 66 -13 107 -29 171 -7 290 100 56 50 86 69 137 85 80 26 158 65 276
138 124 77 170 121 211 206 57 117 77 210 78 366 1 126 -1 140 -27 205 -15 39
-32 95 -36 125 -11 72 -63 222 -90 260 -11 16 -31 60 -44 97 -13 38 -55 141
-95 231 -39 90 -90 212 -112 270 -80 210 -102 247 -213 358 -55 55 -115 117
-131 137 -37 43 -74 54 -126 37 -21 -7 -42 -11 -45 -8 -10 11 24 129 43 151
11 12 40 55 63 96 50 86 180 224 232 246 44 18 99 74 132 135 43 80 60 163 60
305 1 146 5 135 -102 314 -64 108 -152 208 -191 217 -14 4 -38 17 -52 30 -14
14 -72 40 -130 60 -88 31 -120 36 -209 39 -58 2 -116 1 -130 -1z m388 -2731
c6 -10 13 -37 17 -60 3 -23 13 -47 21 -54 8 -6 14 -21 14 -34 0 -38 21 -87 71
-165 62 -97 69 -118 69 -196 0 -86 -18 -129 -59 -137 -17 -4 -74 -26 -128 -51
-126 -58 -145 -62 -168 -40 -23 23 -15 103 25 269 16 66 38 174 50 240 31 182
49 245 70 245 5 0 13 -8 18 -17z m-2503 -2110 c-7 -116 -16 -216 -19 -221 -3
-5 -19 -87 -36 -183 -38 -217 -53 -275 -95 -369 -18 -41 -42 -111 -54 -154
-12 -44 -42 -116 -66 -160 -24 -45 -60 -124 -81 -176 -39 -97 -57 -122 -231
-309 l-59 -65 -32 64 c-31 61 -32 68 -32 184 1 151 9 217 55 431 45 215 174
744 187 768 5 10 20 22 34 27 33 13 111 13 119 0 9 -14 68 -13 101 2 16 7 34
29 44 53 10 22 47 89 83 148 36 60 71 124 77 144 7 19 14 33 15 31 2 -2 -2
-99 -10 -215z"/>
<path d="M3603 3141 c-59 -15 -161 -97 -492 -395 -51 -47 -121 -99 -155 -117
-33 -17 -109 -60 -167 -95 -59 -35 -111 -64 -115 -64 -4 0 -22 -13 -39 -29
-31 -31 -208 -137 -330 -199 -94 -47 -197 -79 -319 -98 -56 -8 -135 -26 -176
-39 -41 -14 -120 -34 -175 -45 -237 -48 -370 -114 -570 -283 -132 -111 -151
-138 -160 -220 -8 -70 9 -331 25 -392 6 -22 15 -175 20 -340 12 -357 14 -376
46 -415 28 -33 60 -38 125 -20 48 13 67 37 78 95 7 36 17 54 40 72 17 14 31
31 31 39 0 26 71 160 106 199 19 21 34 43 34 49 0 6 16 31 35 55 32 40 35 49
29 87 -5 37 -3 44 17 54 13 7 34 22 47 34 24 21 24 21 38 1 8 -11 48 -85 89
-165 107 -209 157 -277 230 -317 33 -18 66 -33 73 -33 20 0 73 91 66 114 -10
31 -79 140 -140 221 -43 57 -57 86 -68 136 -8 35 -23 92 -35 126 -11 34 -21
66 -21 71 0 5 91 12 203 16 111 3 243 13 292 21 50 8 110 15 134 15 46 0 58 9
263 212 32 32 67 62 77 68 30 15 59 12 65 -7 3 -10 13 -115 21 -233 17 -241
28 -316 55 -377 29 -66 79 -81 134 -39 17 13 54 35 83 50 29 14 57 35 63 45
14 27 13 465 -1 511 -17 55 -24 296 -9 305 21 13 107 -91 151 -184 151 -318
208 -415 278 -469 57 -43 101 -43 143 -1 30 30 31 31 25 109 -3 44 -12 93 -20
110 -9 17 -23 67 -32 111 -9 44 -25 106 -36 136 -10 31 -19 68 -19 82 0 14 -7
45 -15 69 -13 36 -14 64 -5 169 15 184 12 516 -6 673 -8 74 -18 162 -21 196
l-5 60 48 60 c79 96 99 150 72 187 -16 20 -62 28 -105 18z"/>
</g>
</svg>
