<?xml version="1.0" standalone="no"?>
<!DOCTYPE svg PUBLIC "-//W3C//DTD SVG 20010904//EN"
 "http://www.w3.org/TR/2001/REC-SVG-20010904/DTD/svg10.dtd">
<svg version="1.0" xmlns="http://www.w3.org/2000/svg"
 width="1233.000000pt" height="1280.000000pt" viewBox="0 0 1233.000000 1280.000000"
 preserveAspectRatio="xMidYMid meet">
<metadata>
Created by potrace 1.15, written by Peter Selinger 2001-2017
</metadata>
<g transform="translate(0.000000,1280.000000) scale(0.100000,-0.100000)"
fill="#000000" stroke="none">
<path d="M9580 12790 c-308 -13 -535 -37 -628 -64 -44 -13 -142 -38 -218 -55
-149 -34 -194 -48 -194 -62 0 -5 -15 -9 -34 -9 -52 0 -413 -94 -476 -124 -30
-14 -67 -26 -81 -26 -14 0 -34 -7 -45 -15 -11 -8 -42 -15 -74 -15 -65 0 -128
-31 -148 -72 l-13 -27 -40 20 c-48 26 -95 20 -128 -15 -22 -23 -23 -24 -41 -6
-15 15 -26 17 -54 10 -49 -11 -118 -45 -203 -103 -41 -27 -125 -69 -191 -94
-64 -25 -204 -78 -311 -118 -207 -79 -259 -108 -379 -213 -101 -90 -225 -188
-522 -417 -135 -103 -272 -211 -305 -240 -38 -33 -73 -54 -96 -59 -21 -3 -43
-14 -50 -23 -12 -14 -11 -15 10 -8 45 14 12 -13 -36 -29 -95 -32 -353 -220
-353 -257 0 -5 -9 -9 -21 -9 -26 0 -56 -16 -97 -51 -18 -16 -47 -36 -65 -43
-18 -8 -86 -59 -152 -113 -100 -83 -122 -106 -135 -143 -16 -45 -48 -72 -37
-31 3 14 0 21 -9 21 -25 0 -164 -126 -200 -182 -14 -23 -36 -40 -59 -48 -37
-12 -44 -24 -20 -34 24 -9 17 -20 -23 -38 -81 -38 -649 -585 -685 -660 -10
-20 -22 -40 -28 -43 -5 -4 -62 -68 -127 -143 -64 -76 -256 -281 -427 -457
-327 -337 -430 -452 -445 -491 -5 -13 -16 -24 -24 -24 -24 0 -79 -74 -140
-187 -72 -135 -100 -163 -162 -163 -38 0 -47 -4 -51 -20 -5 -20 -7 -20 -31 -4
-14 9 -27 12 -31 6 -3 -5 -28 -11 -54 -14 -30 -4 -57 -14 -71 -27 -12 -11 -30
-21 -40 -21 -10 0 -36 -5 -57 -12 -30 -9 -65 -8 -152 2 -128 14 -294 3 -361
-25 -22 -9 -90 -20 -153 -25 -63 -5 -121 -14 -128 -20 -10 -8 -26 -5 -65 15
-50 25 -52 25 -57 6 -5 -19 -5 -19 -24 0 -13 13 -33 19 -64 19 -68 0 -322 -38
-395 -59 -36 -11 -91 -24 -122 -30 -71 -13 -119 -36 -125 -62 -3 -10 -14 -19
-25 -19 -35 0 -79 -31 -94 -65 -19 -46 -18 -117 2 -163 9 -20 17 -48 18 -61 2
-34 104 -122 193 -167 72 -37 74 -37 127 -25 49 11 58 10 82 -6 21 -13 59 -19
174 -25 125 -6 161 -12 241 -38 128 -42 239 -60 404 -67 166 -6 199 2 189 44
l-7 27 28 -22 c39 -31 134 -30 240 3 44 13 100 27 125 31 25 3 55 12 67 20 31
19 37 18 115 -17 42 -20 68 -38 68 -48 0 -22 44 -115 73 -154 14 -17 53 -84
87 -147 35 -63 87 -150 117 -194 29 -43 53 -83 53 -89 0 -6 28 -51 62 -101 37
-54 76 -126 94 -176 21 -57 39 -88 53 -95 12 -5 21 -18 21 -27 0 -26 108 -232
160 -306 25 -35 60 -86 77 -115 18 -28 86 -113 150 -189 65 -76 126 -152 136
-170 23 -45 22 -124 -3 -173 -11 -22 -27 -67 -36 -100 -8 -33 -31 -83 -50
-111 -19 -28 -34 -55 -34 -62 0 -6 -22 -37 -50 -68 -27 -31 -50 -67 -50 -78 0
-12 -9 -27 -19 -33 -23 -15 -70 -112 -166 -346 -40 -100 -92 -222 -114 -272
-22 -49 -37 -93 -35 -97 3 -4 15 -8 27 -9 l22 0 -22 -11 c-29 -14 -69 -107
-93 -215 -26 -114 -82 -279 -165 -478 -65 -157 -66 -161 -61 -230 5 -60 3 -72
-12 -82 -10 -6 -43 -57 -73 -114 -30 -57 -69 -124 -88 -149 -19 -25 -52 -85
-73 -134 -21 -49 -54 -110 -73 -135 -20 -25 -38 -57 -42 -71 -3 -14 -23 -52
-45 -86 -21 -35 -38 -74 -38 -90 0 -18 -7 -34 -19 -41 -10 -6 -24 -33 -30 -59
-7 -27 -22 -55 -35 -65 -24 -19 -46 -84 -46 -134 0 -73 102 -188 194 -219 78
-27 118 -14 185 60 82 90 140 170 166 229 14 30 29 55 34 55 6 0 24 30 42 68
17 37 47 93 66 125 19 32 39 73 44 92 10 35 10 35 69 35 40 0 62 5 67 14 4 8
17 15 28 17 22 4 61 78 96 181 11 34 34 77 50 95 69 80 219 452 219 546 0 10
15 46 34 80 37 67 93 233 103 304 3 25 12 47 19 50 9 3 14 23 14 57 0 29 6 61
14 72 16 23 123 367 132 426 5 27 3 38 -6 38 -7 0 1 15 17 34 17 19 33 50 36
72 8 49 61 134 84 134 28 0 82 -43 95 -75 18 -46 70 -125 142 -217 83 -104 87
-123 48 -236 -17 -48 -38 -114 -47 -147 -9 -33 -41 -117 -71 -187 -30 -70 -54
-135 -54 -146 0 -10 -9 -27 -21 -38 -12 -10 -39 -50 -61 -89 -23 -38 -61 -103
-85 -142 -23 -40 -43 -83 -43 -96 0 -13 -25 -74 -55 -135 -91 -183 -122 -280
-95 -297 17 -10 11 -23 -8 -18 -27 7 -56 -31 -49 -65 4 -20 1 -31 -13 -39 -10
-7 -29 -45 -43 -85 -49 -142 -66 -184 -101 -251 -20 -38 -36 -78 -36 -91 0
-12 -13 -40 -29 -62 -59 -79 -129 -262 -134 -349 -2 -27 1 -30 25 -27 21 2 25
-1 21 -17 -12 -47 68 -126 150 -149 50 -14 95 0 149 44 41 35 45 36 105 31 49
-4 67 -1 82 12 11 9 33 24 50 33 24 13 34 30 54 95 40 127 101 278 129 320 43
65 116 242 144 347 8 33 45 125 81 205 83 184 107 248 132 349 11 44 31 103
45 130 14 27 27 61 30 74 2 14 14 44 25 66 12 23 21 54 21 70 0 22 5 29 17 28
15 -1 19 10 24 59 4 40 18 86 44 138 20 42 40 77 43 77 2 0 24 -17 46 -38 30
-28 63 -45 117 -61 92 -29 184 -70 272 -123 72 -43 167 -68 317 -82 41 -4 108
-18 150 -31 41 -13 94 -26 118 -30 24 -4 46 -13 49 -21 8 -22 100 -69 213
-109 58 -21 161 -68 230 -105 290 -157 523 -260 583 -260 14 0 27 -6 30 -14
16 -40 445 -124 582 -114 48 3 50 4 47 31 -4 35 7 34 42 -2 23 -24 32 -27 54
-20 15 4 155 13 312 18 157 6 328 16 380 22 56 7 136 8 195 4 55 -4 210 -10
344 -13 l243 -7 34 -39 c76 -88 206 -377 301 -666 40 -124 70 -201 83 -212 11
-9 20 -28 20 -42 0 -14 16 -69 35 -123 19 -54 35 -110 35 -125 0 -18 5 -28 15
-28 8 0 19 -17 26 -42 18 -68 95 -249 185 -436 46 -96 86 -190 90 -210 3 -21
21 -66 38 -102 18 -36 50 -109 71 -163 31 -84 45 -106 87 -145 28 -26 57 -63
65 -82 30 -70 72 -117 125 -144 71 -35 123 -34 179 4 27 18 57 30 77 30 43 0
92 46 92 87 0 15 -7 65 -16 111 -13 66 -15 97 -7 155 8 55 7 84 -3 125 -8 29
-14 64 -14 78 0 13 -6 50 -14 82 -8 31 -19 94 -24 140 -7 62 -15 89 -31 106
-11 12 -21 29 -21 38 0 10 -18 24 -45 34 -28 12 -46 27 -49 40 -3 12 -22 34
-42 49 -80 61 -129 164 -145 305 -13 118 -49 230 -74 230 -7 0 -10 13 -7 33 2
19 -8 64 -26 112 -16 44 -35 105 -42 135 -22 94 -149 470 -176 519 -14 26 -37
55 -52 64 -15 9 -21 17 -14 17 8 0 12 15 12 43 0 24 7 52 15 63 15 18 16 18
45 -15 16 -19 80 -134 141 -255 62 -122 127 -243 145 -271 17 -27 38 -70 45
-94 7 -24 21 -48 31 -55 10 -6 18 -22 18 -36 0 -14 12 -43 25 -65 14 -22 25
-51 25 -63 0 -14 14 -37 32 -54 21 -20 34 -43 38 -71 16 -90 238 -517 270
-517 4 0 10 -18 13 -40 6 -49 53 -131 77 -137 10 -3 20 -17 23 -31 3 -15 31
-60 62 -101 66 -87 136 -204 206 -344 66 -130 127 -227 144 -227 8 0 15 -12
17 -27 6 -57 132 -119 198 -98 11 4 26 18 31 33 28 74 65 513 54 642 -15 172
-77 413 -142 550 -26 55 -54 92 -103 140 -72 71 -128 155 -179 274 -29 65 -38
77 -64 84 -26 7 -35 20 -69 97 -22 50 -50 121 -63 158 -29 81 -102 221 -128
244 -12 11 -32 16 -58 14 -43 -3 -49 7 -19 34 24 22 28 57 5 49 -10 -4 -15 0
-15 13 0 11 -10 40 -23 65 -31 62 -165 235 -185 240 -9 3 -32 36 -51 74 -18
38 -48 90 -66 115 -37 53 -65 103 -65 118 0 6 13 23 30 37 16 15 32 34 35 43
3 9 20 25 37 36 81 47 378 362 378 401 0 8 4 14 10 14 5 0 20 16 32 35 36 55
55 58 219 41 79 -9 160 -20 179 -26 88 -26 636 -40 800 -20 126 16 120 12 120
84 0 139 -53 220 -195 303 -129 75 -346 159 -437 170 -32 4 -48 10 -48 20 0 8
-11 29 -24 46 -14 18 -28 44 -31 60 -4 15 -20 36 -35 47 -29 21 -90 129 -90
161 0 9 7 19 15 23 8 3 12 12 9 20 -3 8 4 24 15 35 13 13 21 34 21 55 0 19 9
45 21 60 13 16 18 33 14 46 -4 11 1 32 11 49 16 27 16 31 0 70 -15 39 -15 43
0 59 23 23 14 97 -32 252 -20 69 -49 170 -64 224 -15 55 -32 102 -38 104 -7 2
-12 19 -12 38 0 19 -4 34 -10 34 -5 0 -14 19 -20 43 -22 88 -110 220 -163 242
-18 7 -65 40 -105 73 -65 53 -123 82 -163 82 -8 0 -26 15 -41 33 -36 46 -415
238 -512 260 -46 11 -73 22 -83 37 -11 15 -22 20 -38 16 -15 -4 -25 -1 -28 8
-13 34 -257 102 -542 151 -284 48 -414 65 -508 65 -53 0 -90 5 -102 14 -11 7
-62 16 -113 19 -120 9 -172 31 -198 83 -15 31 -33 46 -92 77 -45 22 -87 37
-109 37 -20 0 -44 7 -53 15 -13 12 -24 12 -80 1 -122 -26 -190 -29 -285 -12
-68 12 -124 14 -231 9 -132 -6 -144 -5 -220 20 -117 38 -205 51 -282 42 -37
-4 -101 -7 -142 -6 -71 2 -78 0 -114 -28 -23 -18 -55 -33 -83 -37 -25 -4 -157
-1 -292 5 -261 13 -271 12 -640 -40 -64 -10 -94 -10 -127 -1 -59 16 -156 15
-354 -3 -107 -10 -172 -21 -187 -30 -21 -14 -23 -14 -23 4 0 13 -31 46 -87 92
-49 40 -180 165 -293 279 -113 114 -232 228 -264 254 -54 44 -63 48 -100 43
-23 -3 -52 -9 -65 -13 -21 -6 -23 -5 -18 15 4 17 -1 25 -27 39 -18 9 -61 36
-96 59 -34 24 -78 47 -97 52 -19 5 -51 25 -72 44 -50 45 -114 82 -183 106 -96
33 -258 104 -258 114 0 15 130 145 193 194 31 24 57 52 57 61 0 11 19 25 53
40 29 12 88 49 131 82 44 33 85 60 91 60 7 0 28 15 47 33 19 17 69 51 112 75
42 24 80 51 83 60 10 27 25 31 50 15 28 -18 141 -11 208 13 22 8 91 28 153 44
119 31 262 86 262 101 0 5 17 17 39 28 56 29 181 159 252 263 33 49 67 92 75
95 9 3 14 21 14 54 0 29 4 49 11 49 7 0 9 -10 7 -25 -3 -15 -1 -25 6 -25 15 0
346 332 387 388 17 23 36 42 42 42 7 0 36 16 64 35 29 19 58 35 65 35 7 0 19
9 26 20 7 11 23 20 35 20 13 0 46 16 73 35 27 19 54 35 60 35 6 0 62 34 124
75 62 41 203 125 314 187 205 115 269 159 443 306 54 46 115 93 136 103 21 11
52 33 69 50 17 16 39 29 49 29 29 0 122 45 143 69 11 11 27 21 37 21 10 0 23
8 28 19 6 10 25 21 43 25 18 3 89 37 158 75 69 37 135 71 147 75 11 4 33 22
47 41 14 18 36 35 48 37 15 2 22 9 22 21 -1 13 6 17 30 17 46 0 169 36 234 69
70 35 130 49 447 102 138 23 281 49 318 59 54 13 67 14 63 3 -9 -22 18 -15
125 36 105 50 180 77 343 126 62 19 98 35 118 56 25 25 33 27 51 18 28 -15
160 -5 351 27 180 31 448 107 761 218 183 64 399 115 579 137 210 24 251 34
277 68 l21 26 15 -22 c19 -28 62 -30 143 -8 30 8 87 20 125 25 39 6 82 15 98
21 20 8 31 8 40 0 15 -11 43 -5 110 23 23 10 90 20 170 26 165 12 219 19 234
32 8 7 19 5 35 -6 41 -29 104 -11 115 32 17 68 -105 93 -367 75 -85 -6 -160
-17 -182 -26 -30 -13 -36 -13 -31 -2 9 25 -35 26 -337 11 -280 -14 -362 -24
-375 -46 -9 -14 -46 -12 -92 4 -36 13 -42 12 -56 -2 -14 -14 -24 -14 -88 -2
-62 12 -87 12 -193 -3 -66 -10 -231 -29 -366 -43 -135 -13 -288 -34 -340 -45
-135 -29 -249 -46 -370 -54 -58 -4 -170 -20 -250 -35 -157 -31 -307 -50 -394
-50 -64 0 -86 -7 -86 -26 0 -12 -4 -12 -21 -3 -27 14 -109 6 -120 -12 -4 -8
-37 -16 -79 -20 -49 -4 -80 -13 -100 -27 -17 -13 -31 -18 -35 -12 -10 16 -64
12 -132 -10 -34 -10 -85 -22 -114 -26 -31 -4 -58 -15 -69 -27 -14 -14 -27 -18
-51 -15 -66 10 -205 -28 -349 -95 -41 -19 -104 -45 -140 -57 -73 -25 -245
-110 -287 -143 -15 -12 -41 -23 -59 -24 -17 -1 -61 -18 -98 -37 -37 -20 -77
-36 -89 -36 -11 0 -28 -7 -38 -16 -10 -9 -66 -33 -125 -55 -110 -40 -154 -62
-154 -79 0 -5 -6 -7 -14 -4 -16 6 -269 -90 -374 -142 -95 -48 -239 -138 -277
-175 -17 -16 -37 -29 -44 -29 -16 0 -64 -33 -117 -81 -23 -21 -61 -49 -84 -64
-83 -52 -360 -308 -360 -332 0 -7 -13 -19 -29 -27 -36 -19 -535 -535 -556
-576 -9 -17 -13 -35 -10 -40 3 -6 -4 -10 -17 -10 -14 0 -62 -31 -118 -75 -52
-41 -131 -94 -175 -117 -44 -22 -92 -51 -107 -64 -15 -12 -58 -32 -95 -44 -95
-32 -129 -50 -288 -155 -181 -121 -374 -235 -396 -235 -9 0 -22 -7 -29 -15 -7
-8 -27 -15 -44 -15 -19 0 -63 -19 -116 -50 -85 -50 -130 -62 -130 -36 0 8 31
48 68 89 64 70 142 196 142 229 0 8 10 20 22 26 38 17 154 129 187 179 17 25
31 60 31 76 0 27 2 29 30 25 27 -4 30 -2 30 24 0 21 5 28 19 28 36 0 49 11
134 113 80 96 134 147 234 226 24 18 43 41 43 51 0 13 15 26 43 39 39 20 132
81 204 137 18 13 30 30 27 37 -3 8 9 18 30 25 45 17 126 89 126 113 0 13 7 19
23 19 29 0 142 54 154 73 4 8 33 28 63 45 30 17 97 65 149 107 52 41 99 75
106 75 6 0 26 18 43 40 21 25 38 37 47 34 9 -4 18 3 24 18 5 13 26 35 47 49
151 98 195 132 300 228 66 59 129 113 142 120 14 8 21 18 18 27 -3 8 1 17 9
20 8 4 15 15 15 25 0 11 7 19 18 19 28 0 135 55 161 83 16 18 22 34 19 52 -5
21 -2 25 11 19 44 -19 80 1 309 172 92 69 177 127 190 131 17 4 22 11 19 24
-4 15 0 19 25 19 16 0 44 11 62 25 18 14 40 25 49 25 9 0 22 9 29 20 7 11 21
20 30 20 10 0 41 9 69 20 29 12 59 18 66 15 9 -3 17 3 20 15 4 14 11 19 22 15
22 -7 135 48 153 74 19 27 64 33 62 9 -2 -22 9 -23 26 -3 25 31 232 126 294
136 33 6 107 32 165 58 58 27 130 57 160 66 32 10 55 24 58 34 3 12 12 16 31
13 39 -5 140 35 158 64 11 15 26 24 43 24 41 0 203 37 286 65 41 14 84 25 94
25 10 0 42 8 72 19 30 10 92 22 137 26 60 5 89 13 108 28 20 15 49 22 120 28
55 5 166 27 267 53 207 53 246 60 547 86 129 11 282 27 340 35 141 19 455 33
990 45 754 17 832 15 1119 -24 31 -5 32 -4 18 12 -8 9 -13 22 -10 28 6 17 -55
64 -81 64 -13 0 -47 8 -77 18 -30 11 -85 25 -124 31 -38 7 -101 21 -140 32
-92 24 -224 36 -550 49 -247 10 -375 20 -462 36 -27 5 -33 3 -33 -11 0 -13 -3
-15 -13 -6 -8 6 -45 15 -83 21 -90 15 -802 21 -1064 10z"/>
</g>
</svg>
