<?xml version="1.0" standalone="no"?>
<!DOCTYPE svg PUBLIC "-//W3C//DTD SVG 20010904//EN"
 "http://www.w3.org/TR/2001/REC-SVG-20010904/DTD/svg10.dtd">
<svg version="1.0" xmlns="http://www.w3.org/2000/svg"
 width="1280.000000pt" height="1225.000000pt" viewBox="0 0 1280.000000 1225.000000"
 preserveAspectRatio="xMidYMid meet">
<metadata>
Created by potrace 1.15, written by Peter Selinger 2001-2017
</metadata>
<g transform="translate(0.000000,1225.000000) scale(0.100000,-0.100000)"
fill="#000000" stroke="none">
<path d="M8275 12244 c-16 -2 -82 -11 -145 -20 -502 -69 -966 -324 -1183 -651
-150 -226 -155 -408 -20 -798 134 -389 154 -450 174 -547 17 -85 20 -125 16
-228 -13 -291 -122 -599 -403 -1135 -63 -121 -158 -308 -211 -415 -52 -107
-97 -196 -98 -198 -2 -2 -32 -10 -67 -18 -793 -174 -804 -176 -968 -177 -154
-2 -218 12 -340 70 -84 41 -107 58 -201 152 -158 158 -222 289 -249 505 -23
178 -7 342 91 946 27 168 54 357 60 420 31 323 -55 552 -240 643 -62 30 -73
32 -171 32 -83 0 -120 -5 -174 -23 -282 -94 -548 -337 -701 -639 -68 -136 -65
-126 -345 -1148 -281 -1024 -353 -1522 -251 -1730 83 -167 275 -266 549 -281
236 -13 436 20 1090 179 l183 45 -7 -422 c-7 -441 -1 -567 36 -769 13 -71 14
-100 6 -102 -155 -53 -381 -99 -743 -150 -446 -65 -588 -99 -780 -190 -209
-99 -366 -221 -643 -501 -305 -307 -478 -437 -1045 -781 -488 -296 -652 -413
-844 -598 -369 -357 -550 -743 -628 -1340 -25 -191 -24 -702 1 -795 49 -180
186 -353 333 -423 62 -29 76 -32 168 -32 90 0 107 3 165 30 163 75 313 247
453 522 71 139 108 231 222 548 116 326 141 388 209 523 284 567 803 941 1816
1307 l185 67 110 -4 c93 -4 126 -10 213 -40 56 -19 139 -57 183 -84 98 -59
224 -174 285 -260 45 -63 46 -66 40 -122 -8 -74 -23 -567 -36 -1132 -15 -636
-36 -976 -83 -1315 -31 -226 -30 -446 2 -570 69 -266 228 -450 467 -541 423
-160 905 54 1083 480 54 130 68 205 91 481 49 593 186 1229 399 1855 94 278
215 593 365 950 l65 155 33 -1 c18 0 80 -7 138 -15 163 -22 801 -19 1034 5
l178 18 65 -64 c203 -200 303 -468 319 -853 11 -244 -20 -519 -116 -1045 -27
-151 -50 -286 -50 -300 1 -38 33 -101 71 -139 43 -42 150 -94 254 -123 109
-30 413 -33 515 -5 101 27 204 82 240 126 95 121 313 680 400 1028 213 852
115 1526 -294 2015 -253 304 -674 487 -1334 582 -86 12 -156 25 -154 29 2 4
38 80 82 169 43 90 133 298 200 463 183 452 293 649 441 791 163 154 324 224
599 259 245 30 417 77 650 177 590 252 1243 784 1772 1443 461 575 870 1343
970 1823 29 138 31 351 5 457 -71 286 -299 450 -601 432 -394 -23 -793 -305
-1083 -765 -30 -48 -158 -292 -283 -542 -324 -645 -456 -877 -646 -1132 -292
-393 -660 -682 -980 -770 -119 -32 -327 -30 -534 6 -231 41 -375 71 -374 79 1
4 4 49 8 100 58 789 139 1217 289 1509 86 170 229 304 513 480 65 41 172 107
237 147 314 194 453 341 493 519 15 67 15 96 5 256 -33 515 -94 719 -259 866
-171 152 -519 233 -1052 244 -113 3 -218 3 -235 0z"/>
</g>
</svg>
