<?xml version="1.0" standalone="no"?>
<!DOCTYPE svg PUBLIC "-//W3C//DTD SVG 20010904//EN"
 "http://www.w3.org/TR/2001/REC-SVG-20010904/DTD/svg10.dtd">
<svg version="1.0" xmlns="http://www.w3.org/2000/svg"
 width="1280.000000pt" height="1098.000000pt" viewBox="0 0 1280.000000 1098.000000"
 preserveAspectRatio="xMidYMid meet">
<metadata>
Created by potrace 1.15, written by Peter Selinger 2001-2017
</metadata>
<g transform="translate(0.000000,1098.000000) scale(0.100000,-0.100000)"
fill="#000000" stroke="none">
<path d="M3167 10965 c-160 -30 -321 -100 -433 -186 -56 -43 -138 -135 -192
-216 -19 -29 -38 -53 -43 -53 -4 0 -86 34 -182 75 -96 41 -185 75 -199 75 -48
0 -108 -68 -108 -123 0 -47 19 -56 222 -106 109 -27 202 -52 207 -55 6 -4 5
-18 -3 -39 -8 -17 -17 -51 -21 -74 -6 -39 -9 -42 -33 -38 -46 7 -223 24 -329
31 l-101 6 -16 -30 c-19 -36 -21 -113 -4 -130 9 -9 77 -12 245 -12 l233 0 0
-74 c0 -68 -2 -74 -22 -80 -13 -4 -112 -9 -222 -13 -184 -6 -200 -8 -224 -28
-32 -27 -33 -72 -2 -97 20 -16 45 -18 246 -18 l224 0 4 -22 c3 -13 7 -51 10
-86 l4 -63 -222 2 c-123 1 -228 -1 -234 -5 -17 -10 -15 -72 3 -90 20 -20 43
-23 265 -36 102 -6 188 -14 191 -18 4 -4 9 -31 11 -60 5 -52 5 -53 -19 -47
-70 17 -180 24 -240 15 -218 -35 -480 -222 -602 -430 -103 -174 -133 -220
-171 -253 -48 -44 -118 -80 -186 -96 -134 -32 -213 43 -511 486 l-156 231 60
124 c114 236 289 518 434 698 93 116 133 154 225 214 50 32 84 64 110 102 36
52 39 62 39 126 0 68 -1 70 -41 107 -50 48 -130 78 -253 96 -122 19 -175 19
-238 0 -51 -15 -105 -62 -116 -102 -46 -158 -50 -166 -155 -326 -60 -89 -142
-218 -184 -287 -168 -279 -402 -676 -419 -714 -38 -84 -15 -181 75 -314 108
-161 431 -551 622 -751 150 -157 350 -329 399 -342 103 -28 253 18 331 102 46
48 255 308 351 434 69 92 131 151 179 171 72 30 168 9 221 -48 104 -112 195
-620 196 -1088 1 -178 -2 -216 -21 -288 -25 -96 -79 -217 -175 -392 -193 -350
-227 -452 -258 -790 -16 -176 -6 -590 20 -855 11 -110 31 -312 45 -450 46
-458 56 -702 36 -951 -26 -322 -88 -560 -212 -811 -144 -291 -327 -509 -648
-773 -429 -352 -494 -533 -289 -811 92 -125 125 -210 193 -504 54 -236 93
-340 146 -393 134 -133 340 -20 340 188 0 42 -17 142 -47 275 -44 199 -47 218
-47 365 -1 138 2 163 23 225 83 242 209 403 576 733 373 335 504 479 596 655
117 225 140 418 99 820 -34 341 -42 482 -31 606 6 63 14 118 18 121 5 4 51 15
103 25 52 10 122 27 155 36 67 21 60 25 105 -62 99 -192 128 -483 96 -984 -19
-318 -36 -412 -137 -764 -73 -254 -105 -394 -134 -596 -51 -342 -103 -562
-195 -810 -22 -60 -43 -135 -46 -166 -11 -101 38 -178 265 -412 230 -237 407
-336 509 -283 37 19 46 47 40 115 -6 60 -44 142 -146 314 -114 191 -134 242
-140 352 -7 149 40 302 238 780 291 702 393 1001 446 1310 21 127 29 396 15
540 -19 194 -38 307 -121 726 -108 540 -121 639 -127 944 -11 497 34 984 137
1495 21 107 48 251 60 319 52 308 107 454 214 568 81 87 160 125 271 131 72 4
90 1 131 -18 61 -30 149 -117 251 -250 191 -249 435 -433 856 -646 166 -85
283 -132 437 -179 l105 -31 6 -45 c32 -226 43 -260 90 -279 24 -10 33 -10 53
3 49 33 50 45 42 717 -24 2053 -20 1925 -63 1972 -37 41 -111 2 -216 -113 -79
-86 -151 -193 -300 -444 -121 -203 -186 -295 -269 -376 -187 -184 -363 -218
-577 -109 -179 90 -394 307 -573 579 -38 57 -67 110 -64 117 2 6 10 41 17 75
6 35 13 66 15 68 4 5 39 -17 155 -100 62 -44 106 -69 123 -69 35 0 72 40 81
87 11 59 -12 77 -180 147 -122 51 -150 67 -149 82 1 10 5 45 9 76 l6 57 67
-25 c37 -14 109 -44 160 -66 93 -41 94 -41 114 -21 32 33 42 98 21 141 -20 40
-39 48 -208 82 -55 12 -110 23 -123 26 -17 3 -21 10 -18 27 3 12 8 43 11 68
l6 47 172 -5 c167 -5 173 -5 191 16 50 56 2 146 -72 136 -20 -2 -94 -7 -163
-10 l-126 -6 -7 81 c-4 45 -5 84 -2 87 2 3 84 13 181 23 156 15 179 20 201 40
35 34 33 83 -6 121 -18 19 -37 28 -47 25 -10 -2 -52 -7 -93 -11 -41 -4 -117
-13 -168 -22 -52 -8 -97 -11 -102 -7 -4 5 -13 38 -20 74 l-12 64 29 25 c164
140 322 287 326 303 12 46 -33 98 -85 98 -29 0 -118 -66 -266 -198 -46 -41
-84 -72 -86 -71 -1 2 -12 22 -25 43 -116 203 -425 436 -652 491 -93 23 -287
28 -382 10z m402 -265 c166 -47 302 -128 426 -255 131 -133 184 -245 206 -430
13 -110 1 -249 -37 -425 -60 -278 -157 -486 -323 -692 -35 -43 -63 -78 -64
-78 -12 1 -351 91 -354 93 -2 3 3 68 11 145 10 99 21 152 35 181 23 43 117
122 235 196 62 38 76 52 89 88 32 85 40 134 41 227 0 76 -6 111 -27 175 -58
175 -190 360 -288 405 -116 52 -254 7 -376 -124 -94 -101 -135 -185 -141 -291
-5 -92 13 -177 56 -264 23 -46 37 -61 88 -90 106 -62 110 -70 74 -160 -40
-101 -235 -387 -352 -515 l-45 -50 -49 25 c-82 41 -140 139 -164 281 -29 168
-19 712 16 918 35 205 97 348 199 458 98 104 215 165 384 197 101 19 262 13
360 -15z m2431 -2222 c-6 -101 -16 -202 -21 -226 -13 -61 -52 -134 -97 -181
-31 -33 -46 -41 -74 -41 -88 0 -136 47 -124 122 4 22 22 81 40 131 19 51 41
113 51 139 23 67 76 131 158 192 40 30 74 52 76 50 2 -2 -2 -85 -9 -186z m94
-1030 c4 -106 10 -204 13 -217 6 -24 5 -24 -54 -19 -98 9 -174 61 -207 140
-22 52 -20 76 10 136 28 56 77 101 145 132 88 40 85 46 93 -172z"/>
<path d="M9617 10904 c-15 -15 -27 -31 -27 -35 0 -5 15 -39 33 -77 l33 -69
-54 -47 -54 -46 -40 22 c-23 13 -76 53 -118 90 -71 60 -79 65 -101 54 -31 -15
-71 -75 -67 -101 2 -13 29 -36 77 -65 40 -24 91 -60 112 -80 l39 -35 -51 -75
c-35 -50 -57 -74 -68 -72 -9 2 -55 24 -102 48 -77 39 -90 43 -112 33 -35 -16
-62 -74 -51 -108 8 -21 29 -34 109 -67 l100 -41 -4 -49 c-1 -27 -5 -53 -8 -58
-3 -5 -51 -6 -105 -3 -89 5 -102 3 -119 -14 -36 -36 -19 -110 30 -127 17 -6
62 -14 101 -18 l70 -7 0 -63 0 -64 -103 0 c-67 0 -107 -4 -115 -12 -17 -17
-15 -79 4 -106 14 -20 23 -22 118 -22 l103 0 6 -51 c4 -28 4 -70 0 -94 l-5
-43 -77 -6 c-120 -11 -127 -13 -146 -53 -23 -48 -15 -111 19 -140 21 -17 43
-23 126 -28 l100 -8 0 -127 0 -127 -102 -7 c-140 -9 -204 -26 -293 -77 -163
-93 -285 -209 -546 -520 -152 -181 -296 -339 -308 -339 -3 0 -16 23 -29 50
-13 27 -59 104 -103 171 -100 152 -145 241 -164 322 -26 116 -39 311 -40 587
l0 275 26 50 c14 28 43 82 63 121 47 92 57 163 27 193 -26 26 -53 27 -108 0
-54 -26 -117 -96 -306 -339 -466 -601 -599 -768 -784 -983 -123 -143 -144
-187 -123 -253 13 -39 35 -54 80 -54 65 0 113 38 202 160 56 76 86 85 273 84
339 -3 444 -66 600 -364 184 -349 250 -440 320 -440 47 0 92 19 161 71 92 68
127 102 322 323 208 233 302 318 412 373 70 36 81 38 165 38 78 -1 97 -4 142
-28 68 -35 114 -76 152 -136 85 -133 121 -294 156 -717 9 -100 31 -316 50
-480 88 -747 95 -841 95 -1246 0 -441 -26 -649 -114 -913 -58 -174 -110 -290
-299 -670 -184 -370 -233 -481 -292 -660 -125 -376 -125 -696 1 -1155 18 -69
104 -336 189 -595 85 -259 161 -498 167 -533 16 -84 -2 -215 -48 -352 -49
-148 -99 -240 -197 -370 -61 -80 -89 -126 -96 -159 -13 -54 -3 -102 31 -138
40 -43 62 -33 192 95 180 177 229 210 400 273 98 36 165 78 190 120 41 70 10
232 -230 1189 -228 914 -217 865 -217 990 0 90 4 116 28 180 35 95 82 177 186
321 46 63 126 182 179 265 54 83 134 202 180 265 97 134 292 379 301 379 7 0
26 -218 35 -400 7 -140 -8 -412 -32 -582 -29 -211 -20 -321 46 -573 66 -248
270 -805 361 -988 22 -42 81 -152 133 -245 197 -353 231 -471 230 -797 -1
-150 -5 -193 -22 -256 -23 -87 -66 -177 -124 -263 -107 -158 -114 -249 -21
-272 32 -8 128 10 150 28 8 6 54 62 101 122 170 218 271 333 351 401 87 73
137 138 147 190 8 44 -15 95 -80 174 -104 128 -109 151 -112 541 -4 467 -17
510 -289 945 -65 105 -138 228 -162 275 -88 172 -119 330 -110 555 11 247 52
419 231 955 198 594 220 695 220 1030 0 210 -3 260 -32 465 -17 127 -39 300
-47 385 -16 163 -44 348 -100 665 -76 433 -100 694 -85 931 21 337 71 471 207
566 73 50 111 46 203 -24 316 -238 555 -591 710 -1048 48 -143 48 -99 1 -475
-17 -137 -31 -270 -31 -295 0 -86 60 -141 119 -109 50 27 69 88 95 309 35 289
43 332 81 446 46 137 101 252 237 494 111 197 190 349 218 418 11 29 10 35 -5
52 -23 25 -85 27 -113 3 -26 -23 -138 -214 -286 -491 -66 -122 -123 -222 -127
-222 -12 0 -74 114 -109 201 -17 40 -70 178 -117 304 -173 468 -393 870 -585
1071 -135 140 -297 254 -363 254 -11 0 -64 -27 -119 -60 -144 -87 -176 -88
-264 -11 l-43 37 20 55 c11 30 25 73 31 97 11 42 12 43 43 37 18 -4 60 -19 94
-35 48 -22 65 -26 76 -17 28 24 47 62 47 98 0 36 0 36 -81 67 -44 18 -86 32
-94 32 -23 0 -25 14 -12 91 l13 74 96 -1 c92 -1 96 0 107 23 17 37 13 81 -9
103 -17 17 -33 20 -101 20 l-80 0 8 48 c4 26 7 63 8 82 0 41 14 47 111 49 40
1 66 6 73 15 18 22 25 81 11 105 -11 21 -17 22 -107 20 l-95 -3 -24 75 c-13
40 -23 80 -21 88 1 10 41 23 117 40 l115 26 3 35 c5 55 -45 150 -80 150 -5 0
-52 -16 -104 -35 -51 -19 -101 -35 -111 -35 -12 0 -31 26 -61 84 -85 166 -199
289 -331 354 -74 36 -77 37 -195 37 -123 0 -207 -15 -302 -56 l-40 -17 -40 67
c-34 55 -45 66 -70 69 -22 2 -38 -4 -57 -24z m543 -258 c84 -22 148 -62 230
-146 126 -127 183 -265 196 -473 8 -122 -11 -502 -31 -642 -20 -133 -72 -313
-94 -319 -33 -10 -147 -26 -188 -26 -41 0 -42 1 -49 37 -9 48 3 259 16 284 6
10 16 19 23 19 22 0 86 60 112 103 49 85 74 266 55 412 -27 219 -133 403 -272
477 -33 17 -60 22 -114 23 -61 0 -80 -5 -145 -37 -125 -62 -232 -183 -285
-324 -98 -262 -12 -485 220 -564 50 -17 51 -17 58 -66 3 -27 7 -135 7 -240 l1
-192 -142 -22 c-79 -12 -165 -22 -193 -23 l-50 -2 -32 130 c-67 268 -93 533
-74 750 31 331 85 485 221 629 99 105 233 187 344 211 81 18 121 18 186 1z
m-2624 -1418 c33 -197 27 -457 -9 -445 -21 6 -63 78 -126 216 l-62 134 23 26
c52 60 152 160 156 156 3 -2 11 -42 18 -87z m-262 -304 c53 -131 79 -281 56
-324 -28 -53 -225 -53 -363 -1 l-28 11 83 107 c177 233 209 273 217 273 5 0
21 -30 35 -66z"/>
</g>
</svg>
