<?xml version="1.0" standalone="no"?>
<!DOCTYPE svg PUBLIC "-//W3C//DTD SVG 20010904//EN"
 "http://www.w3.org/TR/2001/REC-SVG-20010904/DTD/svg10.dtd">
<svg version="1.0" xmlns="http://www.w3.org/2000/svg"
 width="682.000000pt" height="1280.000000pt" viewBox="0 0 682.000000 1280.000000"
 preserveAspectRatio="xMidYMid meet">
<metadata>
Created by potrace 1.15, written by Peter Selinger 2001-2017
</metadata>
<g transform="translate(0.000000,1280.000000) scale(0.100000,-0.100000)"
fill="#000000" stroke="none">
<path d="M1871 12789 c-457 -48 -871 -269 -1258 -672 -333 -347 -538 -741
-599 -1152 -75 -502 184 -1108 703 -1645 158 -163 192 -184 430 -259 177 -57
491 -201 578 -266 139 -103 164 -191 99 -345 -20 -47 -44 -107 -55 -134 -31
-77 -88 -476 -110 -774 -17 -233 -1 -522 30 -522 8 0 66 144 127 321 111 320
135 324 313 58 230 -343 443 -866 711 -1749 133 -436 163 -581 142 -691 -27
-147 -94 -197 -307 -229 -71 -10 -200 -35 -285 -55 -180 -42 -344 -55 -431
-35 -30 7 -83 28 -118 47 -161 87 -191 134 -272 428 -75 275 -79 304 -89 685
-9 348 -25 533 -56 657 -44 177 -137 271 -259 261 -99 -8 -181 -88 -230 -223
-69 -192 -120 -896 -85 -1180 41 -345 118 -562 321 -907 219 -372 446 -574
658 -586 69 -3 91 1 241 48 91 28 287 82 435 120 149 37 319 83 379 100 91 27
120 32 180 28 84 -6 147 -31 204 -83 35 -31 50 -59 101 -188 33 -84 123 -341
201 -572 153 -456 152 -452 109 -542 -30 -61 -95 -131 -150 -158 -58 -30 -109
-42 -259 -61 -218 -28 -299 -68 -482 -243 -207 -196 -353 -441 -423 -706 -52
-195 -59 -258 -59 -485 -1 -185 3 -231 22 -330 38 -188 108 -340 229 -498 107
-140 140 -170 201 -188 134 -39 289 27 355 151 18 33 21 57 21 130 -1 81 -5
100 -43 200 -140 361 -167 449 -179 586 -23 268 76 498 318 739 145 146 237
200 338 200 109 0 234 -99 358 -285 149 -223 214 -397 338 -905 128 -520 155
-590 273 -707 73 -71 206 -144 300 -163 122 -26 230 6 280 82 26 39 28 48 27
152 l0 111 -83 230 c-45 126 -134 396 -197 600 -153 493 -228 719 -279 840
-58 136 -59 142 -41 169 18 28 546 292 666 334 98 34 263 38 350 8 192 -65
404 -228 518 -400 26 -39 88 -149 137 -245 51 -99 104 -188 124 -207 100 -99
329 -90 425 17 72 79 72 170 0 360 -25 68 -66 181 -89 250 -54 157 -85 225
-126 286 -164 240 -647 536 -953 583 -59 9 -84 8 -175 -10 -189 -38 -519 -159
-835 -306 -88 -42 -166 -78 -172 -80 -13 -6 -64 84 -177 311 -146 294 -286
640 -405 1007 -115 351 -121 414 -47 484 54 50 124 63 385 68 241 5 330 18
500 71 121 38 290 122 393 196 173 123 371 364 444 539 61 145 65 244 23 528
-24 161 -47 221 -137 365 -70 112 -105 181 -154 302 -43 105 -134 200 -222
233 -106 40 -215 26 -288 -37 -56 -47 -79 -100 -79 -184 0 -91 25 -162 117
-330 114 -210 143 -273 164 -355 18 -71 18 -81 4 -170 -18 -111 -55 -226 -90
-281 -39 -62 -86 -91 -206 -127 -72 -21 -138 -49 -192 -81 -150 -89 -214 -114
-557 -214 -175 -51 -246 -56 -284 -20 -27 26 -43 72 -180 531 -95 319 -152
521 -286 1010 -50 184 -155 556 -232 825 -76 270 -173 623 -215 785 -41 162
-102 381 -135 485 -74 236 -80 274 -46 308 27 26 72 39 321 87 196 38 291 68
433 135 421 199 682 516 788 955 87 364 60 809 -76 1229 -74 228 -165 423
-285 610 -160 248 -375 443 -614 555 -311 147 -823 225 -1208 185z m664 -494
c266 -48 556 -189 742 -360 249 -229 357 -519 356 -960 -1 -490 -108 -835
-342 -1104 -249 -286 -764 -455 -1391 -455 -240 0 -324 11 -480 65 -356 122
-717 500 -858 901 -60 168 -80 328 -62 483 26 231 109 443 259 666 292 435
713 696 1251 774 122 18 402 13 525 -10z"/>
<path d="M2175 11983 c-459 -45 -901 -344 -1142 -773 -50 -88 -101 -221 -130
-337 -23 -92 -27 -130 -27 -253 -1 -122 3 -158 22 -225 74 -257 291 -485 635
-666 202 -106 379 -152 587 -152 259 0 431 64 653 243 176 141 360 375 453
576 171 367 112 877 -136 1190 -143 179 -401 330 -645 377 -89 17 -209 26
-270 20z m352 -544 c143 -20 230 -85 294 -222 40 -87 59 -182 59 -309 0 -245
-58 -380 -230 -533 -166 -148 -439 -275 -589 -275 -204 0 -417 167 -510 402
-38 95 -53 180 -53 298 2 286 143 460 452 558 107 34 274 68 395 81 44 5 85 9
92 10 6 0 47 -4 90 -10z"/>
</g>
</svg>
