<?xml version="1.0" standalone="no"?>
<!DOCTYPE svg PUBLIC "-//W3C//DTD SVG 20010904//EN"
 "http://www.w3.org/TR/2001/REC-SVG-20010904/DTD/svg10.dtd">
<svg version="1.0" xmlns="http://www.w3.org/2000/svg"
 width="1143.000000pt" height="1280.000000pt" viewBox="0 0 1143.000000 1280.000000"
 preserveAspectRatio="xMidYMid meet">
<metadata>
Created by potrace 1.15, written by Peter Selinger 2001-2017
</metadata>
<g transform="translate(0.000000,1280.000000) scale(0.100000,-0.100000)"
fill="#000000" stroke="none">
<path d="M3905 12789 c-103 -10 -216 -31 -325 -60 -236 -63 -647 -216 -968
-361 -382 -172 -1314 -646 -1452 -739 -224 -150 -196 -335 50 -331 57 0 112
11 230 46 319 92 810 206 892 206 63 0 117 -24 137 -61 29 -52 12 -63 -447
-293 -445 -224 -510 -265 -546 -340 -60 -127 49 -245 255 -276 85 -12 81 -13
535 50 158 22 296 40 306 40 16 0 18 -12 18 -127 0 -69 -9 -286 -21 -482 -26
-434 -22 -734 17 -1201 31 -377 43 -892 25 -1076 -34 -354 -123 -716 -338
-1369 -176 -535 -238 -743 -306 -1025 -92 -375 -190 -893 -213 -1113 l-6 -68
-585 -627 c-321 -345 -590 -631 -598 -637 -10 -7 -41 17 -123 97 -123 120
-173 151 -247 151 -154 0 -241 -174 -164 -328 30 -60 419 -469 459 -484 91
-31 215 -17 290 34 19 13 343 323 720 689 l685 666 293 0 293 0 -25 -32 c-87
-113 -1596 -1895 -1617 -1911 -53 -39 -99 -33 -289 34 -238 84 -305 101 -360
94 -111 -16 -149 -111 -90 -225 25 -47 146 -177 223 -238 109 -86 221 -141
380 -183 137 -37 317 -14 427 56 24 15 415 466 1026 1182 543 637 996 1168
1008 1180 l21 21 375 -13 c1382 -50 3411 -105 4720 -128 l135 -2 236 -550
c836 -1951 819 -1911 819 -1985 0 -74 -9 -82 -219 -191 -108 -56 -216 -116
-239 -133 -132 -94 -119 -243 29 -319 71 -36 140 -44 210 -24 69 21 664 381
693 420 17 23 21 47 24 135 7 204 22 161 -509 1451 -264 640 -477 1166 -474
1169 5 6 336 -53 390 -69 43 -13 102 -73 135 -138 15 -31 88 -204 163 -386
734 -1792 931 -2275 940 -2307 17 -67 0 -87 -141 -171 -70 -41 -149 -87 -177
-102 -125 -70 -182 -146 -173 -230 15 -130 162 -208 295 -157 59 22 678 445
699 477 21 32 28 133 15 209 -6 37 -47 173 -90 304 -286 863 -668 1735 -1252
2852 -106 204 -154 307 -168 361 l-19 75 85 1952 85 1952 66 117 c97 175 198
389 237 507 63 186 45 254 -69 264 -43 3 -65 -1 -111 -22 -80 -36 -193 -153
-288 -297 -84 -128 -101 -141 -204 -160 -32 -6 -101 -9 -153 -6 -106 6 -1086
127 -2435 302 -2340 301 -2821 362 -3295 415 -151 17 -300 36 -330 41 -143 29
-199 96 -273 324 -69 215 -98 408 -98 655 0 391 81 618 301 839 143 144 318
248 515 306 118 35 313 45 422 22 148 -32 287 -127 352 -240 64 -113 102 -335
81 -478 -31 -213 -138 -381 -368 -576 -172 -147 -215 -205 -216 -296 -1 -43 3
-52 32 -78 29 -26 40 -29 98 -29 162 0 402 125 580 304 145 146 238 297 303
491 63 190 80 442 42 615 -49 222 -185 481 -326 625 -178 181 -423 262 -709
235 -226 -22 -383 -62 -816 -207 -306 -104 -318 -107 -406 -107 -77 -1 -95 2
-113 18 -28 25 -27 48 5 85 37 45 119 91 304 171 405 175 695 262 931 278 280
19 506 -30 804 -174 330 -159 451 -282 595 -609 109 -246 142 -494 105 -779
-29 -221 -84 -396 -205 -656 -99 -212 -124 -312 -100 -409 31 -131 143 -127
283 12 456 453 576 1374 264 2039 -86 183 -186 326 -336 482 -286 294 -637
472 -1076 547 -139 23 -413 33 -550 18z m16 -4050 l55 -11 393 -920 c216 -506
398 -935 404 -954 30 -99 -90 -279 -199 -300 -19 -3 -51 -3 -71 1 -67 12 -114
75 -304 410 -175 307 -260 461 -644 1160 -109 198 -208 378 -221 401 l-24 41
57 40 c176 123 370 169 554 132z m1668 -1151 c502 -997 495 -979 443 -1030
-19 -20 -35 -24 -106 -26 -222 -10 -461 74 -551 193 -17 23 -175 377 -359 805
-349 810 -356 831 -323 897 31 59 110 80 302 82 l130 1 464 -922z m870 774
c19 -9 43 -28 53 -42 17 -23 631 -1439 685 -1580 62 -161 7 -307 -141 -376
-128 -59 -262 -34 -322 59 -40 64 -858 1744 -876 1800 -23 74 -23 89 1 118 17
22 30 25 123 30 56 3 180 6 273 7 144 2 175 -1 204 -16z m894 -116 c18 -7 44
-26 59 -42 36 -40 955 -1733 970 -1788 30 -114 -63 -221 -203 -233 -67 -7
-136 21 -168 66 -11 15 -224 410 -473 877 -452 847 -453 849 -453 909 0 147
147 263 268 211z m1044 -136 c18 -10 43 -36 57 -57 34 -53 949 -1630 976
-1684 65 -127 -12 -214 -191 -214 -59 0 -92 5 -108 15 -13 8 -254 393 -537
855 -558 913 -536 870 -497 953 23 49 86 110 136 133 55 24 123 24 164 -1z
m871 -85 c217 -72 253 -91 289 -144 33 -48 30 -85 -27 -363 -57 -284 -62 -301
-90 -296 -21 3 -541 706 -566 765 -17 39 -18 67 -3 95 10 19 18 20 103 16 78
-5 119 -15 294 -73z m-5786 -690 c85 -137 182 -297 215 -355 60 -104 176 -330
194 -377 9 -24 9 -25 -33 -18 -160 26 -651 124 -846 170 -21 5 -22 8 -17 93
20 300 61 678 95 872 17 90 23 108 46 127 l28 22 81 -142 c45 -78 151 -254
237 -392z m-401 -1165 c379 -47 598 -84 822 -136 127 -30 138 -41 109 -107
-21 -46 -1291 -1468 -1362 -1524 -48 -38 -63 -40 -89 -14 -28 28 -33 91 -21
267 43 659 99 996 225 1349 26 72 51 145 57 163 6 17 12 32 13 32 1 0 112 -14
246 -30z m1770 -217 c100 -56 144 -154 102 -230 -20 -35 -1070 -1329 -1143
-1406 -60 -66 -110 -90 -182 -89 -144 2 -279 149 -237 258 19 49 1185 1456
1229 1483 52 32 158 25 231 -16z m1047 -104 c52 -22 76 -69 62 -117 -7 -26
-890 -1377 -966 -1478 -36 -48 -100 -75 -179 -75 -157 0 -289 90 -271 186 4
22 180 269 524 736 561 763 551 751 658 768 63 10 118 3 172 -20z m795 -75
c80 -27 119 -93 98 -163 -13 -45 -860 -1345 -897 -1378 -86 -77 -321 44 -283
146 12 29 863 1327 892 1360 46 50 110 62 190 35z m1042 -31 c104 -18 133 -31
169 -73 48 -58 35 -104 -68 -240 -70 -92 -256 -358 -672 -965 -147 -213 -208
-294 -234 -309 -27 -16 -53 -21 -115 -21 -98 0 -179 25 -234 71 -45 39 -61 77
-50 119 5 17 219 345 476 730 357 533 474 701 493 707 31 9 117 2 235 -19z
m1070 -97 c49 -21 63 -71 41 -152 -8 -32 -132 -356 -274 -719 l-258 -660 -250
2 c-308 3 -458 15 -485 39 -26 23 -24 79 4 129 17 30 910 1205 972 1279 36 43
139 94 193 96 12 0 38 -6 57 -14z m692 -153 c14 -35 14 -87 -6 -613 -25 -666
-22 -643 -113 -685 -64 -29 -174 -43 -379 -47 -174 -4 -184 1 -176 72 3 32 89
223 292 655 158 336 297 620 308 633 31 33 55 28 74 -15z"/>
</g>
</svg>
