<?xml version="1.0" standalone="no"?>
<!DOCTYPE svg PUBLIC "-//W3C//DTD SVG 20010904//EN"
 "http://www.w3.org/TR/2001/REC-SVG-20010904/DTD/svg10.dtd">
<svg version="1.0" xmlns="http://www.w3.org/2000/svg"
 width="1280.000000pt" height="756.000000pt" viewBox="0 0 1280.000000 756.000000"
 preserveAspectRatio="xMidYMid meet">
<metadata>
Created by potrace 1.15, written by Peter Selinger 2001-2017
</metadata>
<g transform="translate(0.000000,756.000000) scale(0.100000,-0.100000)"
fill="#000000" stroke="none">
<path d="M5965 7554 c-144 -16 -252 -37 -281 -55 -78 -48 -155 -171 -189 -300
-36 -136 -17 -273 66 -481 116 -289 144 -415 136 -608 -6 -126 -26 -227 -68
-342 l-21 -58 -67 0 c-129 0 -521 29 -1236 90 -381 33 -761 63 -1030 82 -114
8 -382 13 -730 13 -590 0 -697 -6 -1105 -61 -602 -80 -760 -121 -1080 -276
-134 -65 -151 -77 -226 -152 -94 -95 -128 -157 -129 -234 0 -47 4 -57 28 -78
24 -20 39 -24 96 -24 56 0 101 10 242 56 96 30 219 66 274 79 89 21 157 34
474 91 46 8 85 13 87 11 2 -2 -178 -188 -400 -414 -222 -225 -412 -425 -421
-443 -24 -46 -16 -119 18 -164 54 -69 176 -99 242 -57 17 10 178 163 358 339
513 501 701 665 807 701 82 27 124 27 151 0 30 -30 20 -87 -32 -191 -91 -180
-239 -392 -537 -766 -89 -112 -173 -222 -187 -245 -37 -64 -41 -113 -13 -167
43 -83 136 -119 224 -85 51 19 47 14 285 385 379 593 628 876 789 897 47 7 60
-4 60 -49 0 -73 -116 -322 -325 -693 -195 -345 -215 -387 -215 -449 0 -67 28
-112 90 -143 81 -41 176 -24 224 41 13 17 97 173 186 346 186 359 347 660 398
740 71 114 138 163 189 138 41 -20 67 -82 71 -168 l4 -75 -189 -381 c-104
-210 -198 -407 -207 -439 -35 -111 -1 -201 95 -249 94 -46 211 -29 269 40 14
17 81 147 150 289 259 540 387 788 435 843 60 68 124 105 182 106 38 1 49 -4
73 -31 72 -81 43 -246 -131 -723 -141 -391 -158 -443 -159 -492 0 -83 32 -135
105 -169 88 -40 195 -11 239 64 54 91 319 729 392 939 57 165 96 240 155 300
48 48 95 66 143 54 37 -9 85 -66 101 -120 31 -104 21 -153 -95 -451 -162 -417
-283 -817 -283 -940 -1 -147 129 -235 259 -176 47 22 78 59 124 150 85 170
155 351 287 736 194 570 272 715 381 715 39 0 66 -38 81 -115 10 -51 61 -1045
62 -1210 1 -49 -3 -101 -9 -115 -12 -30 -56 -72 -137 -131 -90 -65 -278 -216
-590 -473 -976 -806 -1039 -856 -1120 -896 -105 -52 -198 -68 -295 -51 -39 7
-85 23 -103 35 -18 13 -133 107 -256 210 -255 216 -305 251 -376 267 -46 10
-57 9 -98 -9 -63 -28 -90 -81 -90 -175 0 -58 5 -78 34 -135 31 -62 43 -74 159
-160 228 -170 301 -248 303 -326 2 -76 -82 -146 -343 -286 -308 -165 -349
-193 -376 -257 -8 -18 -14 -47 -14 -65 0 -39 32 -113 63 -147 29 -31 114 -71
153 -71 20 0 141 54 343 154 346 171 460 218 538 219 63 2 93 -22 113 -86 18
-61 14 -283 -10 -557 -12 -129 -18 -254 -15 -277 7 -51 46 -100 92 -119 39
-17 113 -18 167 -3 51 14 123 82 136 128 5 20 14 146 20 281 17 391 46 603
112 809 33 105 67 178 106 229 38 50 234 207 673 538 539 406 752 583 889 738
71 80 71 82 40 -119 -80 -529 -211 -924 -600 -1810 -70 -159 -130 -307 -133
-328 -12 -79 40 -174 116 -214 35 -18 -62 -12 1707 -94 l475 -22 50 24 c69 35
108 91 113 166 3 54 -4 77 -98 323 -333 866 -455 1209 -725 2038 -18 56 -30
102 -25 102 29 0 744 -584 1525 -1246 280 -237 298 -254 319 -306 36 -85 29
-105 -143 -464 -95 -197 -108 -238 -97 -298 27 -141 257 -192 356 -79 18 20
81 136 140 257 135 278 159 308 220 276 28 -15 128 -171 285 -445 283 -492
305 -525 376 -547 116 -34 259 91 259 228 0 63 -117 261 -330 559 -144 202
-177 287 -127 332 45 42 89 48 342 48 229 0 242 1 282 22 118 63 137 217 40
315 -63 62 -66 63 -457 63 -405 0 -429 3 -585 80 -76 37 -238 160 -1055 800
-531 416 -987 775 -1013 797 -132 110 -250 295 -283 443 -20 88 -30 603 -16
870 7 148 12 188 30 227 36 81 91 73 151 -21 63 -97 83 -187 106 -456 18 -211
30 -312 55 -455 46 -261 76 -324 172 -365 69 -28 151 -12 204 42 58 57 58 64
30 524 -14 229 -26 445 -26 480 0 168 77 279 193 279 126 0 225 -122 261 -321
9 -46 41 -266 71 -489 31 -222 63 -420 71 -440 61 -145 266 -159 381 -26 58
69 58 66 28 577 -30 513 -30 638 2 710 31 69 55 89 106 89 77 0 159 -77 217
-205 35 -78 27 -36 136 -654 52 -295 99 -549 104 -566 41 -119 191 -152 312
-68 56 38 88 97 88 161 0 29 -34 280 -76 560 -81 538 -91 657 -62 724 30 69
84 73 139 10 48 -55 73 -121 134 -359 168 -652 198 -761 218 -796 41 -73 120
-97 195 -58 66 34 102 93 102 167 0 26 -40 239 -90 474 -49 235 -90 448 -90
474 0 92 59 166 137 173 58 5 98 -17 142 -77 38 -53 55 -99 197 -535 107 -331
119 -363 153 -396 21 -21 54 -42 77 -48 90 -24 209 47 235 141 13 48 6 81
-107 483 -65 232 -75 312 -46 365 29 52 80 68 153 46 72 -20 165 -89 224 -163
60 -76 163 -286 275 -563 99 -244 124 -291 173 -320 67 -41 177 -14 236 57 34
41 54 111 45 151 -14 55 -129 313 -234 525 -60 119 -107 217 -104 217 12 0
180 -101 313 -188 213 -138 352 -246 671 -521 108 -93 161 -121 229 -121 81 1
170 72 192 155 24 89 -3 145 -159 321 -210 235 -523 462 -823 596 -159 71
-307 118 -604 192 -1190 298 -2356 476 -3452 527 -241 11 -878 7 -1104 -7
l-95 -6 -13 258 c-24 466 -28 646 -13 652 18 7 178 -4 492 -34 662 -62 739
-65 798 -35 87 45 162 163 162 256 0 85 -16 100 -211 203 -468 245 -873 387
-1283 448 -99 15 -441 26 -521 18z"/>
</g>
</svg>
