<?xml version="1.0" standalone="no"?>
<!DOCTYPE svg PUBLIC "-//W3C//DTD SVG 20010904//EN"
 "http://www.w3.org/TR/2001/REC-SVG-20010904/DTD/svg10.dtd">
<svg version="1.0" xmlns="http://www.w3.org/2000/svg"
 width="1119.000000pt" height="1280.000000pt" viewBox="0 0 1119.000000 1280.000000"
 preserveAspectRatio="xMidYMid meet">
<metadata>
Created by potrace 1.15, written by Peter Selinger 2001-2017
</metadata>
<g transform="translate(0.000000,1280.000000) scale(0.100000,-0.100000)"
fill="#000000" stroke="none">
<path d="M4672 12782 c-99 -36 -162 -120 -162 -217 0 -30 50 -380 111 -777 60
-396 106 -724 102 -728 -4 -3 -44 -15 -88 -24 -182 -41 -439 -128 -648 -218
-65 -28 -119 -49 -121 -47 -2 2 -167 301 -367 664 -200 363 -377 678 -394 699
-16 22 -50 50 -75 64 -89 47 -214 14 -293 -78 -53 -63 -73 -162 -45 -227 10
-24 658 -1205 724 -1320 l24 -42 -77 -52 c-154 -104 -340 -252 -480 -383 l-63
-58 -629 525 c-346 290 -650 541 -675 559 -64 44 -152 51 -221 17 -89 -45
-144 -133 -145 -233 0 -115 -23 -92 693 -690 356 -297 646 -545 643 -551 -2
-5 -37 -58 -78 -116 -41 -59 -101 -151 -133 -205 -32 -55 -60 -101 -62 -103
-1 -2 -67 21 -145 52 -79 30 -433 169 -788 308 -587 230 -650 253 -705 253
-125 0 -213 -93 -223 -236 -4 -58 -1 -75 22 -121 16 -34 41 -64 64 -81 21 -14
380 -159 797 -322 418 -163 762 -298 764 -300 2 -2 -17 -68 -42 -146 -45 -139
-97 -339 -97 -372 0 -20 18 -21 -228 9 -397 49 -859 105 -1144 140 -159 20
-300 32 -315 29 -204 -50 -234 -411 -40 -473 18 -6 390 -53 827 -106 437 -53
805 -98 817 -100 20 -5 21 -9 22 -167 0 -183 14 -354 40 -505 10 -57 17 -103
16 -103 -3 0 -1190 -318 -1425 -381 -101 -28 -199 -59 -217 -71 -45 -27 -79
-74 -93 -126 -27 -102 41 -241 144 -295 71 -36 118 -29 511 77 198 53 441 119
540 146 99 27 340 92 536 144 l356 96 554 1 c305 1 892 4 1304 8 l750 7 59
-34 c132 -74 283 -129 445 -161 l86 -17 3 -443 2 -443 -138 -166 c-426 -512
-747 -948 -865 -1172 -77 -145 -133 -287 -217 -549 l-72 -223 -69 -80 c-77
-90 -89 -124 -64 -184 42 -100 158 -156 325 -155 88 1 158 19 205 55 48 37 54
79 25 169 l-23 70 71 141 c91 180 255 454 478 799 223 343 218 337 254 337 47
0 60 -30 60 -138 0 -222 -37 -373 -250 -1017 -257 -776 -404 -1259 -444 -1460
-21 -108 -41 -267 -65 -530 -12 -121 -23 -235 -26 -253 l-6 -33 -157 2 c-89 1
-168 -3 -183 -9 -94 -37 -108 -174 -26 -251 20 -18 46 -26 129 -37 162 -22
270 -42 280 -52 23 -23 -31 -66 -217 -172 -130 -74 -163 -102 -171 -146 -9
-48 28 -118 79 -152 69 -46 102 -39 251 51 101 60 137 77 167 77 52 0 62 -17
120 -207 53 -174 76 -209 141 -220 47 -7 119 26 150 69 38 55 36 117 -11 256
-46 137 -50 168 -22 177 20 6 93 -16 151 -45 62 -31 96 -34 143 -11 76 37 111
142 70 211 -10 17 -109 90 -251 185 l-234 157 7 71 c23 255 69 555 111 727 54
228 250 855 332 1064 40 102 55 128 102 178 50 52 60 58 95 58 43 0 70 -17
102 -65 20 -30 162 -350 288 -650 51 -121 362 -869 392 -941 2 -7 -16 -16 -44
-23 -83 -20 -205 -75 -238 -108 -51 -49 -54 -119 -10 -187 33 -49 65 -58 224
-60 80 -1 154 -5 163 -10 45 -21 25 -64 -90 -188 -80 -86 -92 -122 -66 -187
24 -59 86 -95 155 -89 63 6 78 20 186 176 84 120 105 142 138 142 9 0 74 -59
143 -131 70 -72 139 -137 154 -145 68 -35 152 -4 187 70 39 79 29 112 -63 216
-70 78 -112 150 -103 175 11 28 54 44 144 53 56 6 103 16 118 26 88 58 84 181
-9 250 -25 20 -46 21 -285 27 -142 3 -263 9 -269 13 -13 8 -123 217 -185 352
-86 187 -110 288 -156 644 -50 377 -61 420 -196 700 -51 107 -102 225 -113
261 -25 82 -49 237 -62 403 -13 174 -13 667 1 703 10 27 25 43 42 43 36 1 487
-511 697 -791 125 -167 157 -221 181 -310 37 -132 78 -178 174 -193 130 -22
317 95 360 223 34 103 5 179 -99 256 -77 56 -107 99 -361 499 -58 93 -134 206
-167 250 -95 127 -266 287 -499 468 -331 257 -466 394 -541 545 l-33 68 -5
418 -5 418 40 10 c88 22 195 63 299 115 l109 54 1367 0 1367 0 819 -247 c721
-217 828 -246 890 -247 62 -1 76 2 111 27 85 58 124 190 88 297 -21 63 -70
121 -122 143 -21 9 -342 107 -713 217 -371 111 -712 212 -757 226 -52 16 -80
29 -78 37 2 7 11 61 20 122 9 60 17 111 19 112 3 4 271 40 1131 153 360 48
553 77 580 89 85 38 133 128 121 229 -16 132 -114 232 -229 232 -26 0 -387
-45 -802 -100 -416 -55 -764 -100 -774 -100 -16 0 -19 13 -24 93 -4 50 -10
115 -13 142 l-6 50 783 224 c431 123 800 232 820 242 78 39 115 113 107 213
-11 134 -113 239 -233 239 -35 0 -266 -62 -790 -212 -407 -117 -751 -215 -765
-217 -24 -5 -27 0 -78 148 -29 84 -54 157 -55 163 -1 5 248 136 553 291 866
440 885 450 914 493 58 84 55 215 -7 308 -43 64 -96 93 -171 93 -64 0 -14 24
-1172 -566 l-341 -174 -57 93 c-31 51 -95 143 -142 205 l-85 113 53 58 c29 31
247 264 484 516 574 613 562 598 580 664 10 33 14 69 10 93 -27 169 -233 272
-366 184 -21 -13 -275 -277 -565 -585 -290 -309 -529 -561 -532 -561 -2 0 -53
43 -114 95 -60 53 -155 130 -212 171 -56 42 -103 80 -105 85 -2 4 168 304 376
667 209 362 387 680 397 707 20 59 13 112 -21 172 -85 147 -311 170 -404 42
-15 -22 -195 -329 -400 -684 -204 -355 -376 -645 -382 -645 -5 0 -71 29 -146
64 -201 93 -362 154 -574 216 -69 20 -77 25 -73 44 3 12 64 347 136 746 96
530 130 739 127 778 -6 66 -46 127 -107 161 -51 28 -147 38 -207 22 -58 -15
-120 -64 -144 -112 -15 -29 -60 -256 -154 -775 -73 -404 -135 -737 -138 -740
-3 -3 -41 0 -84 5 -159 22 -454 31 -644 22 -102 -6 -188 -7 -191 -3 -3 4 -50
295 -103 647 -129 849 -131 860 -161 912 -52 87 -173 124 -283 85z m1223
-2012 c55 -5 118 -12 140 -16 l41 -6 -81 -449 c-45 -247 -84 -451 -87 -454 -3
-3 -47 -1 -99 5 -52 5 -162 10 -245 10 l-152 0 -6 33 c-3 17 -33 212 -66 432
-33 220 -62 410 -65 422 -4 18 0 22 27 26 68 8 497 6 593 -3z m-1041 -505 c36
-236 68 -443 71 -458 3 -17 0 -29 -8 -31 -95 -29 -261 -87 -329 -116 l-88 -38
-219 397 c-121 218 -223 404 -226 412 -11 29 338 164 605 234 69 18 126 32
127 31 1 0 31 -194 67 -431z m1827 349 c147 -47 263 -92 424 -166 72 -34 131
-62 133 -63 2 -2 -309 -544 -429 -747 l-39 -67 -103 48 c-56 26 -142 63 -190
81 -67 25 -88 37 -85 49 3 9 40 215 84 458 43 244 82 443 85 443 3 0 57 -16
120 -36z m-2851 -794 c111 -201 212 -384 226 -407 l24 -41 -68 -53 c-156 -123
-343 -325 -460 -496 -30 -46 -59 -83 -63 -83 -4 0 -92 33 -196 74 -330 130
-606 238 -660 258 -29 11 -53 24 -53 29 0 17 130 217 213 328 169 224 378 438
595 608 124 97 225 164 234 155 4 -4 98 -172 208 -372z m3886 263 c57 -43 186
-151 259 -216 l50 -45 -50 -53 c-27 -30 -175 -188 -329 -352 l-279 -297 -81
77 c-45 42 -87 82 -94 89 -11 9 30 88 223 423 130 226 240 411 245 411 4 0 29
-17 56 -37z m697 -710 c122 -170 258 -416 340 -614 53 -129 109 -301 100 -309
-12 -12 -934 -273 -940 -267 -3 3 -20 50 -38 104 -41 123 -110 280 -162 371
l-40 69 339 362 c187 198 341 361 342 361 2 0 28 -35 59 -77z m-2597 -16 c6
-6 -73 -467 -82 -477 -5 -4 -166 -1 -171 4 -3 3 -73 456 -73 474 0 12 23 14
160 10 87 -2 162 -7 166 -11z m-776 -297 c17 -118 34 -227 37 -241 4 -23 0
-28 -46 -47 l-50 -21 -109 197 c-60 108 -114 207 -121 219 -10 21 -8 24 26 39
85 37 218 82 224 76 4 -4 21 -104 39 -222z m1376 130 c102 -48 105 -50 93 -72
-14 -27 -231 -401 -235 -407 -5 -6 -64 20 -64 28 0 8 66 372 81 449 6 28 13
52 15 52 3 0 52 -22 110 -50z m-1991 -447 c54 -98 111 -200 127 -226 l28 -48
-50 -59 -51 -58 -102 40 c-321 124 -387 152 -387 159 0 29 304 369 330 369 4
0 52 -80 105 -177z m2518 -75 c-44 -46 -124 -131 -179 -190 -55 -59 -103 -103
-108 -98 -5 5 0 21 11 37 11 15 48 78 83 138 35 61 88 152 118 204 l54 93 51
-50 51 -51 -81 -83z m-4123 -193 c234 -92 435 -171 447 -175 l21 -9 -24 -77
c-96 -312 -109 -649 -38 -1001 13 -67 24 -125 24 -128 0 -2 -227 -6 -505 -7
-278 -2 -505 -2 -505 -2 0 1 -5 26 -10 55 -24 125 -40 327 -40 509 0 325 38
570 137 893 29 93 40 117 52 114 9 -3 207 -80 441 -172z m3045 101 c125 -33
279 -107 384 -186 360 -272 485 -743 301 -1137 -90 -193 -221 -336 -413 -451
-51 -30 -220 -102 -240 -102 -1 0 -1 48 0 106 l2 107 46 24 c192 97 335 274
397 490 29 102 31 303 4 403 -70 263 -272 473 -536 558 -77 24 -99 27 -230 27
-123 -1 -156 -4 -220 -24 -228 -71 -415 -237 -503 -447 -46 -109 -60 -181 -61
-309 0 -169 35 -293 123 -428 105 -160 265 -278 456 -335 l30 -9 3 -96 c1 -54
-1 -97 -6 -97 -5 0 -54 11 -108 25 -209 53 -424 189 -554 351 -138 172 -199
335 -207 550 -9 212 33 366 146 541 153 237 406 402 699 458 123 23 361 14
487 -19z m1483 -360 c17 -44 37 -104 45 -132 l15 -52 -250 -71 c-138 -40 -253
-70 -255 -67 -7 7 40 60 232 264 136 144 162 168 172 155 7 -9 25 -52 41 -97z
m-3350 -200 c119 -47 229 -89 243 -95 l26 -9 -13 -74 c-19 -103 -18 -315 1
-416 17 -87 63 -230 96 -294 l19 -38 -284 0 c-157 0 -287 4 -290 9 -13 20 -65
242 -76 320 -14 105 -14 332 0 431 12 83 49 250 56 250 2 0 102 -38 222 -84z
m4967 -138 c14 -190 5 -508 -19 -665 -9 -57 -16 -107 -16 -113 0 -7 -175 -10
-511 -10 -481 0 -510 1 -505 18 33 108 66 345 66 481 l0 98 473 136 c259 75
479 136 489 136 13 1 17 -13 23 -81z m-1529 -504 c-9 -48 -28 -131 -43 -186
l-27 -98 -287 0 -287 0 39 88 c21 48 44 111 51 141 6 30 18 56 27 59 9 4 133
41 276 82 l260 75 3 -36 c2 -20 -4 -76 -12 -125z"/>
</g>
</svg>
